<svg
    xmlns="http://www.w3.org/2000/svg"
    viewBox="0 0 466 122"
    id="vector">
    <path
        id="path"
        d="M 11.18 0 L 150.79 0 C 153.53 0.5 156.31 1.64 157.96 3.99 C 160.76 7.75 160.07 12.79 159.86 17.17 C 159.46 22.48 154.25 26.42 149.05 25.99 C 109.71 26.01 70.36 26.01 31.02 25.99 C 29.01 28.65 27.01 31.32 25 33.99 C 23 31.34 21.01 28.67 19 26.02 C 14.45 25.86 9.1 26.87 5.42 23.5 C 1.17 19.92 1.82 13.79 2.15 8.83 C 2.48 4.12 6.64 0.54 11.18 0 M 90.03 6.48 C 90.29 7 90.83 8.06 91.09 8.59 C 89.92 8.55 87.58 8.49 86.41 8.46 C 86.34 7.84 86.19 6.58 86.12 5.95 C 84.28 8.47 82.36 10.94 80.68 13.58 C 82.57 12.84 84.05 11.45 85.4 9.99 C 86.86 9.93 88.33 9.88 89.79 9.84 C 88.63 13.91 84.56 15.69 82.46 19.04 C 87.85 17.51 90.85 12.41 92.02 7.25 C 92.66 7.38 93.95 7.64 94.59 7.76 C 93.45 6.25 91.7 6.38 90.03 6.48 M 140.51 7.79 C 139.06 7.7 137.62 7.62 136.18 7.54 C 136.14 8.65 136.1 9.77 136.06 10.88 C 137.89 11.19 139.72 11.46 141.55 11.71 C 141.5 13.55 141.41 15.39 141.31 17.24 C 139.66 15.94 139.3 13.97 139.05 12.02 C 137.93 14.44 136.74 16.83 135.72 19.3 C 136.74 18.42 137.74 17.52 138.73 16.61 C 141.57 18.43 145.64 19.78 148.67 17.65 C 146.3 17.04 142.09 18.49 142.43 14.64 C 143.89 14.62 145.36 14.6 146.83 14.59 C 146.82 14.3 146.82 13.73 146.82 13.44 C 145.46 13.44 144.09 13.44 142.73 13.44 L 142.76 11.7 C 144.51 11.45 146.25 11.18 147.98 10.88 C 147.94 9.81 147.9 8.75 147.86 7.69 C 145.66 7.67 143.25 7.93 141.68 6.04 C 141.39 6.48 140.8 7.35 140.51 7.79 M 15.36 7.32 C 16.65 8.47 18.39 8.43 20 8.63 C 19.97 11.98 19.92 15.34 20.09 18.69 C 23.08 16.35 20.97 11.8 21.54 8.54 C 23.08 8.42 24.61 8.27 26.14 8.08 C 22.94 6.04 18.91 7.17 15.36 7.32 M 36.22 7.03 C 35.72 8.65 36.29 9.2 37.92 8.67 C 38.42 7.05 37.86 6.5 36.22 7.03 M 93.44 14.24 C 95.68 13.9 97.81 13.1 99.87 12.18 C 99.82 14.29 99.79 16.4 99.76 18.51 L 101.32 18.64 C 101.31 16.21 101.3 13.77 101.29 11.33 C 102.74 9.82 104.17 8.29 105.4 6.6 C 101.3 8.93 97.24 11.46 93.44 14.24 M 122.23 6.6 C 122.29 10.98 122.08 15.37 122.45 19.74 C 123.5 18.64 123.46 17.14 123.52 15.73 C 124.19 15.7 125.53 15.65 126.2 15.63 C 126.62 13.96 125.91 12.32 125.55 10.72 C 125.85 9.94 126.46 8.4 126.77 7.62 C 126.96 10.74 126.92 13.86 127.06 16.98 C 126.36 17.7 125.68 18.43 125 19.17 C 127.22 18.71 129.4 18.07 131.49 17.18 C 130.68 17.09 129.07 16.92 128.26 16.83 C 128.35 15.38 128.45 13.93 128.56 12.48 C 130.08 14.89 131.73 17.24 133.79 19.24 L 134.64 17.9 C 133.74 17.23 132.85 16.56 131.95 15.9 C 132.52 15.33 133.66 14.18 134.23 13.61 C 133.37 13.78 131.64 14.11 130.78 14.27 C 131.46 13.65 132.13 13 132.77 12.33 C 131.04 11.98 129.3 11.75 127.58 11.39 C 128.97 10.39 130.69 10.03 132.35 10.53 C 133.44 10.62 132.5 9.07 132.45 8.49 C 130.77 9.28 129.1 9.23 127.45 8.34 C 129.72 8.05 132.02 8.04 134.32 7.96 C 130.64 5.91 126.25 6.95 122.23 6.6 M 41.67 7.54 C 41.08 9.01 40.11 10.16 38.78 11 C 39.48 11.25 40.19 11.51 40.89 11.76 C 40.94 13.86 41.02 15.95 41.13 18.05 C 42.52 17.95 43.91 17.84 45.3 17.71 C 44.57 17.35 43.1 16.64 42.37 16.28 C 42.41 14.66 42.44 13.05 42.48 11.43 C 43.94 11.43 45.41 11.44 46.87 11.45 C 46.94 13.67 47.02 15.88 47.14 18.1 C 48.53 17.98 49.92 17.87 51.31 17.73 C 50.59 17.38 49.13 16.68 48.41 16.33 C 48.42 14.86 48.44 13.39 48.45 11.91 C 49.1 11.58 50.39 10.91 51.04 10.57 L 48.9 10.03 C 48.45 9.18 48 8.33 47.55 7.48 C 47.48 10.37 45.18 10.48 42.94 10.42 C 42.52 9.46 42.09 8.5 41.67 7.54 M 68.01 7.81 C 68.03 11.19 68.02 14.58 67.97 17.97 C 71.22 16.73 74.78 16.73 78.03 17.97 C 78 14.58 78 11.2 78 7.81 C 74.67 7.83 71.34 7.83 68.01 7.81 M 108.5 7.82 C 109.74 9.59 111.44 10.93 113.27 12.04 C 113.13 9.43 110.87 8.11 108.5 7.82 M 119.08 9 C 117.5 11.08 116.27 13.72 113.76 14.85 C 111.93 15.9 109.48 16.12 108.41 18.17 C 113.04 17.61 119.95 14.59 119.08 9 M 24.21 9.63 C 24.85 12.8 25.63 16.04 27.52 18.73 C 28.3 16.75 28.98 14.74 29.61 12.71 C 30.38 14.8 31.24 16.86 32.49 18.71 C 33.68 15.74 34.64 12.66 35.04 9.48 C 33.13 10.83 32.87 13.22 32.15 15.26 C 31.4 13.32 30.64 11.38 29.82 9.47 C 28.88 11.45 28.09 13.5 27.39 15.57 C 26.61 13.48 26.53 10.69 24.21 9.63 M 36.34 10.23 C 36.36 12.81 36.36 15.39 36.33 17.97 C 36.74 18 37.56 18.08 37.97 18.12 C 37.94 15.44 37.92 12.76 37.89 10.08 C 37.5 10.11 36.73 10.19 36.34 10.23 M 53.15 17.87 C 55.19 18.93 57.21 17.47 59.13 16.85 L 57.39 16.23 C 58.01 15.56 58.64 14.89 59.27 14.24 C 58.26 12.52 57.49 9.72 54.93 10.02 C 50.92 9.93 49.98 16.02 53.15 17.87 M 60.3 10.29 C 60.33 12.85 60.33 15.41 60.31 17.98 C 60.69 18.01 61.45 18.08 61.83 18.12 C 61.92 16.22 62.02 14.33 62.14 12.43 C 63.56 11.8 64.99 11.18 66.4 10.51 C 64.37 10.38 62.33 10.35 60.3 10.29 Z"
        fill="#50649c"/>
    <path
        id="path_1"
        d="M 123.81 8.2 C 127.17 8.32 122.25 11.2 123.81 8.2 Z"
        fill="#50649c"/>
    <path
        id="path_2"
        d="M 69.5 9.22 C 71.84 9.21 74.18 9.21 76.53 9.21 C 76.52 11.39 76.52 13.56 76.52 15.74 C 74.18 15.74 71.84 15.74 69.51 15.73 C 69.51 13.56 69.51 11.39 69.5 9.22 Z"
        fill="#50649c"/>
    <path
        id="path_3"
        d="M 136.4 10.29 C 139.49 8.12 144.51 8.1 147.61 10.27 C 143.88 10.36 140.14 10.36 136.4 10.29 Z"
        fill="#50649c"/>
    <path
        id="path_4"
        d="M 54.13 11.41 C 55.08 10.91 57.39 11.62 56.56 12.98 C 55.42 14.53 51.56 12.63 54.13 11.41 Z"
        fill="#50649c"/>
    <path
        id="path_5"
        d="M 123.91 12.41 C 125.31 12.58 125.55 13.26 124.65 14.46 C 123.26 14.29 123.01 13.61 123.91 12.41 Z"
        fill="#50649c"/>
    <path
        id="path_6"
        d="M 53.67 15.03 C 54.34 14.96 55.68 14.81 56.35 14.73 C 56.45 15.12 56.66 15.91 56.76 16.3 C 55.85 17.26 52.54 16.68 53.67 15.03 Z"
        fill="#50649c"/>
    <path
        id="path_7"
        d="M 42.11 65.78 C 44.71 65.43 47.34 65.67 49.96 65.75 C 54.12 66.98 58.44 68.26 61.77 71.21 C 65.87 74.44 68.01 79.35 69.52 84.21 C 73.28 84.56 77.11 86.66 78.15 90.52 C 79.02 94.44 79.04 99.12 76.23 102.3 C 74.31 104.47 71.29 104.92 68.6 105.46 C 66.54 110.11 63.6 114.72 58.84 116.96 C 63.19 113.75 65.92 109.05 68.81 104.61 C 71.35 103.78 74.52 103.64 76.15 101.21 C 78.41 97.72 78.39 92.98 76.75 89.25 C 75.63 86.52 72.48 85.94 70.04 84.96 C 69.76 84.76 69.19 84.36 68.91 84.16 C 67.07 79.12 64.84 73.87 60.17 70.81 C 54.79 66.54 47.66 66.83 41.19 66.82 L 42.11 65.78 Z"
        fill="#50649c"/>
    <path
        id="path_8"
        d="M 17.5 90.04 C 18.09 83.75 23.64 78.27 30 78.03 C 36.33 77.74 42.68 77.93 49.02 77.91 C 53.39 77.75 58 79.33 60.4 83.18 C 57.76 80.87 54.63 78.76 51.01 78.63 C 44.67 78.41 38.33 78.59 32 78.54 C 27.43 78.32 22.72 80.45 20.24 84.36 C 17.51 88.35 18.19 93.44 18.25 98.01 C 18.31 104.14 23.82 109.74 29.96 109.8 C 33.97 109.96 37.97 109.8 41.98 109.85 C 47.28 109.79 52.89 110.51 57.79 107.95 C 53.47 111.81 47.33 110.67 42.04 110.84 C 35.48 110.53 27.93 112.21 22.43 107.62 C 17.12 103.52 16.78 96.16 17.5 90.04 Z"
        fill="#50649c"/>
    <path
        id="path_9"
        d="M 90.03 6.48 C 91.7 6.38 93.45 6.25 94.59 7.76 C 93.95 7.64 92.66 7.38 92.02 7.25 C 90.85 12.41 87.85 17.51 82.46 19.04 C 84.56 15.69 88.63 13.91 89.79 9.84 C 88.33 9.88 86.86 9.93 85.4 9.99 C 84.05 11.45 82.57 12.84 80.68 13.58 C 82.36 10.94 84.28 8.47 86.12 5.95 C 86.19 6.58 86.34 7.84 86.41 8.46 C 87.58 8.49 89.92 8.55 91.09 8.59 C 90.83 8.06 90.29 7 90.03 6.48 Z"
        fill="#f8fcff"/>
    <path
        id="path_10"
        d="M 140.51 7.79 C 140.8 7.35 141.39 6.48 141.68 6.04 C 143.25 7.93 145.66 7.67 147.86 7.69 C 147.9 8.75 147.94 9.81 147.98 10.88 C 146.25 11.18 144.51 11.45 142.76 11.7 L 142.73 13.44 C 144.09 13.44 145.46 13.44 146.82 13.44 C 146.82 13.73 146.82 14.3 146.83 14.59 C 145.36 14.6 143.89 14.62 142.43 14.64 C 142.09 18.49 146.3 17.04 148.67 17.65 C 145.64 19.78 141.57 18.43 138.73 16.61 C 137.74 17.52 136.74 18.42 135.72 19.3 C 136.74 16.83 137.93 14.44 139.05 12.02 C 139.3 13.97 139.66 15.94 141.31 17.24 C 141.41 15.39 141.5 13.55 141.55 11.71 C 139.72 11.46 137.89 11.19 136.06 10.88 C 136.1 9.77 136.14 8.65 136.18 7.54 C 137.62 7.62 139.06 7.7 140.51 7.79 M 136.4 10.29 C 140.14 10.36 143.88 10.36 147.61 10.27 C 144.51 8.1 139.49 8.12 136.4 10.29 Z"
        fill="#f8fcff"/>
    <path
        id="path_11"
        d="M 15.36 7.32 C 18.91 7.17 22.94 6.04 26.14 8.08 C 24.61 8.27 23.08 8.42 21.54 8.54 C 20.97 11.8 23.08 16.35 20.09 18.69 C 19.92 15.34 19.97 11.98 20 8.63 C 18.39 8.43 16.65 8.47 15.36 7.32 Z"
        fill="#f8fcff"/>
    <path
        id="path_12"
        d="M 93.44 14.24 C 97.24 11.46 101.3 8.93 105.4 6.6 C 104.17 8.29 102.74 9.82 101.29 11.33 C 101.3 13.77 101.31 16.21 101.32 18.64 L 99.76 18.51 C 99.79 16.4 99.82 14.29 99.87 12.18 C 97.81 13.1 95.68 13.9 93.44 14.24 Z"
        fill="#f8fcff"/>
    <path
        id="path_13"
        d="M 122.23 6.6 C 126.25 6.95 130.64 5.91 134.32 7.96 C 132.02 8.04 129.72 8.05 127.45 8.34 C 129.1 9.23 130.77 9.28 132.45 8.49 C 132.5 9.07 133.44 10.62 132.35 10.53 C 130.69 10.03 128.97 10.39 127.58 11.39 C 129.3 11.75 131.04 11.98 132.77 12.33 C 132.13 13 131.46 13.65 130.78 14.27 C 131.64 14.11 133.37 13.78 134.23 13.61 C 133.66 14.18 132.52 15.33 131.95 15.9 C 132.85 16.56 133.74 17.23 134.64 17.9 L 133.79 19.24 C 131.73 17.24 130.08 14.89 128.56 12.48 C 128.45 13.93 128.35 15.38 128.26 16.83 C 129.07 16.92 130.68 17.09 131.49 17.18 C 129.4 18.07 127.22 18.71 125 19.17 C 125.68 18.43 126.36 17.7 127.06 16.98 C 126.92 13.86 126.96 10.74 126.77 7.62 C 126.46 8.4 125.85 9.94 125.55 10.72 C 125.91 12.32 126.62 13.96 126.2 15.63 C 125.53 15.65 124.19 15.7 123.52 15.73 C 123.46 17.14 123.5 18.64 122.45 19.74 C 122.08 15.37 122.29 10.98 122.23 6.6 M 123.81 8.2 C 122.25 11.2 127.17 8.32 123.81 8.2 M 123.91 12.41 C 123.01 13.61 123.26 14.29 124.65 14.46 C 125.55 13.26 125.31 12.58 123.91 12.41 Z"
        fill="#f8fcff"/>
    <path
        id="path_14"
        d="M 41.67 7.54 C 42.09 8.5 42.52 9.46 42.94 10.42 C 45.18 10.48 47.48 10.37 47.55 7.48 C 48 8.33 48.45 9.18 48.9 10.03 L 51.04 10.57 C 50.39 10.91 49.1 11.58 48.45 11.91 C 48.44 13.39 48.42 14.86 48.41 16.33 C 49.13 16.68 50.59 17.38 51.31 17.73 C 49.92 17.87 48.53 17.98 47.14 18.1 C 47.02 15.88 46.94 13.67 46.87 11.45 C 45.41 11.44 43.94 11.43 42.48 11.43 C 42.44 13.05 42.41 14.66 42.37 16.28 C 43.1 16.64 44.57 17.35 45.3 17.71 C 43.91 17.84 42.52 17.95 41.13 18.05 C 41.02 15.95 40.94 13.86 40.89 11.76 C 40.19 11.51 39.48 11.25 38.78 11 C 40.11 10.16 41.08 9.01 41.67 7.54 Z"
        fill="#f8fcff"/>
    <path
        id="path_15"
        d="M 68.01 7.81 C 71.34 7.83 74.67 7.83 78 7.81 C 78 11.2 78 14.58 78.03 17.97 C 74.78 16.73 71.22 16.73 67.97 17.97 C 68.02 14.58 68.03 11.19 68.01 7.81 M 69.5 9.22 C 69.51 11.39 69.51 13.56 69.51 15.73 C 71.84 15.74 74.18 15.74 76.52 15.74 C 76.52 13.56 76.52 11.39 76.53 9.21 C 74.18 9.21 71.84 9.21 69.5 9.22 Z"
        fill="#f8fcff"/>
    <path
        id="path_16"
        d="M 108.5 7.82 C 110.87 8.11 113.13 9.43 113.27 12.04 C 111.44 10.93 109.74 9.59 108.5 7.82 Z"
        fill="#f8fcff"/>
    <path
        id="path_17"
        d="M 119.08 9 C 119.95 14.59 113.04 17.61 108.41 18.17 C 109.48 16.12 111.93 15.9 113.76 14.85 C 116.27 13.72 117.5 11.08 119.08 9 Z"
        fill="#f8fcff"/>
    <path
        id="path_18"
        d="M 24.21 9.63 C 26.53 10.69 26.61 13.48 27.39 15.57 C 28.09 13.5 28.88 11.45 29.82 9.47 C 30.64 11.38 31.4 13.32 32.15 15.26 C 32.87 13.22 33.13 10.83 35.04 9.48 C 34.64 12.66 33.68 15.74 32.49 18.71 C 31.24 16.86 30.38 14.8 29.61 12.71 C 28.98 14.74 28.3 16.75 27.52 18.73 C 25.63 16.04 24.85 12.8 24.21 9.63 Z"
        fill="#f8fcff"/>
    <path
        id="path_19"
        d="M 36.34 10.23 C 36.73 10.19 37.5 10.11 37.89 10.08 C 37.92 12.76 37.94 15.44 37.97 18.12 C 37.56 18.08 36.74 18 36.33 17.97 C 36.36 15.39 36.36 12.81 36.34 10.23 Z"
        fill="#f8fcff"/>
    <path
        id="path_20"
        d="M 53.15 17.87 C 49.98 16.02 50.92 9.93 54.93 10.02 C 57.49 9.72 58.26 12.52 59.27 14.24 C 58.64 14.89 58.01 15.56 57.39 16.23 L 59.13 16.85 C 57.21 17.47 55.19 18.93 53.15 17.87 M 54.13 11.41 C 51.56 12.63 55.42 14.53 56.56 12.98 C 57.39 11.62 55.08 10.91 54.13 11.41 M 53.67 15.03 C 52.54 16.68 55.85 17.26 56.76 16.3 C 56.66 15.91 56.45 15.12 56.35 14.73 C 55.68 14.81 54.34 14.96 53.67 15.03 Z"
        fill="#f8fcff"/>
    <path
        id="path_21"
        d="M 60.3 10.29 C 62.33 10.35 64.37 10.38 66.4 10.51 C 64.99 11.18 63.56 11.8 62.14 12.43 C 62.02 14.33 61.92 16.22 61.83 18.12 C 61.45 18.08 60.69 18.01 60.31 17.98 C 60.33 15.41 60.33 12.85 60.3 10.29 Z"
        fill="#f8fcff"/>
    <path
        id="path_22"
        d="M 33.84 49.9 C 34.34 49.58 35.35 48.95 35.86 48.63 C 40.67 48.48 45.5 48.31 50.3 48.72 C 52.52 49.43 52.45 51.69 51.72 53.51 C 49.01 53.52 46.29 53.55 43.58 53.65 C 43.02 53.04 42.46 52.43 41.9 51.82 C 41.7 52.53 41.31 53.94 41.11 54.64 C 44.58 54.58 48.06 54.73 51.53 54.76 C 51.01 56.89 50.51 59.03 50.2 61.2 C 49.94 61.73 49.42 62.79 49.16 63.32 C 46.87 64.16 44.46 64.4 42.06 64.03 C 41.21 64.03 39.53 64.03 38.69 64.02 C 36.19 64.47 33.71 64 31.32 63.28 C 31.22 61.13 31.42 58.97 31.75 56.84 C 32.24 55.21 32.57 53.54 32.87 51.87 C 33.11 51.37 33.6 50.39 33.84 49.9 Z"
        fill="#f8fcff"/>
    <path
        id="path_23"
        d="M 114.51 52.38 C 115.73 52.44 116.95 52.51 118.18 52.57 C 118.08 53.32 117.9 54.82 117.81 55.57 C 121.12 55.32 124.41 54.91 127.68 54.29 C 127.69 55.16 127.73 56.91 127.75 57.78 C 124.4 58.21 121.03 58.56 117.66 58.75 C 117.6 59.23 117.49 60.21 117.44 60.69 C 119.29 60.38 121.75 61 122.61 58.77 C 123.39 59.02 124.17 59.28 124.95 59.53 C 125.83 62.52 130.08 63.38 129.9 66.94 C 130.56 72.25 124.94 75.27 120.39 75.61 C 119.68 74.52 119.13 73.35 118.52 72.21 C 121.13 71.71 124.34 71.32 125.86 68.82 C 126.9 66.97 125.47 65.22 124.1 64.1 C 121.51 68.72 118 74.46 112.09 74.66 C 107.59 74.38 107.11 68.49 109.37 65.54 C 110.64 62.87 114.77 62.34 114.43 58.87 C 112.61 58.81 110.8 58.75 108.99 58.71 C 108.98 57.58 108.98 56.46 108.97 55.33 C 110.76 55.48 112.55 55.6 114.34 55.7 C 114.39 54.87 114.47 53.21 114.51 52.38 M 117.46 63.74 C 117.52 65.22 117.59 66.71 117.68 68.19 C 118.79 66.62 119.82 65 120.79 63.34 C 119.68 63.46 118.56 63.6 117.46 63.74 M 111.96 70.99 C 116.04 72.16 113.98 67.2 114.12 64.98 C 112.69 66.56 110.66 68.75 111.96 70.99 Z"
        fill="#f8fcff"/>
    <path
        id="path_24"
        d="M 165.37 52.43 C 166.68 52.55 168.01 52.67 169.33 52.78 C 169.16 53.74 168.83 55.65 168.66 56.61 C 170.18 56.37 171.7 56.12 173.21 55.88 C 173.13 57.58 172.73 59.2 172.02 60.75 C 175.06 60.14 178.17 60.06 181.26 60.1 C 181.29 61.31 181.33 62.53 181.37 63.75 C 177.79 63.56 174.21 63.79 170.67 64.31 C 170.71 62.57 171.21 60.99 172.17 59.55 C 171.15 59.67 169.1 59.91 168.08 60.03 C 167.02 65.26 165.46 70.35 163.68 75.37 C 162.35 74.89 161.02 74.41 159.7 73.92 C 161.79 69.54 163.04 64.85 164.2 60.15 C 163.2 60.13 161.21 60.08 160.21 60.06 C 160.22 59.19 160.23 57.44 160.24 56.57 C 161.76 56.66 163.3 56.73 164.83 56.8 C 165.01 55.34 165.19 53.89 165.37 52.43 Z"
        fill="#f8fcff"/>
    <path
        id="path_25"
        d="M 139.64 52.36 C 140.6 52.46 142.51 52.65 143.47 52.75 C 143.27 53.7 142.86 55.58 142.66 56.53 C 143.96 56.34 145.27 56.16 146.58 55.98 L 146.64 58.88 C 147.04 58.57 147.84 57.93 148.24 57.62 C 148.49 57.06 149 55.94 149.26 55.38 C 151.87 56.4 154.42 57.57 156.9 58.89 C 156.35 59.96 155.79 61.04 155.24 62.11 C 152.95 60.84 150.59 59.68 148.17 58.66 C 146.3 59.92 143.94 59.66 141.81 60.01 C 140.48 64.19 138.71 68.22 136.66 72.1 C 135.48 71.46 134.3 70.82 133.12 70.18 C 135.23 67.08 136.62 63.58 137.96 60.1 C 136.66 60.08 135.37 60.05 134.08 60.03 C 134.07 59.17 134.05 57.44 134.04 56.58 C 135.65 56.66 137.25 56.73 138.86 56.79 C 139.13 55.31 139.39 53.84 139.64 52.36 Z"
        fill="#f8fcff"/>
    <path
        id="path_26"
        d="M 193.74 52.31 C 194.72 52.4 196.67 52.57 197.64 52.66 C 197.37 53.33 196.84 54.66 196.57 55.33 C 199.36 55.11 202.15 54.83 204.92 54.42 C 204.93 55.29 204.96 57.02 204.97 57.89 C 201.74 58.2 198.51 58.46 195.27 58.57 C 194.66 59.3 194.04 60.03 193.43 60.76 C 196.15 59.88 199.4 59.92 201.05 62.68 C 202.9 62.05 204.74 61.41 206.58 60.77 C 206.91 61.62 207.57 63.33 207.89 64.18 C 205.65 64.74 203.43 65.4 201.23 66.1 C 201.24 67.58 201.25 69.05 201.27 70.52 C 200.4 70.55 198.66 70.6 197.79 70.63 C 197.79 69.78 197.79 68.06 197.78 67.21 C 196.51 68.05 193.1 70.01 195.3 71.54 C 198.93 72.66 202.85 71.68 206.49 70.95 C 206.57 72.26 206.65 73.57 206.74 74.88 C 202.32 75.07 197.73 76.11 193.41 74.72 C 191.12 74.01 189.93 71.21 191.06 69.08 C 192.36 66.22 195.69 65.26 197.76 63.09 C 193.84 62.61 190.98 65.54 188.44 68.03 C 187.58 67.16 186.72 66.3 185.86 65.44 C 187.88 63.35 189.64 61.03 191.26 58.63 C 189.72 58.58 188.17 58.54 186.63 58.49 C 186.64 57.65 186.65 55.95 186.66 55.11 C 188.69 55.24 190.74 55.33 192.78 55.38 C 193.02 54.61 193.5 53.08 193.74 52.31 Z"
        fill="#f8fcff"/>
    <path
        id="path_27"
        d="M 227.39 52.9 C 228.71 53.35 230.03 53.8 231.36 54.25 C 229.99 57.39 228.58 60.53 226.88 63.52 C 228.86 65.28 230.78 67.12 232.63 69.02 C 231.62 70.06 230.61 71.11 229.6 72.15 C 228.02 70.32 226.43 68.5 224.62 66.9 C 221.4 69.87 218.4 73.12 214.48 75.21 C 213.57 74.13 212.65 73.05 211.72 71.98 C 215.49 70.06 218.84 67.42 221.57 64.19 C 219.34 62.56 217.05 60.99 214.7 59.52 C 215.61 58.61 216.52 57.71 217.43 56.8 C 219.59 58.18 221.71 59.62 223.82 61.08 C 225.21 58.44 226.44 55.73 227.39 52.9 Z"
        fill="#f8fcff"/>
    <path
        id="path_28"
        d="M 268.58 53.13 C 271.03 54.12 273.42 55.24 275.75 56.47 C 275.27 57.32 274.31 59.03 273.82 59.89 C 271.49 58.53 269.1 57.3 266.62 56.22 C 267.27 55.19 267.93 54.16 268.58 53.13 Z"
        fill="#f8fcff"/>
    <path
        id="path_29"
        d="M 344.98 53.1 C 346.39 53.13 347.81 53.17 349.22 53.2 C 348.92 58.44 348.43 63.72 348.87 68.96 C 349.23 71.85 352.97 72.01 355.07 71.06 C 358.28 69.68 359.09 65.92 359.78 62.86 C 361.03 63.62 362.28 64.38 363.55 65.13 C 362.49 68.93 360.67 73.1 356.67 74.56 C 352.76 76.08 346.62 75.66 345.21 70.94 C 344.29 65.04 345.25 59.04 344.98 53.1 Z"
        fill="#f8fcff"/>
    <path
        id="path_30"
        d="M 238.76 57.37 C 239.59 56.37 240.4 55.38 241.28 54.43 C 243.85 55.69 246.04 57.55 248.24 59.36 C 247.37 60.49 246.49 61.63 245.62 62.77 C 243.49 60.77 241.21 58.95 238.76 57.37 Z"
        fill="#f8fcff"/>
    <path
        id="path_31"
        d="M 316.72 57.31 C 317.63 56.32 318.5 55.28 319.55 54.42 C 321.92 55.85 324.09 57.58 326.24 59.34 C 325.37 60.48 324.5 61.63 323.63 62.78 C 321.48 60.76 319.17 58.93 316.72 57.31 Z"
        fill="#f8fcff"/>
    <path
        id="path_32"
        d="M 366.33 55.58 C 373.56 55.17 380.8 54.87 388.03 54.48 C 388.08 55.41 388.18 57.26 388.23 58.19 C 383.43 58.65 377.35 61.41 377.4 67.01 C 378.11 70.61 382.39 70.63 385.24 71.15 C 385.05 72.49 384.87 73.84 384.7 75.19 C 380.53 74.67 375.08 73.67 373.72 68.99 C 372.37 64.65 375.22 60.53 378.75 58.29 C 374.69 58.81 370.6 58.96 366.54 59.5 C 366.47 58.19 366.4 56.89 366.33 55.58 Z"
        fill="#f8fcff"/>
    <path
        id="path_33"
        d="M 256.89 57.13 C 257.97 58.16 259.06 59.17 260.16 60.17 C 258.57 63.14 256.87 66.14 254.3 68.38 C 250.39 72.04 245.07 73.54 239.98 74.73 C 239.61 73.32 239.25 71.91 238.88 70.5 C 246.88 69.92 254.34 64.9 256.89 57.13 Z"
        fill="#f8fcff"/>
    <path
        id="path_34"
        d="M 283.32 57.98 C 284.39 58.93 285.48 59.87 286.58 60.8 C 284.92 64.25 282.83 67.62 279.71 69.95 C 275.88 73.04 270.98 74.14 266.29 75.19 C 265.92 73.82 265.56 72.46 265.2 71.09 C 273.17 70.62 280.9 65.88 283.32 57.98 Z"
        fill="#f8fcff"/>
    <path
        id="path_35"
        d="M 293.11 58.59 C 298.3 58.75 303.5 58.7 308.7 58.63 C 308.59 64.41 308.69 70.19 308.64 75.97 C 307.1 75.77 305.45 75.75 304.29 74.56 C 300.48 74.54 296.67 74.53 292.86 74.61 C 292.86 73.8 292.86 72.2 292.86 71.4 C 296.98 71.55 301.1 71.49 305.23 71.5 C 305.22 70.32 305.22 69.15 305.22 67.98 C 301.43 67.98 297.64 67.96 293.85 68.02 C 293.85 67.24 293.85 65.67 293.85 64.89 C 297.64 65.02 301.44 64.98 305.23 64.98 C 305.23 64.17 305.23 62.55 305.22 61.74 C 301.18 61.74 297.13 61.71 293.09 61.8 C 293.09 60.73 293.1 59.66 293.11 58.59 Z"
        fill="#f8fcff"/>
    <path
        id="path_36"
        d="M 334.89 57.14 C 335.96 58.16 337.06 59.17 338.16 60.17 C 336.47 63.39 334.56 66.6 331.69 68.92 C 327.83 72.22 322.82 73.59 317.99 74.73 C 317.61 73.32 317.25 71.91 316.88 70.5 C 324.88 69.92 332.34 64.9 334.89 57.14 Z"
        fill="#f8fcff"/>
    <path
        id="path_37"
        d="M 264.55 62.58 C 265.25 61.53 265.96 60.48 266.67 59.43 C 269.06 60.52 271.41 61.71 273.69 63.03 C 273.06 64.2 272.44 65.37 271.82 66.54 C 269.5 65.03 267.06 63.73 264.55 62.58 Z"
        fill="#f8fcff"/>
    <path
        id="path_38"
        d="M 147.72 61.1 C 148.6 61.13 150.37 61.17 151.25 61.2 C 151.16 63.19 151.16 65.18 151.23 67.17 C 153.13 68.22 154.96 69.38 156.74 70.63 C 156.2 71.81 155.65 72.99 155.1 74.17 C 153.97 73.18 152.84 72.21 151.71 71.23 C 150.84 77.22 140.07 77.25 139.81 71.03 C 139.89 67.14 144.48 65.96 147.67 66.31 C 147.66 64.57 147.67 62.84 147.72 61.1 M 144.43 69.71 C 141.23 71.73 147.02 73.76 147.99 70.98 C 148.09 68.88 145.77 69.36 144.43 69.71 Z"
        fill="#f8fcff"/>
    <path
        id="path_39"
        d="M 169.85 73.2 C 167.64 71.02 169.31 67.94 170.55 65.73 C 171.31 65.99 172.83 66.5 173.58 66.75 C 173.02 68.36 171.34 70.83 174.1 71.34 C 176.76 71.87 179.43 71.13 182.03 70.63 C 182.1 71.58 182.22 73.47 182.28 74.41 C 178.2 74.81 173.34 75.98 169.85 73.2 Z"
        fill="#f8fcff"/>
    <path
        id="path_40"
        d="M 1.64 91.84 C 2.66 87.94 5.76 85.45 9.5 84.28 L 9.5 85.45 C 9.48 91.87 9.22 98.32 10.21 104.69 C 9.09 104.57 7.97 104.44 6.86 104.33 C 2.26 101.98 1.03 96.59 1.64 91.84 Z"
        fill="#f8fcff"/>
    <path
        id="path_41"
        d="M 70.04 84.96 C 72.48 85.94 75.63 86.52 76.75 89.25 C 78.39 92.98 78.41 97.72 76.15 101.21 C 74.52 103.64 71.35 103.78 68.81 104.61 C 72 98.63 70.3 91.43 70.04 84.96 Z"
        fill="#f8fcff"/>
    <path
        id="path_42"
        d="M 270.89 88.51 C 272.2 88.51 273.5 88.5 274.82 88.49 C 274.76 90.35 274.71 92.21 274.68 94.07 C 277.25 93.94 279.81 93.72 282.36 93.36 C 282.41 94.26 282.52 96.05 282.58 96.94 C 279.98 97.18 277.38 97.39 274.79 97.56 C 274.86 99.26 274.94 100.96 275.02 102.67 C 277.95 103.84 280.66 105.46 283.26 107.23 C 282.48 108.37 281.7 109.52 280.94 110.66 C 279.22 109.18 277.39 107.84 275.53 106.55 C 275.24 113.43 262.98 113.71 262.49 106.97 C 262.67 102.57 267.79 101.63 271.3 101.87 C 271.04 97.42 271.02 92.96 270.89 88.51 M 266.13 106.89 C 267.72 109.46 271.62 108.51 271.79 105.49 C 269.82 105.33 267.33 104.88 266.13 106.89 Z"
        fill="#f8fcff"/>
    <path
        id="path_43"
        d="M 329.11 88.21 C 331.04 88.33 332.99 88.68 334.93 88.41 C 335.59 89.18 336.26 89.95 336.94 90.72 C 336.71 91.08 336.24 91.79 336.01 92.15 C 334.22 92.62 333.37 90.75 332.19 89.81 C 332.29 90.43 332.48 91.67 332.57 92.29 C 334.03 92.3 335.54 92.13 336.87 92.89 C 336.94 93.56 337.08 94.92 337.15 95.6 C 335.61 95.54 334.07 95.49 332.53 95.44 C 332.67 99.27 333.14 103.1 334.22 106.79 L 335.23 106.67 C 335.24 106.09 335.24 104.93 335.24 104.35 C 336.11 105 336.97 105.66 337.85 106.32 C 337.36 107.98 337.39 109.97 336.17 111.29 C 334.7 112.46 333.02 110.88 332.3 109.61 C 329.87 105.32 329.61 100.26 329.24 95.46 C 326.89 95.47 324.55 95.5 322.21 95.55 C 322.25 94.96 322.35 93.78 322.4 93.19 C 322.2 93.19 321.78 93.2 321.58 93.2 C 321.63 93.72 321.74 94.77 321.79 95.29 C 318.86 95.28 315.93 95.27 313 95.33 C 313 94.59 313 93.1 313 92.36 C 318.4 92.51 323.8 92.37 329.2 92.39 C 329.16 90.99 329.13 89.6 329.11 88.21 Z"
        fill="#f8fcff"/>
    <path
        id="path_44"
        d="M 26.35 90.99 C 26.09 87.35 33.07 87.41 32.78 91.07 C 33.41 93.18 31.53 94.49 30.11 95.6 C 28.14 94.81 25.5 93.67 26.35 90.99 Z"
        fill="#f8fcff"/>
    <path
        id="path_45"
        d="M 47.59 94.34 C 47.29 92.16 46.64 88.24 49.97 88.41 C 53.85 87.47 54.18 91.69 53.43 94.37 C 51.5 94.88 49.51 94.87 47.59 94.34 Z"
        fill="#f8fcff"/>
    <path
        id="path_46"
        d="M 133.36 100.22 C 140.36 98.04 147.13 94.44 151.9 88.75 C 153.05 89.54 154.21 90.33 155.36 91.12 C 153.13 93.34 150.8 95.47 148.3 97.4 C 148.32 102.09 148.26 106.77 148.37 111.46 C 147.33 111.46 145.25 111.47 144.21 111.47 C 144.32 107.61 144.29 103.75 144.29 99.88 C 141.47 101.4 138.53 102.66 135.54 103.83 C 134.82 102.62 134.09 101.42 133.36 100.22 Z"
        fill="#f8fcff"/>
    <path
        id="path_47"
        d="M 188.7 88.83 C 189.73 88.83 191.78 88.83 192.8 88.83 C 192.73 91.3 192.71 93.78 192.71 96.26 C 196.8 97.75 200.73 99.6 204.53 101.72 C 203.84 102.96 203.16 104.19 202.49 105.43 C 199.34 103.51 196.06 101.85 192.73 100.28 C 192.71 103.99 192.69 107.69 192.81 111.39 C 191.44 111.38 190.07 111.38 188.7 111.38 C 188.83 103.87 188.84 96.35 188.7 88.83 Z"
        fill="#f8fcff"/>
    <path
        id="path_48"
        d="M 221.3 88.46 C 222.26 88.46 224.19 88.47 225.15 88.47 C 225.11 89.19 225.04 90.63 225 91.36 C 227.49 91.33 229.99 91.29 232.48 91.22 C 232.48 92.39 232.49 93.56 232.5 94.73 C 229.99 94.68 227.48 94.66 224.98 94.69 C 224.53 98.58 227.11 102.52 225.25 106.26 C 223.77 109.53 220.25 110.94 217.13 112.17 C 216.41 110.98 215.69 109.79 214.96 108.61 C 217.84 108.06 220.5 106.75 222.45 104.54 C 220.68 104.97 218.88 106.03 217.02 105.41 C 213.74 104.73 212.46 100.15 214.88 97.84 C 216.57 95.91 219.33 96.25 221.61 96.48 L 221.44 94.74 C 217.51 94.87 213.59 95.02 209.68 95.37 C 209.66 94.46 209.61 92.64 209.58 91.73 C 213.54 91.68 217.5 91.54 221.46 91.43 C 221.42 90.69 221.34 89.2 221.3 88.46 M 217.72 99.82 C 216.08 102.08 219.69 102.81 221.26 102.2 C 222.1 99.87 219.56 97.84 217.72 99.82 Z"
        fill="#f8fcff"/>
    <path
        id="path_49"
        d="M 313.84 88.72 C 316.43 88.76 319.02 88.76 321.61 88.72 C 321.61 89.38 321.61 90.68 321.61 91.33 C 319.01 91.31 316.43 91.31 313.84 91.34 C 313.84 90.68 313.84 89.38 313.84 88.72 Z"
        fill="#f8fcff"/>
    <path
        id="path_50"
        d="M 342.98 89.1 C 344.39 89.13 345.81 89.17 347.23 89.2 C 346.91 94.44 346.43 99.71 346.87 104.94 C 347.2 107.8 350.84 107.98 352.94 107.12 C 356.24 105.78 357.1 101.97 357.78 98.85 C 359.03 99.62 360.28 100.38 361.54 101.13 C 360.49 104.93 358.67 109.09 354.68 110.55 C 350.79 112.06 344.69 111.67 343.23 107.01 C 342.26 101.1 343.27 95.06 342.98 89.1 Z"
        fill="#f8fcff"/>
    <path
        id="path_51"
        d="M 445.62 88.44 C 446.53 88.46 448.35 88.49 449.26 88.5 C 449.21 90.35 448.91 92.34 450.18 93.9 C 449.64 94.81 449.12 95.73 448.62 96.66 C 451.85 94.41 455.68 91.09 459.87 92.98 C 463.94 95.42 463.47 100.93 463.19 105.02 C 463.95 105.6 464.71 106.18 465.49 106.75 C 465.13 107.68 464.43 109.54 464.08 110.47 C 463.6 110.01 462.64 109.09 462.16 108.64 C 459.79 110.98 455.92 112.11 452.97 110.15 C 450.55 108.72 450.69 104.74 453.14 103.41 C 455.18 102.11 457.68 102.79 459.94 102.85 C 459.54 100.51 460.2 96.29 456.85 96 C 453.65 96.42 451.31 98.91 448.95 100.87 C 448.96 104.44 449 108.01 449 111.58 C 447.74 111.57 446.49 111.57 445.25 111.58 C 445.33 109.03 445.35 106.49 445.38 103.95 C 444.36 105.08 443.36 106.22 442.35 107.35 C 441.79 106.17 441.22 104.99 440.66 103.81 C 442.25 102.36 443.82 100.88 445.4 99.39 C 445.42 98.28 445.45 97.16 445.48 96.04 C 444.17 96.15 442.87 96.26 441.58 96.38 C 441.53 95.54 441.44 93.88 441.39 93.04 C 442.79 92.98 444.19 92.92 445.6 92.85 C 445.6 91.38 445.61 89.91 445.62 88.44 M 454.77 105.96 C 454.36 109.16 458.15 107.99 459.36 106.33 C 457.86 105.93 456.31 105.54 454.77 105.96 Z"
        fill="#f8fcff"/>
    <path
        id="path_52"
        d="M 114.8 90.81 C 115.99 90.47 117.18 90.13 118.38 89.79 C 119.59 92.24 120.61 94.78 121.48 97.37 C 120.22 97.78 118.97 98.18 117.71 98.59 C 116.89 95.94 115.92 93.35 114.8 90.81 Z"
        fill="#f8fcff"/>
    <path
        id="path_53"
        d="M 239.05 89.78 C 243.44 89.96 247.84 89.79 252.21 89.37 C 252.64 89.99 253.48 91.23 253.9 91.85 C 251.25 94.12 248.66 96.46 245.87 98.56 C 248.93 98.03 252.46 97.54 255.1 99.59 C 258.36 101.92 257.8 107.38 254.52 109.44 C 251.02 111.68 246.25 112.22 242.45 110.47 C 239.49 109.05 239.92 104.3 243.15 103.5 C 246.69 102.11 249.69 104.9 251.58 107.58 C 253.04 106.13 254.58 103.27 252.18 101.89 C 247.34 99.55 241.83 102.24 237.95 105.28 C 237.28 104.2 236.61 103.12 235.95 102.04 C 240.12 99.46 243.88 96.28 247.41 92.9 C 244.68 93.04 241.95 93.19 239.22 93.35 C 239.18 92.46 239.09 90.67 239.05 89.78 M 244 105.81 C 243.44 108.5 245.97 108.41 247.82 108.68 C 247.06 107.1 245.77 106.07 244 105.81 Z"
        fill="#f8fcff"/>
    <path
        id="path_54"
        d="M 392.42 89.68 C 396.13 90.33 400.63 87.96 403.63 90.96 C 402.77 93.24 401.99 95.54 401.23 97.85 C 402.96 98.37 404.69 98.88 406.42 99.41 C 406.48 97.42 406.53 95.43 406.57 93.44 C 407.5 93.49 409.37 93.58 410.31 93.63 C 410.15 96.03 409.99 98.43 409.75 100.83 C 410.99 101.52 412.23 102.21 413.49 102.91 C 413.05 104.25 412.61 105.58 412.18 106.92 C 411.08 106.18 409.98 105.43 408.89 104.69 C 407.43 107.79 404.94 110.14 402.1 111.97 C 401.2 111.06 400.3 110.15 399.4 109.25 C 402.01 107.77 404.27 105.71 405.6 102.97 C 403.85 102.36 402.08 101.8 400.32 101.24 C 398.84 104.45 398.17 109.45 394.02 110.16 C 389.37 110.35 387.86 103.73 390.78 100.81 C 392.34 98.54 395.1 97.96 397.65 97.54 C 398.09 95.94 398.55 94.35 399.01 92.76 C 396.86 92.89 394.72 93.01 392.59 93.14 C 392.54 92.27 392.46 90.54 392.42 89.68 M 392.86 103.82 C 392.58 104.88 392.76 106.52 394.2 106.33 C 395.41 104.64 396.01 102.64 396.69 100.7 C 395.28 101.52 393.3 102.02 392.86 103.82 Z"
        fill="#f8fcff"/>
    <path
        id="path_55"
        d="M 107.88 92.06 C 109.09 91.73 110.31 91.4 111.52 91.08 C 112.71 93.59 113.78 96.15 114.68 98.78 C 113.4 99.25 112.12 99.7 110.83 100.16 C 110.02 97.4 109.08 94.68 107.88 92.06 Z"
        fill="#f8fcff"/>
    <path
        id="path_56"
        d="M 125.91 90.44 C 127.28 90.76 128.65 91.08 130.03 91.4 C 128.78 95.73 127.81 100.33 124.95 103.95 C 122.72 107.47 119.09 109.7 115.5 111.61 C 114.63 110.42 113.75 109.25 112.86 108.08 C 120.35 105.48 125.4 98.27 125.91 90.44 Z"
        fill="#f8fcff"/>
    <path
        id="path_57"
        d="M 364.33 91.58 C 371.56 91.17 378.8 90.87 386.03 90.48 C 386.08 91.41 386.18 93.26 386.23 94.19 C 382.94 94.66 379.46 95.63 377.21 98.25 C 375.64 99.92 374.63 102.71 376.15 104.73 C 377.91 106.76 380.83 106.62 383.24 107.15 C 383.05 108.5 382.87 109.84 382.7 111.19 C 378.52 110.67 373.06 109.67 371.72 104.97 C 370.38 100.64 373.22 96.53 376.75 94.29 C 372.69 94.81 368.6 94.96 364.54 95.5 C 364.47 94.19 364.4 92.89 364.33 91.58 Z"
        fill="#f8fcff"/>
    <path
        id="path_58"
        d="M 415.84 91.59 C 423.07 91.17 430.31 90.86 437.55 90.49 C 437.6 91.42 437.69 93.28 437.74 94.2 C 432.97 94.6 426.85 97.42 426.93 102.96 C 427.48 106.6 431.96 106.64 434.77 107.15 C 434.56 108.49 434.37 109.84 434.18 111.19 C 430.19 110.65 425.14 109.84 423.44 105.6 C 421.62 101.16 424.52 96.67 428.17 94.29 C 424.14 94.81 420.07 94.97 416.04 95.5 C 415.99 94.52 415.89 92.56 415.84 91.59 Z"
        fill="#f8fcff"/>
    <path
        id="path_59"
        d="M 313.92 96.38 C 316.4 96.39 318.89 96.4 321.38 96.39 C 321.37 97.03 321.36 98.33 321.36 98.97 C 318.88 98.96 316.4 98.96 313.93 98.98 C 313.92 98.33 313.92 97.03 313.92 96.38 Z"
        fill="#f8fcff"/>
    <path
        id="path_60"
        d="M 157.66 97.99 C 165.22 98.18 172.78 98.16 180.34 98.01 C 180.34 99.39 180.34 100.78 180.34 102.16 C 172.78 102.02 165.22 102 157.66 102.18 C 157.66 100.78 157.66 99.38 157.66 97.99 Z"
        fill="#f8fcff"/>
    <path
        id="path_61"
        d="M 322 97.82 C 324.34 97.87 326.68 97.88 329.03 97.84 C 329.03 98.6 329.03 100.12 329.03 100.88 C 328.63 100.87 327.81 100.84 327.4 100.83 C 327.39 102.56 327.39 104.29 327.39 106.03 C 328.13 105.84 329.63 105.46 330.38 105.27 C 330.28 106 330.08 107.48 329.98 108.21 C 327.57 109.28 324.94 109.75 322.41 110.42 C 322.21 109.39 322.01 108.36 321.82 107.33 C 325.57 107.33 323.89 103.27 324.25 100.88 C 323.68 100.87 322.55 100.83 321.98 100.82 C 321.98 100.07 321.99 98.57 322 97.82 Z"
        fill="#f8fcff"/>
    <path
        id="path_62"
        d="M 313.91 100.04 C 316.39 100.06 318.87 100.06 321.35 100.05 C 321.36 100.69 321.38 101.98 321.39 102.63 C 318.9 102.62 316.42 102.62 313.94 102.64 C 313.93 101.99 313.92 100.69 313.91 100.04 Z"
        fill="#f8fcff"/>
    <path
        id="path_63"
        d="M 286.79 106.09 C 287.75 105.18 288.71 104.27 289.68 103.36 C 291.84 105.18 293.89 107.13 295.79 109.23 C 294.74 110.21 293.69 111.18 292.64 112.15 C 290.87 109.96 288.9 107.94 286.79 106.09 Z"
        fill="#f8fcff"/>
    <path
        id="path_64"
        d="M 313.81 103.69 C 316.4 103.71 318.98 103.71 321.57 103.69 C 321.55 106.5 321.56 109.31 321.52 112.13 C 318.9 110.99 316.3 111.27 313.78 112.47 C 313.83 109.54 313.86 106.61 313.81 103.69 M 316.55 106.21 C 316.57 106.76 316.62 107.85 316.64 108.4 C 317.18 108.41 318.27 108.42 318.81 108.42 C 318.8 107.83 318.78 106.65 318.78 106.06 C 318.22 106.09 317.11 106.17 316.55 106.21 Z"
        fill="#f8fcff"/>
    <path
        id="path_65"
        d="M 36.22 7.03 C 37.86 6.5 38.42 7.05 37.92 8.67 C 36.29 9.2 35.72 8.65 36.22 7.03 Z"
        fill="#b6daff"/>
    <path
        id="path_66"
        d="M 38.69 64.02 C 39.53 64.03 41.21 64.03 42.06 64.03 C 42.07 64.47 42.1 65.34 42.11 65.78 L 41.19 66.82 C 47.66 66.83 54.79 66.54 60.17 70.81 C 64.84 73.87 67.07 79.12 68.91 84.16 C 69.19 84.36 69.76 84.76 70.04 84.96 C 70.3 91.43 72 98.63 68.81 104.61 C 65.92 109.05 63.19 113.75 58.84 116.96 C 57.57 117.71 56.22 118.32 54.92 119.01 C 50.01 120.16 44.96 119.73 39.97 119.8 C 35.02 119.72 29.98 120.18 25.11 118.99 C 19.15 116.56 14 111.95 11.98 105.71 C 11.54 105.45 10.65 104.94 10.21 104.69 C 9.22 98.32 9.48 91.87 9.5 85.45 C 11.27 84.15 11.6 82 12.12 80.03 C 14.96 73.09 21.44 67.7 28.89 66.57 C 32.14 66.27 35.42 66.38 38.68 66.43 C 38.68 65.83 38.69 64.63 38.69 64.02 M 17.5 90.04 C 16.78 96.16 17.12 103.52 22.43 107.62 C 27.93 112.21 35.48 110.53 42.04 110.84 C 47.33 110.67 53.47 111.81 57.79 107.95 C 59.78 106.47 61.07 104.31 62.33 102.23 C 62.63 101.15 62.94 100.09 63.27 99.03 C 63.46 93.66 63.98 87.67 60.4 83.18 C 58 79.33 53.39 77.75 49.02 77.91 C 42.68 77.93 36.33 77.74 30 78.03 C 23.64 78.27 18.09 83.75 17.5 90.04 Z"
        fill="#b6daff"/>
    <path
        id="path_67"
        d="M 32.45 96.69 C 37.48 96.44 42.52 96.44 47.56 96.69 C 47.36 98.58 46.92 100.43 46.45 102.27 C 43.1 105.76 36.91 105.74 33.55 102.27 C 33.08 100.43 32.64 98.58 32.45 96.69 Z"
        fill="#b6daff"/>
</svg>
