<svg
    xmlns="http://www.w3.org/2000/svg"
    viewBox="0 0 48 48"
    id="vector">
    <path
        id="path"
        d="M 0 0 L 48 0 L 48 48 L 40.06 48 C 38.75 44.27 37.67 40.25 34.53 37.59 C 28.78 31.86 18.53 32.08 13.03 38.04 C 10.16 40.66 9.24 44.53 7.85 48 L 0 48 L 0 0 M 20.36 11.4 C 15.66 13.52 14.57 19.41 15 24.04 C 15.06 26.87 17.12 29.55 19.98 29.98 C 24.15 30.66 30.17 31.13 32.38 26.63 C 33.66 22.77 33.23 18.29 31.3 14.72 C 29.24 10.92 24.18 9.79 20.36 11.4 Z"
        fill="#ccd6dd"
        stroke-width="1"/>
    <path
        id="path_1"
        d="M 20.36 11.4 C 24.18 9.79 29.24 10.92 31.3 14.72 C 33.23 18.29 33.66 22.77 32.38 26.63 C 30.17 31.13 24.15 30.66 19.98 29.98 C 17.12 29.55 15.06 26.87 15 24.04 C 14.57 19.41 15.66 13.52 20.36 11.4 Z"
        fill="#657786"
        stroke-width="1"/>
    <path
        id="path_2"
        d="M 13.03 38.04 C 18.53 32.08 28.78 31.86 34.53 37.59 C 37.67 40.25 38.75 44.27 40.06 48 L 7.85 48 C 9.24 44.53 10.16 40.66 13.03 38.04 Z"
        fill="#657786"
        stroke-width="1"/>
</svg>
