<svg
    xmlns="http://www.w3.org/2000/svg"
    viewBox="0 0 24 24"
    id="vector">
    <path
        id="path"
        d="M 7.7 5.1 C 9.6 4.6 11.6 5 13.6 4.9 C 14.7 4.9 16.5 4.4 16.9 5.9 C 17 9.7 16.9 13.7 16.9 17.5 C 17 18.5 16.2 19.2 15.3 19.1 C 13.1 19.1 10.9 19.1 8.6 19.1 C 7.7 19.2 6.8 18.5 7 17.5 C 7 14 7 10.4 7 7 C 7 6.3 7 5.3 7.7 5.1 M 10.1 9.7 C 10.4 10.9 10.8 12.1 11.5 13.2 C 10.5 13.7 9.4 14.4 8.9 15.5 C 11 15.7 13.1 15.7 15.2 15.5 C 14.7 14.4 13.6 13.8 12.6 13.2 C 13.2 12 14.3 10.5 13.4 9.1 C 12.4 8 10.7 8.3 10.1 9.7 Z"
        fill="#ffffff"/>
    <path
        id="path_1"
        d="M 2.1 7.1 C 2.8 5.8 4.5 6.5 5.7 6.3 C 5.7 6.8 5.7 7.9 5.7 8.4 C 3.9 9.6 4.9 11.8 5.8 13.1 C 4.8 13.7 3.6 14.3 3.2 15.5 C 4 15.5 4.8 15.6 5.6 15.6 C 5.6 16.1 5.6 17.2 5.6 17.7 C 4.4 17.6 2.9 18.1 2.1 16.9 C 2 13.6 2 10.4 2.1 7.1 Z"
        fill="#ffffff"/>
    <path
        id="path_2"
        d="M 18.4 6.3 C 19.6 6.5 21.2 5.9 21.9 7.1 C 22.1 10.4 22.1 13.7 21.9 17 C 21.2 18.2 19.6 17.7 18.4 17.8 C 18.4 17.3 18.4 16.2 18.4 15.7 C 19.2 15.7 20 15.6 20.8 15.6 C 20.4 14.4 19.2 13.8 18.2 13.2 C 18.6 12.7 18.9 12 19.3 11.5 C 19.5 10.4 19.5 9.3 18.5 8.6 C 18.5 7.7 18.4 7 18.4 6.3 Z"
        fill="#ffffff"/>
</svg>
