<svg
    xmlns="http://www.w3.org/2000/svg"
    viewBox="0 0 56 56"
    id="vector">
    <path
        id="path"
        d="M 25.74 0 L 30 0 C 43.41 0.93 54.89 12.37 56 25.74 L 56 29.99 C 55.07 43.41 43.64 54.89 30.26 56 L 26.01 56 C 12.6 55.08 1.11 43.64 0 30.26 L 0 26.02 C 0.92 12.6 12.36 1.11 25.74 0 M 35.67 17.71 C 39.39 16.56 42.88 14.17 44.41 10.46 C 41 12.18 37.85 14.52 35.67 17.71 M 27.55 15.29 C 29.39 21.66 31.56 27.93 33.64 34.22 C 35.02 34.39 36.41 34.55 37.79 34.7 C 37.01 26.9 33.59 19.65 31.1 12.29 C 29.92 13.29 28.73 14.29 27.55 15.29 M 17.38 24.32 C 14.19 25.95 10.66 26.76 7.32 28.01 C 7.7 30.64 8.53 33.17 9.78 35.51 C 10.68 35.39 12.47 35.16 13.37 35.05 C 13.9 36.88 14.44 38.7 14.95 40.53 C 16.64 40.04 18.33 39.55 20.01 39.05 C 19.48 36.93 18.95 34.8 18.44 32.68 C 22.78 32.45 27.22 34.54 31.43 33.63 C 29.78 27.81 27.53 22.19 25.94 16.35 C 23.03 18.95 20.54 22.02 17.38 24.32 M 37.69 22.87 C 41.14 22.43 44.46 21.34 47.64 19.95 C 44.39 18.3 39.79 20.08 37.69 22.87 M 39.56 26.56 C 41.63 30.03 46.56 28.11 49.85 28.46 C 46.86 26.29 43.08 26.39 39.56 26.56 M 15.43 42.11 C 16.63 43.58 17.86 45.02 19.11 46.45 C 20.31 44.8 21.45 43.03 21.48 40.91 C 19.46 41.27 17.44 41.69 15.43 42.11 Z"
        fill="#4a4a4a"/>
    <path
        id="path_3"
        d="M 35.67 17.71 C 37.85 14.52 41 12.18 44.41 10.46 C 42.88 14.17 39.39 16.56 35.67 17.71 Z"
        fill="#9b9b9b"/>
    <path
        id="path_4"
        d="M 27.55 15.29 C 28.73 14.29 29.92 13.29 31.1 12.29 C 33.59 19.65 37.01 26.9 37.79 34.7 C 36.41 34.55 35.02 34.39 33.64 34.22 C 31.56 27.93 29.39 21.66 27.55 15.29 Z"
        fill="#9b9b9b"/>
    <path
        id="path_5"
        d="M 17.38 24.32 C 20.54 22.02 23.03 18.95 25.94 16.35 C 27.53 22.19 29.78 27.81 31.43 33.63 C 27.22 34.54 22.78 32.45 18.44 32.68 C 18.95 34.8 19.48 36.93 20.01 39.05 C 18.33 39.55 16.64 40.04 14.95 40.53 C 14.44 38.7 13.9 36.88 13.37 35.05 C 12.47 35.16 10.68 35.39 9.78 35.51 C 8.53 33.17 7.7 30.64 7.32 28.01 C 10.66 26.76 14.19 25.95 17.38 24.32 Z"
        fill="#9b9b9b"/>
    <path
        id="path_6"
        d="M 37.69 22.87 C 39.79 20.08 44.39 18.3 47.64 19.95 C 44.46 21.34 41.14 22.43 37.69 22.87 Z"
        fill="#9b9b9b"/>
    <path
        id="path_7"
        d="M 39.56 26.56 C 43.08 26.39 46.86 26.29 49.85 28.46 C 46.56 28.11 41.63 30.03 39.56 26.56 Z"
        fill="#9b9b9b"/>
    <path
        id="path_10"
        d="M 15.43 42.11 C 17.44 41.69 19.46 41.27 21.48 40.91 C 21.45 43.03 20.31 44.8 19.11 46.45 C 17.86 45.02 16.63 43.58 15.43 42.11 Z"
        fill="#9b9b9b"/>
</svg>
