<svg
    xmlns="http://www.w3.org/2000/svg"
    viewBox="0 0 24 24"
    id="vector">
    <path
        id="path"
        d="M 3 2.9 C 5.2 2.9 7.5 2.9 9.7 2.9 C 9.7 3.9 9.7 4.9 9.7 5.8 C 11.8 5.8 13.8 5.8 15.9 5.8 C 15.9 7.6 15.9 9.4 15.9 11.3 C 17.6 11.3 19.3 11.3 21 11.3 C 21 11.8 21 12.4 21 12.9 C 19.3 12.9 17.6 12.9 15.9 12.9 C 15.9 14.7 15.9 16.6 15.9 18.4 C 13.8 18.4 11.8 18.4 9.7 18.4 C 9.7 19.3 9.7 20.3 9.7 21.2 C 7.5 21.2 5.2 21.2 3 21.2 C 3 20.8 3 20 3 19.6 C 4.7 19.6 6.4 19.6 8.1 19.6 C 8.1 18.3 8.1 17 8.1 15.6 C 6.4 15.6 4.7 15.6 3 15.6 C 3 15.2 3 14.5 3 14.1 C 5.2 14.1 7.5 14.1 9.7 14.1 C 9.7 15 9.7 15.9 9.7 16.8 C 11.3 16.8 12.8 16.8 14.4 16.8 C 14.4 13.7 14.4 10.6 14.4 7.4 C 12.8 7.4 11.3 7.4 9.7 7.4 C 9.7 8.3 9.7 9.2 9.7 10.1 C 7.5 10.1 5.2 10.1 3 10.1 C 3 9.7 3 8.9 3 8.5 C 4.7 8.5 6.4 8.5 8.1 8.5 C 8.1 7.2 8.1 5.9 8.1 4.6 C 6.4 4.6 4.7 4.6 3 4.6 C 3 4.2 3 3.3 3 2.9 Z"
        fill="#fcfcfc"/>
</svg>
