<svg id="vector" viewBox="0 0 56 56" xmlns="http://www.w3.org/2000/svg">
    <path
        d="M 26.44 0 L 29.46 0 C 43.11 0.6 54.93 12.25 56 25.82 L 56 29.46 C 55.41 43.1 43.76 54.93 30.19 56 L 26.05 56 C 12.6 55.1 1.06 43.61 0 30.19 L 0 26.06 C 0.9 12.42 12.76 0.66 26.44 0 M 35.66 16.8 C 38.19 17.14 39.97 15.23 41.78 13.82 C 42.85 12.93 44.39 11.78 43.32 10.22 C 40.78 12.42 37.89 14.26 35.66 16.8 M 27.28 15.1 C 29.36 21.41 31.46 27.73 33.43 34.08 C 34.9 34.16 36.36 34.22 37.83 34.27 C 36.61 26.7 33.5 19.52 31.12 12.25 C 29.78 13.12 28.5 14.08 27.28 15.1 M 17.21 24.32 C 14.57 25.11 12.01 26.15 9.33 26.76 C 8.8 27.18 7.74 28.02 7.22 28.44 C 7.78 30.55 8.39 32.63 8.96 34.73 C 10.42 34.75 11.87 34.77 13.33 34.78 C 13.77 36.57 13.89 38.62 15.12 40.09 C 16.78 40.08 18.34 39.35 19.93 38.97 C 19.45 36.84 18.85 34.74 18.25 32.64 C 22.77 32.15 27.14 33.87 31.66 33.58 C 29.38 27.93 27.53 22.11 25.98 16.21 C 22.87 18.71 20.19 21.68 17.21 24.32 M 37.58 22.45 C 40.72 22.5 43.56 20.99 46.57 20.33 C 46.62 19.85 46.73 18.9 46.78 18.42 C 43.62 19.42 39.63 19.49 37.58 22.45 M 39.36 27.42 C 42.22 27.99 45.12 28.37 48 28.77 C 48.27 28.27 48.81 27.26 49.07 26.76 C 45.89 26.9 42.03 25.06 39.36 27.42 M 15.28 42.14 C 16.35 43.53 17.6 44.77 19.01 45.82 C 20.83 44.51 21 42.41 21 40.35 C 19.09 40.92 17.18 41.51 15.28 42.14 Z"
        fill="#f0485d" id="path" />
    <path
        d="M 35.66 16.8 C 37.89 14.26 40.78 12.42 43.32 10.22 C 44.39 11.78 42.85 12.93 41.78 13.82 C 39.97 15.23 38.19 17.14 35.66 16.8 Z"
        fill="#ffffff" id="path_1" />
    <path
        d="M 27.28 15.1 C 28.5 14.08 29.78 13.12 31.12 12.25 C 33.5 19.52 36.61 26.7 37.83 34.27 C 36.36 34.22 34.9 34.16 33.43 34.08 C 31.46 27.73 29.36 21.41 27.28 15.1 Z"
        fill="#ffffff" id="path_2" />
    <path
        d="M 17.21 24.32 C 20.19 21.68 22.87 18.71 25.98 16.21 C 27.53 22.11 29.38 27.93 31.66 33.58 C 27.14 33.87 22.77 32.15 18.25 32.64 C 18.85 34.74 19.45 36.84 19.93 38.97 C 18.34 39.35 16.78 40.08 15.12 40.09 C 13.89 38.62 13.77 36.57 13.33 34.78 C 11.87 34.77 10.42 34.75 8.96 34.73 C 8.39 32.63 7.78 30.55 7.22 28.44 C 7.74 28.02 8.8 27.18 9.33 26.76 C 12.01 26.15 14.57 25.11 17.21 24.32 Z"
        fill="#ffffff" id="path_3" />
    <path
        d="M 37.58 22.45 C 39.63 19.49 43.62 19.42 46.78 18.42 C 46.73 18.9 46.62 19.85 46.57 20.33 C 43.56 20.99 40.72 22.5 37.58 22.45 Z"
        fill="#ffffff" id="path_4" />
    <path
        d="M 39.36 27.42 C 42.03 25.06 45.89 26.9 49.07 26.76 C 48.81 27.26 48.27 28.27 48 28.77 C 45.12 28.37 42.22 27.99 39.36 27.42 Z"
        fill="#ffffff" id="path_5" />
    <path
        d="M 15.28 42.14 C 17.18 41.51 19.09 40.92 21 40.35 C 21 42.41 20.83 44.51 19.01 45.82 C 17.6 44.77 16.35 43.53 15.28 42.14 Z"
        fill="#ffffff" id="path_6" />
</svg>
