<svg
    xmlns="http://www.w3.org/2000/svg"
    viewBox="0 0 76 75"
    id="vector">
    <path
        id="path_1"
        d="M 34.42 11.66 C 38.46 11.84 42.78 10.8 46.56 12.6 C 46.52 13.32 46.45 14.76 46.42 15.49 C 44.23 14.95 40.09 17.23 39.69 13.95 C 38.7 16.02 38.34 18.31 38.88 20.56 C 39.1 19.25 38.33 17.44 39.76 16.61 C 41.76 16.1 43.82 16.28 45.86 16.29 C 45.64 18.03 45.44 19.78 45.26 21.52 L 44.44 21.43 L 44.47 22.51 C 42.79 22.63 41.1 22.72 39.42 22.8 L 39.38 23.71 C 40.43 23.7 42.54 23.67 43.6 23.65 L 43.45 24.22 C 50.43 23.95 56.92 29.58 58.06 36.39 C 61.7 37.07 65.27 39.84 64.67 43.94 C 65.33 48.13 61.69 51.3 57.75 51.53 C 55.61 56.81 50.75 61.31 44.86 61.6 C 40.37 61.73 35.87 61.71 31.37 61.62 C 25.39 61.43 20.42 56.89 18.25 51.54 C 14.31 51.29 10.67 48.14 11.33 43.93 C 10.73 39.84 14.29 37.1 17.91 36.4 C 19.1 29.57 25.55 24.01 32.54 24.21 L 32.44 23.69 C 34.06 23.7 35.69 23.7 37.31 23.69 L 37.34 22.83 C 35.46 22.73 33.58 22.59 31.71 22.38 C 31.68 21.38 31.63 19.39 31.6 18.4 L 32.3 18.47 C 32.45 16.78 32.6 15.08 32.71 13.39 L 33.23 13.57 C 33.56 13.23 34.21 12.56 34.53 12.22 L 34.42 11.66 M 24.05 37.14 C 22.17 40.17 22.78 43.85 22.69 47.23 C 23.84 50.98 26.84 54.63 31.06 54.65 C 36.5 54.61 41.98 54.99 47.4 54.43 C 53.47 52.82 55.15 45.56 53.81 40.14 C 53.2 36 49.33 32.78 45.19 32.7 C 40.1 32.62 35 32.7 29.91 32.7 C 27.64 33.69 25.32 34.91 24.05 37.14 Z"
        fill="#ffffff"/>
    <path
        id="path_2"
        d="M 28.45 43.12 C 27.41 40.56 29.89 39.07 32.12 39.42 C 32.5 40.1 33.27 41.45 33.65 42.13 C 32.77 44.27 29.86 45.59 28.45 43.12 Z"
        fill="#ffffff"/>
    <path
        id="path_8"
        d="M 42.31 42.01 C 43.07 40.34 45.29 38.14 46.97 40.09 C 49.11 41.81 46.67 45.82 44.08 44.2 C 43.64 43.65 42.75 42.56 42.31 42.01 Z"
        fill="#ffffff"/>
    <path
        id="path_9"
        d="M 32.49 45.49 C 36.14 45.13 39.84 45.13 43.5 45.49 C 43.14 47.56 42.65 50.31 40.23 50.91 C 36.45 52.73 32.3 49.54 32.49 45.49 Z"
        fill="#ffffff"/>
</svg>
