<svg
    xmlns="http://www.w3.org/2000/svg"
    viewBox="0 0 90 90"
    id="vector">
    <path
        id="path_2"
        d="M 6.53 0 L 85.47 0 C 87.67 1.94 89.77 4.08 91 6.79 L 91 82.72 C 90.1 85.56 88.02 87.73 85.73 89.53 C 83.07 87.29 86.17 82.88 82.47 81.33 C 83.03 80.86 83.59 80.4 84.15 79.94 C 85.08 74.17 83.21 68.47 80.15 63.64 C 78.14 61.72 76.23 59.72 74.43 57.61 C 72.27 56.31 69.57 56.11 67.45 54.67 C 65.12 53.18 62.65 51.86 59.89 51.38 C 59.56 50.3 59.06 49.28 58.53 48.29 C 58.52 46.02 58.51 43.76 58.54 41.49 C 58.27 39.29 59.57 37.74 61.56 36.98 C 64.72 34.85 63.14 30.22 63.34 27 C 62.46 22.98 63.26 18.57 61.36 14.83 C 61.04 14.39 60.41 13.52 60.1 13.08 C 58.81 11.14 56.92 9.76 54.88 8.69 C 50.86 6.06 45.41 6.97 41.6 9.58 C 40.58 10.53 39.25 11.41 39.06 12.91 C 38.36 16.7 37.53 20.45 36.18 24.07 C 35.63 25.97 35.28 27.93 35.13 29.9 C 35.32 31.27 35.56 32.63 35.79 33.99 C 36.41 34.2 37.63 34.62 38.25 34.84 C 38.72 39.78 39.35 45.14 36.6 49.59 C 34.91 49.71 33.55 50.75 32.23 51.71 C 30.53 48.72 28.84 44.37 24.79 44.27 C 21.81 44.02 18.98 45.26 16.13 45.92 C 14.96 46.4 14.39 47.39 14.3 48.62 C 15 51.88 15.61 55.18 15.42 58.53 C 12.47 61.27 10.59 65.07 10.41 69.11 C 10.22 75.03 7.91 80.59 6.07 86.14 C 5.33 86.97 4.61 87.81 3.87 88.64 L 1.32 85.55 C 0.89 84.39 0.45 83.22 0 82.06 L 0 7.85 C 0.42 6.68 0.84 5.5 1.27 4.33 C 2.82 2.65 4.46 1.02 6.53 0 M 7.64 15.72 C 4.17 20.69 4.72 28.58 10.01 32.09 C 13.83 36.17 20.64 36.31 25.02 33.04 C 30.6 29.45 31.81 21.33 28.26 15.89 C 26.82 15.27 25.72 14.2 25.23 12.69 C 19.84 8.44 11.37 10.08 7.64 15.72 M 5.52 41.88 C 6.93 41.35 7.37 39.71 8.55 38.86 C 8.78 39.55 9.24 40.94 9.46 41.63 C 12.74 41.41 16.03 41.45 19.31 41.49 C 19.27 40.47 19.21 38.44 19.17 37.43 C 15.02 38.79 10.53 38.84 6.8 36.33 C 4.84 37.55 5.58 39.97 5.52 41.88 M 21.02 41.42 C 21.89 40.36 21.98 38.53 21.28 37.36 C 19.28 36.81 19.38 41.16 21.02 41.42 M 27.04 38.42 C 24.84 38.25 21.91 38.49 22 41.43 C 24.75 41.39 27.51 41.36 30.26 41.45 C 30.26 40.04 30.25 38.63 30.24 37.22 C 29.14 37.51 27.84 37.45 27.04 38.42 Z"
        fill="#2c4482"
        stroke-width="1"/>
    <path
        id="path_3"
        d="M 11.29 14.92 C 13.46 14.02 15.72 13.36 18 12.8 C 20.31 13.42 22.72 13.92 24.73 15.27 C 27.22 18.08 28.32 21.96 27.44 25.64 C 26 29.97 21.61 33.48 16.87 32.65 C 14.42 32.82 12.66 30.63 10.28 30.63 C 10.39 28.23 8.26 26.49 8.33 24.08 C 7.91 21.42 9.06 18.91 9.82 16.43 C 10.48 17.02 11.13 17.63 11.77 18.24 C 11.79 21.42 11.76 24.61 11.71 27.79 C 13.36 27.35 13.92 25.71 14.43 24.26 C 15.79 23.55 18.44 23.87 17.73 21.32 C 16.84 21.35 15.08 21.4 14.19 21.43 C 14.16 20.89 14.1 19.82 14.07 19.28 C 16.73 19.14 19.49 19.44 22.01 18.4 C 21.89 19.09 21.66 20.46 21.54 21.15 C 20.28 21.65 19.07 22.25 17.91 22.95 C 19.23 25.15 22.26 23.67 24.33 23.75 C 24.32 21.95 24.33 20.15 24.36 18.34 C 23.82 18.43 22.73 18.61 22.19 18.69 C 22.3 18.14 22.54 17.03 22.65 16.48 C 18.9 16.01 14.21 17.98 11.29 14.92 M 13.85 26.9 C 13.74 27.51 13.53 28.73 13.42 29.34 C 16.64 29.21 19.85 29.37 23.07 29.23 C 23.35 28.93 23.92 28.34 24.21 28.04 L 24.38 26.61 C 20.88 26.64 17.29 26.11 13.85 26.9 Z M 53.16 90 C 53.38 89.31 53.82 87.92 54.04 87.23 C 54.2 87.92 54.54 89.31 54.7 90 L 53.16 90 Z"
        fill="#2c4482"
        stroke-width="1"/>
    <path
        id="path_4"
        d="M 41.6 9.58 C 45.41 6.97 50.86 6.06 54.88 8.69 L 55.41 9.77 C 50.88 11.2 46.11 11.01 41.6 9.58 Z M 61.36 14.83 C 63.26 18.57 62.46 22.98 63.34 27 C 62.73 27.96 62.1 28.91 61.45 29.84 C 61.93 31.24 62.39 32.64 62.69 34.09 C 59.21 28.65 61.43 21.64 59.18 15.71 C 59.72 15.49 60.81 15.05 61.36 14.83 Z M 40.46 22.89 C 42.41 20.88 45.37 21.22 47.87 21.63 C 48.02 23.58 48.49 25.86 46.69 27.22 C 44.87 25.18 40.68 26.18 40.46 22.89 Z M 53.52 27.13 C 52.11 24.78 53.51 22.73 56.22 23.05 C 56.55 23.17 57.21 23.4 57.54 23.52 C 56.18 24.7 54.86 25.92 53.52 27.13 Z M 35.13 29.9 C 35.59 29.75 36.5 29.45 36.95 29.3 C 37.25 30.73 37.54 32.16 37.84 33.59 C 40.58 33.18 42.93 31.73 45.12 30.13 L 45.72 32.09 C 46.79 32.62 47.87 33.15 48.94 33.67 C 47.99 34.57 47.05 35.47 46.1 36.38 C 47.91 37 49.72 37.63 51.54 38.24 C 49.65 38.96 47.68 39.39 45.67 39.53 C 46.87 39.97 48.06 40.43 49.24 40.9 C 48.72 42.99 46.7 42.5 45.08 42.57 C 45.27 42.97 45.66 43.76 45.86 44.16 C 46.66 44.37 47.45 44.58 48.25 44.81 C 49.76 45.58 51.32 46.26 52.93 46.79 C 52.77 47.17 52.45 47.92 52.28 48.3 C 51.39 48.85 50.46 49.31 49.49 49.7 C 48.93 49.84 47.81 50.13 47.25 50.27 L 47.49 52.94 C 46.8 52.86 45.41 52.69 44.71 52.61 C 43.84 52.51 42.98 52.4 42.11 52.3 C 41.3 50.62 40.43 48.86 40.61 46.93 C 40.87 42.95 40.01 39.03 39.1 35.17 L 38.25 34.84 C 37.63 34.62 36.41 34.2 35.79 33.99 C 35.56 32.63 35.32 31.27 35.13 29.9 Z M 14.31 79.23 C 14.83 75.56 16.2 72.09 17.62 68.69 L 20.5 69.37 C 20.87 70.67 21.69 71.73 22.54 72.75 C 22.35 76.46 23.56 80.94 20.28 83.63 C 19.88 83.64 19.07 83.67 18.67 83.68 L 18.22 87.13 C 17.09 86.82 15.96 86.51 14.82 86.19 C 15.27 85.28 15.72 84.38 16.16 83.47 C 15.31 82.19 13.9 80.93 14.31 79.23 Z M 66.89 72.63 C 67.43 74.94 67.93 77.27 68.37 79.6 C 68.36 80.98 68.35 82.35 68.34 83.73 C 67.21 83.33 66.07 82.95 64.93 82.58 C 65.26 82.16 65.91 81.31 66.23 80.89 C 62.88 80.04 57.79 79.93 57.62 75.38 C 58.87 75.39 60.11 75.41 61.36 75.43 C 61.31 76.66 61.57 77.8 62.15 78.85 C 63.31 78.68 63.82 77.83 63.68 76.29 C 64.64 76.05 65.61 75.81 66.57 75.57 C 66.65 74.84 66.81 73.37 66.89 72.63 Z M 6.1 89.26 C 9.48 88.26 10.06 83.66 13.64 83.16 C 13.62 84.1 13.57 85.96 13.55 86.89 C 12.87 87.37 12.2 87.85 11.52 88.33 C 12.1 88.75 13.25 89.58 13.83 90 L 6.01 90 L 6.1 89.26 Z M 62.44 90 C 60.92 87.88 64.54 87.8 63.23 90 L 62.44 90 Z"
        fill="#2c2322"
        stroke-width="1"/>
    <path
        id="path_5"
        d="M 54.88 8.69 C 56.92 9.76 58.81 11.14 60.1 13.08 C 58.15 12.61 56.32 11.64 55.41 9.77 L 54.88 8.69 Z M 47.87 21.63 C 49.63 22.11 51.43 22.46 53.26 22.51 C 54 22.65 55.48 22.92 56.22 23.05 C 53.51 22.73 52.11 24.78 53.52 27.13 C 54.86 25.92 56.18 24.7 57.54 23.52 L 58.52 23.87 C 58.55 24.77 58.59 26.59 58.62 27.5 C 57.93 27.56 56.57 27.68 55.88 27.74 C 54.71 27.76 53.56 27.68 52.41 27.5 C 51.58 25.99 51.53 24.22 51.15 22.58 C 48.17 24.5 48.46 28.5 48.21 31.62 C 48.66 31.71 49.56 31.88 50 31.96 C 50.4 31.95 51.19 31.91 51.58 31.9 C 51.53 32.83 51.48 33.76 51.42 34.69 C 52.53 35.23 53.63 35.78 54.74 36.33 C 54.66 38.97 54.72 41.65 55.71 44.13 C 54.73 45.65 53.87 47.32 52.28 48.3 C 52.45 47.92 52.77 47.17 52.93 46.79 C 51.32 46.26 49.76 45.58 48.25 44.81 C 51.36 45.17 53.41 42.71 54.2 39.98 C 53.64 38.98 52.57 38.56 51.54 38.24 C 49.72 37.63 47.91 37 46.1 36.38 C 47.05 35.47 47.99 34.57 48.94 33.67 C 47.87 33.15 46.79 32.62 45.72 32.09 L 45.12 30.13 C 42.93 31.73 40.58 33.18 37.84 33.59 C 37.54 32.16 37.25 30.73 36.95 29.3 C 36.5 29.45 35.59 29.75 35.13 29.9 C 35.28 27.93 35.63 25.97 36.18 24.07 C 36.6 25.02 37.02 25.97 37.45 26.93 C 37.88 25.51 38.33 24.1 38.77 22.69 C 38.92 25.23 38.82 27.78 38.49 30.31 C 39.73 30.71 40.98 31.11 42.23 31.52 C 43.07 30.3 43.7 28.96 44.09 27.53 C 42.44 27.07 40.8 26.6 39.15 26.14 C 39.57 25.05 40.01 23.97 40.46 22.89 C 40.68 26.18 44.87 25.18 46.69 27.22 C 48.49 25.86 48.02 23.58 47.87 21.63 Z M 38.25 34.84 L 39.1 35.17 C 40.01 39.03 40.87 42.95 40.61 46.93 C 40.43 48.86 41.3 50.62 42.11 52.3 C 43.13 54.32 43.89 56.44 44.7 58.55 C 44.45 59.15 43.95 60.34 43.7 60.93 C 42.89 60.25 42.09 59.56 41.29 58.88 C 41 58.63 40.43 58.15 40.15 57.9 C 38.09 55.58 37.03 52.63 36.6 49.59 C 39.35 45.14 38.72 39.78 38.25 34.84 Z M 14.3 48.62 C 17.17 50.51 20.41 51.86 23.01 54.12 C 24.42 56.31 23.03 58.83 22.74 61.13 C 22.09 62.83 23.79 64.07 24.57 65.37 C 23.84 65.44 23.12 65.54 22.4 65.65 C 21.1 65.86 19.86 66.31 18.63 66.76 C 19.26 67.62 19.87 68.5 20.5 69.37 L 17.62 68.69 C 16.2 72.09 14.83 75.56 14.31 79.23 C 13.9 80.93 15.31 82.19 16.16 83.47 C 15.72 84.38 15.27 85.28 14.82 86.19 C 15.96 86.51 17.09 86.82 18.22 87.13 L 18.67 83.68 C 19.07 83.67 19.88 83.64 20.28 83.63 C 19.96 86.42 19.87 90.93 15.85 90 L 13.83 90 C 13.25 89.58 12.1 88.75 11.52 88.33 C 12.2 87.85 12.87 87.37 13.55 86.89 C 13.57 85.96 13.62 84.1 13.64 83.16 C 10.06 83.66 9.48 88.26 6.1 89.26 C 6.13 88.69 6.21 87.56 6.25 87 C 9.65 83.53 13.31 79.73 13.97 74.69 C 15.43 69.41 15.62 63.97 15.42 58.53 C 15.61 55.18 15 51.88 14.3 48.62 Z M 47.25 50.27 C 47.81 50.13 48.93 49.84 49.49 49.7 C 49.42 52.2 49.38 54.71 49.29 57.22 C 49.73 57.58 50.62 58.29 51.06 58.65 C 49.9 58.62 48.75 58.6 47.59 58.6 C 46.58 56.63 45.61 54.64 44.71 52.61 C 45.41 52.69 46.8 52.86 47.49 52.94 L 47.25 50.27 Z M 58.18 69.78 C 60.92 70.46 65.97 69.23 66.89 72.63 C 66.81 73.37 66.65 74.84 66.57 75.57 C 65.61 75.81 64.64 76.05 63.68 76.29 C 63.82 77.83 63.31 78.68 62.15 78.85 C 61.57 77.8 61.31 76.66 61.36 75.43 C 60.11 75.41 58.87 75.39 57.62 75.38 C 57.78 73.51 57.99 71.65 58.18 69.78 M 58.48 74.86 C 60.07 74.55 61.67 74.24 63.27 73.93 C 63.57 72.57 63.23 71.56 62.26 70.88 C 61.93 71.76 61.44 72.52 60.79 73.17 C 60.63 72.13 60.41 71.11 60.13 70.1 C 59.2 71.53 58.65 73.12 58.48 74.86 Z"
        fill="#745147"
        stroke-width="1"/>
    <path
        id="path_6"
        d="M 7.64 15.72 C 11.37 10.08 19.84 8.44 25.23 12.69 C 25.72 14.2 26.82 15.27 28.26 15.89 C 31.81 21.33 30.6 29.45 25.02 33.04 C 20.64 36.31 13.83 36.17 10.01 32.09 C 4.72 28.58 4.17 20.69 7.64 15.72 M 11.29 14.92 C 14.21 17.98 18.9 16.01 22.65 16.48 C 22.54 17.03 22.3 18.14 22.19 18.69 C 22.73 18.61 23.82 18.43 24.36 18.34 C 24.33 20.15 24.32 21.95 24.33 23.75 C 22.26 23.67 19.23 25.15 17.91 22.95 C 19.07 22.25 20.28 21.65 21.54 21.15 C 21.66 20.46 21.89 19.09 22.01 18.4 C 19.49 19.44 16.73 19.14 14.07 19.28 C 14.1 19.82 14.16 20.89 14.19 21.43 C 15.08 21.4 16.84 21.35 17.73 21.32 C 18.44 23.87 15.79 23.55 14.43 24.26 C 13.92 25.71 13.36 27.35 11.71 27.79 C 11.76 24.61 11.79 21.42 11.77 18.24 C 11.13 17.63 10.48 17.02 9.82 16.43 C 9.06 18.91 7.91 21.42 8.33 24.08 C 8.26 26.49 10.39 28.23 10.28 30.63 C 12.66 30.63 14.42 32.82 16.87 32.65 C 21.61 33.48 26 29.97 27.44 25.64 C 28.32 21.96 27.22 18.08 24.73 15.27 C 22.72 13.92 20.31 13.42 18 12.8 C 15.72 13.36 13.46 14.02 11.29 14.92 Z M 53.26 22.51 C 54.31 19.81 54.36 15 58.39 15.34 L 59.18 15.71 C 61.43 21.64 59.21 28.65 62.69 34.09 C 62.39 32.64 61.93 31.24 61.45 29.84 C 62.1 28.91 62.73 27.96 63.34 27 C 63.14 30.22 64.72 34.85 61.56 36.98 L 60.92 33.9 C 58.92 33.53 56.95 32.99 55.15 32.04 C 56.34 30.63 57.52 29.22 58.7 27.8 C 57.99 27.79 56.58 27.75 55.88 27.74 C 56.57 27.68 57.93 27.56 58.62 27.5 C 58.59 26.59 58.55 24.77 58.52 23.87 L 57.54 23.52 C 57.21 23.4 56.55 23.17 56.22 23.05 C 55.48 22.92 54 22.65 53.26 22.51 Z"
        fill="#f4dbce"
        stroke-width="1"/>
    <path
        id="path_7"
        d="M 13.85 26.9 C 17.29 26.11 20.88 26.64 24.38 26.61 L 24.21 28.04 C 23.92 28.34 23.35 28.93 23.07 29.23 C 19.85 29.37 16.64 29.21 13.42 29.34 C 13.53 28.73 13.74 27.51 13.85 26.9 Z M 50 31.96 C 49.45 30.88 49.21 28.57 50.78 28.27 C 52.09 28.88 52.12 30.75 51.58 31.9 C 51.19 31.91 50.4 31.95 50 31.96 Z M 27.04 38.42 C 27.84 37.45 29.14 37.51 30.24 37.22 C 30.25 38.63 30.26 40.04 30.26 41.45 C 27.51 41.36 24.75 41.39 22 41.43 C 21.91 38.49 24.84 38.25 27.04 38.42 Z M 16.13 45.92 C 18.98 45.26 21.81 44.02 24.79 44.27 C 28.84 44.37 30.53 48.72 32.23 51.71 C 32.3 52.27 32.42 53.39 32.49 53.95 C 31.22 54.45 28.87 53.75 28.43 55.5 C 27.52 58.74 28.66 62.66 26.09 65.29 C 25.28 63.39 24.14 61.33 25.1 59.25 C 26.33 56.64 24.8 54 23.2 51.97 C 21.08 49.58 16.73 49.61 16.13 45.92 Z M 55.4 53.04 C 55.85 51.13 57.38 49.78 58.53 48.29 C 59.06 49.28 59.56 50.3 59.89 51.38 C 59.74 51.9 59.45 52.94 59.3 53.46 C 58.28 55.23 57.07 56.89 55.77 58.47 C 53.67 57.25 55.11 54.81 55.4 53.04 Z M 82.47 81.33 C 86.17 82.88 83.07 87.29 85.73 89.53 C 85.45 89.65 84.88 89.88 84.6 90 L 81.48 90 C 81.94 89.79 82.86 89.38 83.32 89.17 C 83.54 88.67 83.99 87.66 84.21 87.16 C 83.77 86.75 82.9 85.92 82.46 85.51 C 82.44 84.11 82.45 82.72 82.47 81.33 Z M 40.77 83.22 C 41.13 83.43 41.84 83.86 42.2 84.08 C 42.25 84.71 42.35 85.96 42.4 86.59 C 44.05 86.29 45.7 85.96 47.34 85.62 C 47.33 87.08 47.33 88.54 47.32 90 L 45.27 90 C 45.26 89.28 45.25 87.85 45.24 87.13 C 43.68 86.91 42.87 88.88 43.82 90 L 39.38 90 C 39.66 87.17 35.17 86.89 36.29 90 L 30.68 90 C 30.52 88.43 30.37 86.86 30.22 85.3 C 32.48 84.83 33.98 85.48 34.71 87.25 C 33.84 87.45 32.1 87.84 31.22 88.03 C 32.15 88.21 33.07 88.38 34 88.56 C 35.24 85.18 40.01 86.75 40.77 83.22 Z M 48.6 90 C 47.91 86.79 50.56 85.19 53.04 84.02 C 53.39 84.46 54.08 85.35 54.43 85.79 L 54.79 86.3 C 56.03 85.78 57.3 85.25 58.67 85.36 C 59.27 86.45 59.88 87.54 60.48 88.63 C 59.05 88.91 57.68 89.37 56.37 90 L 54.7 90 C 54.54 89.31 54.2 87.92 54.04 87.23 C 53.82 87.92 53.38 89.31 53.16 90 L 48.6 90 M 57.18 87.28 C 57.76 87.82 57.76 87.82 57.18 87.28 Z"
        fill="#f4dbce"
        stroke-width="1"/>
    <path
        id="path_8"
        d="M 39.06 12.91 C 39.25 11.41 40.58 10.53 41.6 9.58 C 46.11 11.01 50.88 11.2 55.41 9.77 C 56.32 11.64 58.15 12.61 60.1 13.08 C 60.41 13.52 61.04 14.39 61.36 14.83 C 60.81 15.05 59.72 15.49 59.18 15.71 L 58.39 15.34 C 52.59 11.67 44.32 12.75 39.81 18.01 C 39.53 19.58 39.23 21.16 38.77 22.69 C 38.33 24.1 37.88 25.51 37.45 26.93 C 37.02 25.97 36.6 25.02 36.18 24.07 C 37.53 20.45 38.36 16.7 39.06 12.91 Z M 32.23 51.71 C 33.55 50.75 34.91 49.71 36.6 49.59 C 37.03 52.63 38.09 55.58 40.15 57.9 C 37.68 56.07 34.73 54.69 31.61 55.65 C 31.83 55.22 32.27 54.37 32.49 53.95 C 32.42 53.39 32.3 52.27 32.23 51.71 Z M 71.73 68.2 L 73.13 67.08 C 74.11 74.69 75.26 82.29 75.23 90 L 67.75 90 C 67.67 88.25 67.59 86.49 67.5 84.74 C 68.48 84.26 69.46 83.79 70.45 83.31 C 70.75 78.26 71.54 73.26 71.73 68.2 Z M 23.69 90 C 22.61 84.12 25.78 78.77 25.47 72.94 C 26.16 74.26 26.84 75.58 27.53 76.9 C 27.78 77.55 28.02 78.21 28.26 78.87 C 28.44 79.4 28.8 80.48 28.98 81.01 C 30.06 81.78 31.15 82.53 32.23 83.29 C 31.56 83.41 30.23 83.64 29.57 83.76 C 29.46 85.84 29.36 87.92 29.26 90 L 23.69 90 Z"
        fill="#060305"
        stroke-width="1"/>
    <path
        id="path_9"
        d="M 39.81 18.01 C 44.32 12.75 52.59 11.67 58.39 15.34 C 54.36 15 54.31 19.81 53.26 22.51 C 51.43 22.46 49.63 22.11 47.87 21.63 C 45.37 21.22 42.41 20.88 40.46 22.89 C 40.01 23.97 39.57 25.05 39.15 26.14 C 40.8 26.6 42.44 27.07 44.09 27.53 C 43.7 28.96 43.07 30.3 42.23 31.52 C 40.98 31.11 39.73 30.71 38.49 30.31 C 38.82 27.78 38.92 25.23 38.77 22.69 C 39.23 21.16 39.53 19.58 39.81 18.01 Z M 51.58 31.9 C 52.12 31.77 53.19 31.51 53.73 31.38 C 54.09 31.54 54.79 31.87 55.15 32.04 C 56.95 32.99 58.92 33.53 60.92 33.9 L 61.56 36.98 C 59.57 37.74 58.27 39.29 58.54 41.49 C 57.57 42.35 56.63 43.23 55.71 44.13 C 54.72 41.65 54.66 38.97 54.74 36.33 C 53.63 35.78 52.53 35.23 51.42 34.69 C 51.48 33.76 51.53 32.83 51.58 31.9 Z M 51.54 38.24 C 52.57 38.56 53.64 38.98 54.2 39.98 C 53.41 42.71 51.36 45.17 48.25 44.81 C 47.45 44.58 46.66 44.37 45.86 44.16 C 45.66 43.76 45.27 42.97 45.08 42.57 C 46.7 42.5 48.72 42.99 49.24 40.9 C 48.06 40.43 46.87 39.97 45.67 39.53 C 47.68 39.39 49.65 38.96 51.54 38.24 Z M 14.3 48.62 C 14.39 47.39 14.96 46.4 16.13 45.92 C 16.73 49.61 21.08 49.58 23.2 51.97 C 24.8 54 26.33 56.64 25.1 59.25 C 24.14 61.33 25.28 63.39 26.09 65.29 C 28.66 62.66 27.52 58.74 28.43 55.5 C 28.87 53.75 31.22 54.45 32.49 53.95 C 32.27 54.37 31.83 55.22 31.61 55.65 C 30.66 56.18 29.72 56.72 28.78 57.26 C 29.41 62.19 26.81 66.4 25.87 71.06 L 25.47 72.94 C 25.78 78.77 22.61 84.12 23.69 90 L 15.85 90 C 19.87 90.93 19.96 86.42 20.28 83.63 C 23.56 80.94 22.35 76.46 22.54 72.75 C 21.69 71.73 20.87 70.67 20.5 69.37 C 21.95 70.46 23.48 71.44 25.01 72.42 C 25.18 70.5 25.33 68.57 25.49 66.65 C 24.01 66.63 22.54 66.6 21.07 66.57 C 21.4 66.34 22.07 65.88 22.4 65.65 C 23.12 65.54 23.84 65.44 24.57 65.37 C 23.79 64.07 22.09 62.83 22.74 61.13 C 23.03 58.83 24.42 56.31 23.01 54.12 C 20.41 51.86 17.17 50.51 14.3 48.62 Z M 58.48 74.86 C 58.65 73.12 59.2 71.53 60.13 70.1 C 60.41 71.11 60.63 72.13 60.79 73.17 C 61.44 72.52 61.93 71.76 62.26 70.88 C 63.23 71.56 63.57 72.57 63.27 73.93 C 61.67 74.24 60.07 74.55 58.48 74.86 Z M 58.67 85.36 L 59.58 85.43 C 61.11 85.58 62.64 85.73 64.17 85.89 C 64.48 87.26 64.78 88.63 65.08 90 L 63.23 90 C 64.54 87.8 60.92 87.88 62.44 90 L 56.37 90 C 57.68 89.37 59.05 88.91 60.48 88.63 C 59.88 87.54 59.27 86.45 58.67 85.36 Z"
        fill="#be8872"
        stroke-width="1"/>
    <path
        id="path_10"
        d="M 57.18 87.28 C 57.76 87.82 57.76 87.82 57.18 87.28 Z"
        fill="#be8872"
        stroke-width="1"/>
    <path
        id="path_11"
        d="M 48.21 31.62 C 48.46 28.5 48.17 24.5 51.15 22.58 C 51.53 24.22 51.58 25.99 52.41 27.5 C 53.56 27.68 54.71 27.76 55.88 27.74 C 56.58 27.75 57.99 27.79 58.7 27.8 C 57.52 29.22 56.34 30.63 55.15 32.04 C 54.79 31.87 54.09 31.54 53.73 31.38 C 53.19 31.51 52.12 31.77 51.58 31.9 C 52.12 30.75 52.09 28.88 50.78 28.27 C 49.21 28.57 49.45 30.88 50 31.96 C 49.56 31.88 48.66 31.71 48.21 31.62 Z M 5.52 41.88 C 5.58 39.97 4.84 37.55 6.8 36.33 C 10.53 38.84 15.02 38.79 19.17 37.43 C 19.21 38.44 19.27 40.47 19.31 41.49 C 16.03 41.45 12.74 41.41 9.46 41.63 C 9.24 40.94 8.78 39.55 8.55 38.86 C 7.37 39.71 6.93 41.35 5.52 41.88 Z M 21.02 41.42 C 19.38 41.16 19.28 36.81 21.28 37.36 C 21.98 38.53 21.89 40.36 21.02 41.42 Z M 55.71 44.13 C 56.63 43.23 57.57 42.35 58.54 41.49 C 58.51 43.76 58.52 46.02 58.53 48.29 C 57.38 49.78 55.85 51.13 55.4 53.04 C 55.11 54.81 53.67 57.25 55.77 58.47 C 55.37 58.95 54.98 59.44 54.58 59.92 C 53.4 59.5 52.23 59.08 51.06 58.65 C 50.62 58.29 49.73 57.58 49.29 57.22 C 49.38 54.71 49.42 52.2 49.49 49.7 C 50.46 49.31 51.39 48.85 52.28 48.3 C 53.87 47.32 54.73 45.65 55.71 44.13 Z M 42.11 52.3 C 42.98 52.4 43.84 52.51 44.71 52.61 C 45.61 54.64 46.58 56.63 47.59 58.6 C 46.87 58.59 45.43 58.56 44.7 58.55 C 43.89 56.44 43.13 54.32 42.11 52.3 Z M 18.63 66.76 C 19.86 66.31 21.1 65.86 22.4 65.65 C 22.07 65.88 21.4 66.34 21.07 66.57 C 22.54 66.6 24.01 66.63 25.49 66.65 C 25.33 68.57 25.18 70.5 25.01 72.42 C 23.48 71.44 21.95 70.46 20.5 69.37 C 19.87 68.5 19.26 67.62 18.63 66.76 Z M 28.26 75.08 C 29.13 75.48 30 75.89 30.87 76.29 C 33.34 75.66 35.87 75.29 38.42 75.11 C 35.21 76.8 31.84 78.21 28.26 78.87 C 28.02 78.21 27.78 77.55 27.53 76.9 C 27.71 76.45 28.08 75.53 28.26 75.08 Z"
        fill="#d1a89b"
        stroke-width="1"/>
    <path
        id="path_12"
        d="M 59.89 51.38 C 62.65 51.86 65.12 53.18 67.45 54.67 C 69.57 56.11 72.27 56.31 74.43 57.61 C 76.23 59.72 78.14 61.72 80.15 63.64 C 83.21 68.47 85.08 74.17 84.15 79.94 C 83.59 80.4 83.03 80.86 82.47 81.33 C 82.45 82.72 82.44 84.11 82.46 85.51 C 82.9 85.92 83.77 86.75 84.21 87.16 C 83.99 87.66 83.54 88.67 83.32 89.17 C 82.86 89.38 81.94 89.79 81.48 90 L 75.23 90 C 75.26 82.29 74.11 74.69 73.13 67.08 L 71.73 68.2 C 71.22 68.29 70.19 68.46 69.67 68.55 C 69.39 65.13 71.02 60.67 67.97 58.12 C 65.67 55.64 62.78 53.65 59.3 53.46 C 59.45 52.94 59.74 51.9 59.89 51.38 Z M 10.41 69.11 C 10.59 65.07 12.47 61.27 15.42 58.53 C 15.62 63.97 15.43 69.41 13.97 74.69 C 13.31 79.73 9.65 83.53 6.25 87 C 6.21 86.78 6.11 86.36 6.07 86.14 C 7.91 80.59 10.22 75.03 10.41 69.11 Z M 41.29 58.88 C 42.09 59.56 42.89 60.25 43.7 60.93 C 44.72 61.78 45.75 62.63 46.77 63.49 C 50.01 64.03 52.83 62.82 54.53 59.97 C 56.09 62.42 55.22 65.42 55.28 68.13 C 50.64 68.32 45.99 68.35 41.35 68.12 C 41.37 65.04 41.36 61.96 41.29 58.88 Z"
        fill="#071552"
        stroke-width="1"/>
    <path
        id="path_13"
        d="M 25.87 71.06 C 26.69 70.1 27.32 68.38 28.92 68.71 C 32.87 68.48 36.83 68.64 40.78 68.78 C 40.63 73.23 40.54 77.68 40.47 82.14 C 45.21 82.26 49.96 82.38 54.68 81.87 C 55.16 77.47 55.46 73.06 55.65 68.65 C 60.28 68.69 64.9 68.84 69.52 68.77 C 69.46 72.41 68.97 76.01 68.37 79.6 C 67.93 77.27 67.43 74.94 66.89 72.63 C 65.97 69.23 60.92 70.46 58.18 69.78 C 57.99 71.65 57.78 73.51 57.62 75.38 C 57.79 79.93 62.88 80.04 66.23 80.89 C 65.91 81.31 65.26 82.16 64.93 82.58 C 63.23 82.29 61.53 82.01 59.82 81.81 C 58.13 81.77 56.43 81.83 54.74 81.87 C 54.66 82.85 54.51 84.81 54.43 85.79 C 54.08 85.35 53.39 84.46 53.04 84.02 C 50.56 85.19 47.91 86.79 48.6 90 L 47.32 90 C 47.33 88.54 47.33 87.08 47.34 85.62 C 45.7 85.96 44.05 86.29 42.4 86.59 C 42.35 85.96 42.25 84.71 42.2 84.08 C 41.84 83.86 41.13 83.43 40.77 83.22 C 40.59 82.91 40.22 82.3 40.03 81.99 C 37.42 82.37 34.82 82.81 32.23 83.29 C 31.15 82.53 30.06 81.78 28.98 81.01 C 28.8 80.48 28.44 79.4 28.26 78.87 C 31.84 78.21 35.21 76.8 38.42 75.11 C 35.87 75.29 33.34 75.66 30.87 76.29 C 30 75.89 29.13 75.48 28.26 75.08 C 28.08 75.53 27.71 76.45 27.53 76.9 C 26.84 75.58 26.16 74.26 25.47 72.94 L 25.87 71.06 Z"
        fill="#071552"
        stroke-width="1"/>
    <path
        id="path_14"
        d="M 43.82 90 C 42.87 88.88 43.68 86.91 45.24 87.13 C 45.25 87.85 45.26 89.28 45.27 90 L 43.82 90 Z"
        fill="#071552"
        stroke-width="1"/>
    <path
        id="path_15"
        d="M 59.3 53.46 C 62.78 53.65 65.67 55.64 67.97 58.12 C 71.02 60.67 69.39 65.13 69.67 68.55 C 70.19 68.46 71.22 68.29 71.73 68.2 C 71.54 73.26 70.75 78.26 70.45 83.31 C 69.46 83.79 68.48 84.26 67.5 84.74 C 67.59 86.49 67.67 88.25 67.75 90 L 65.08 90 C 64.78 88.63 64.48 87.26 64.17 85.89 C 62.64 85.73 61.11 85.58 59.58 85.43 C 59.64 84.53 59.76 82.71 59.82 81.81 C 61.53 82.01 63.23 82.29 64.93 82.58 C 66.07 82.95 67.21 83.33 68.34 83.73 C 68.35 82.35 68.36 80.98 68.37 79.6 C 68.97 76.01 69.46 72.41 69.52 68.77 C 64.9 68.84 60.28 68.69 55.65 68.65 C 55.46 73.06 55.16 77.47 54.68 81.87 C 49.96 82.38 45.21 82.26 40.47 82.14 C 40.54 77.68 40.63 73.23 40.78 68.78 C 36.83 68.64 32.87 68.48 28.92 68.71 C 27.32 68.38 26.69 70.1 25.87 71.06 C 26.81 66.4 29.41 62.19 28.78 57.26 C 29.72 56.72 30.66 56.18 31.61 55.65 C 34.73 54.69 37.68 56.07 40.15 57.9 C 40.43 58.15 41 58.63 41.29 58.88 C 41.36 61.96 41.37 65.04 41.35 68.12 C 45.99 68.35 50.64 68.32 55.28 68.13 C 55.22 65.42 56.09 62.42 54.53 59.97 L 54.58 59.92 C 54.98 59.44 55.37 58.95 55.77 58.47 C 57.07 56.89 58.28 55.23 59.3 53.46 M 64.44 56.94 C 61.85 59.05 59.09 62.42 61.1 65.87 C 63 66.76 65.13 66.39 67.12 66.11 C 66.83 62.93 66.26 59.65 64.44 56.94 Z"
        fill="#850228"
        stroke-width="1"/>
    <path
        id="path_16"
        d="M 64.44 56.94 C 66.26 59.65 66.83 62.93 67.12 66.11 C 65.13 66.39 63 66.76 61.1 65.87 C 59.09 62.42 61.85 59.05 64.44 56.94 Z M 32.23 83.29 C 34.82 82.81 37.42 82.37 40.03 81.99 C 40.22 82.3 40.59 82.91 40.77 83.22 C 40.01 86.75 35.24 85.18 34 88.56 C 33.07 88.38 32.15 88.21 31.22 88.03 C 32.1 87.84 33.84 87.45 34.71 87.25 C 33.98 85.48 32.48 84.83 30.22 85.3 C 30.37 86.86 30.52 88.43 30.68 90 L 29.26 90 C 29.36 87.92 29.46 85.84 29.57 83.76 C 30.23 83.64 31.56 83.41 32.23 83.29 Z M 54.74 81.87 C 56.43 81.83 58.13 81.77 59.82 81.81 C 59.76 82.71 59.64 84.53 59.58 85.43 L 58.67 85.36 C 57.3 85.25 56.03 85.78 54.79 86.3 L 54.43 85.79 C 54.51 84.81 54.66 82.85 54.74 81.87 Z M 36.29 90 C 35.17 86.89 39.66 87.17 39.38 90 L 36.29 90 Z"
        fill="#9e0333"
        stroke-width="1"/>
    <path
        id="path_17"
        d="M 43.7 60.93 C 43.95 60.34 44.45 59.15 44.7 58.55 C 45.43 58.56 46.87 58.59 47.59 58.6 C 48.75 58.6 49.9 58.62 51.06 58.65 C 52.23 59.08 53.4 59.5 54.58 59.92 L 54.53 59.97 C 52.83 62.82 50.01 64.03 46.77 63.49 C 45.75 62.63 44.72 61.78 43.7 60.93 Z"
        fill="#db9837"
        stroke-width="1"/>
</svg>
