<svg
    xmlns="http://www.w3.org/2000/svg"
    viewBox="0 0 256 256"
    id="vector">
    <path
        id="path"
        d="M 71.99 7.99 C 82.66 8.01 93.34 8.01 104.01 7.99 C 104 47.33 103.98 86.68 104.02 126.02 C 95.71 129.72 88.34 135.27 82 141.77 C 78.61 131.88 75.21 121.97 72.11 111.98 C 71.84 77.33 72.09 42.65 71.99 7.99 Z"
        fill="#000000"/>
    <path
        id="path_1"
        d="M 111.99 7.99 C 125.33 8.01 138.67 8.01 152.01 7.99 C 151.99 46.32 152 84.65 152 122.98 C 139.04 119.05 124.96 119.06 111.99 122.98 C 112 84.65 112.01 46.32 111.99 7.99 Z"
        fill="#000000"/>
    <path
        id="path_2"
        d="M 159.99 7.99 C 170.66 8.01 181.34 8.01 192.01 7.99 C 192 40.66 191.99 73.33 192.01 106 C 191.96 108.75 192.31 111.6 191.28 114.22 C 188.14 123.39 185.24 132.63 182 141.76 C 175.67 135.23 168.26 129.77 159.99 125.96 C 160.01 86.64 160 47.31 159.99 7.99 Z"
        fill="#000000"/>
    <path
        id="path_3"
        d="M 122.45 128.81 C 137.83 126.21 154.18 130.06 166.83 139.19 C 176.23 145.87 183.61 155.34 187.81 166.08 C 193.36 179.99 193.36 196.01 187.81 209.92 C 182.64 223.15 172.6 234.41 160.02 241.02 C 148.39 247.22 134.66 249.41 121.7 247.06 C 104.66 244.21 89.19 233.46 80.43 218.59 C 72.28 205 69.88 188.12 73.98 172.82 C 79.6 150.28 99.48 132.22 122.45 128.81 M 124 176 C 114.74 176.01 105.48 175.97 96.21 176.03 C 102.63 182.95 109.43 189.51 116.01 196.29 C 114 205.49 111.82 214.66 109.94 223.89 C 117.34 218.46 124.64 212.89 131.99 207.39 C 139.95 212.7 147.63 218.42 155.67 223.6 C 153.5 214.4 150.5 205.41 148 196.29 C 154.58 189.52 161.4 182.97 167.79 176.03 C 158.53 175.98 149.27 176 140.01 176.01 C 137.29 168.21 135 160.25 131.99 152.56 C 129.02 160.26 126.7 168.2 124 176 Z"
        fill="#000000"/>
</svg>
