<svg
    xmlns="http://www.w3.org/2000/svg"
    viewBox="0 0 128 128"
    id="vector">
    <path
        id="path"
        d="M 25.43 32.62 C 32.74 30.12 41.31 35.38 42.43 43 C 43.93 50.24 38.27 57.86 30.92 58.53 C 23.98 59.57 16.97 54.12 16.17 47.18 C 15.13 40.9 19.34 34.36 25.43 32.62 Z"
        fill="#ffffff"/>
    <path
        id="path_1"
        d="M 59.41 32.63 C 66.4 30.52 74.62 33.62 78.05 40.17 C 81.91 47.09 79.9 56.74 73.22 61.17 C 65.61 66.68 53.49 63.82 49.6 55.14 C 45.23 46.67 49.98 34.93 59.41 32.63 Z"
        fill="#ffffff"/>
    <path
        id="path_2"
        d="M 94.37 32.55 C 102.48 29.55 112.32 36.17 112.02 44.93 C 112.8 53.44 103.64 60.81 95.49 58.43 C 88.34 56.82 83.33 48.63 85.74 41.58 C 86.89 37.38 90.28 33.96 94.37 32.55 Z"
        fill="#ffffff"/>
    <path
        id="path_3"
        d="M 83.58 73.51 C 96.28 64.71 116.65 69.39 122.79 84.02 C 123.01 86.44 122.87 88.87 122.88 91.29 C 115.56 91.44 108.23 91.33 100.9 91.35 C 97.98 83.25 90.86 77.6 83.58 73.51 Z"
        fill="#ffffff"/>
    <path
        id="path_4"
        d="M 6.97 81.02 C 14.47 68.75 32.52 65.83 44.25 73.54 C 36.89 77.4 29.95 83.22 26.97 91.18 C 19.76 91.22 12.55 91.19 5.34 91.2 C 5.48 87.76 4.54 83.9 6.97 81.02 Z"
        fill="#ffffff"/>
    <path
        id="path_5"
        d="M 53.77 75.83 C 60.97 74.21 68.6 74.29 75.74 76.22 C 84.21 78.54 91.97 84.22 95.91 92.16 C 96.14 95.21 95.94 98.28 96 101.33 C 74.66 101.33 53.33 101.33 32 101.33 C 32.06 98.27 31.86 95.2 32.09 92.14 C 36.29 83.74 44.72 77.91 53.77 75.83 Z"
        fill="#ffffff"/>
</svg>
