<svg
    xmlns="http://www.w3.org/2000/svg"
    viewBox="0 0 128 128"
    id="vector">
    <path
        id="path"
        d="M 59.51 21.81 C 66.3 20.32 73.77 22.4 78.75 27.27 C 83.49 31.75 85.94 38.49 85.19 44.97 C 84.47 52.28 79.63 58.99 72.94 62.01 C 66.03 65.3 57.38 64.41 51.28 59.77 C 44.87 55.12 41.52 46.7 43.01 38.9 C 44.37 30.55 51.24 23.52 59.51 21.81 Z"
        fill="#000000"/>
    <path
        id="path_1"
        d="M 21.54 95.65 C 29.47 81.94 45.72 75.18 61.05 74.77 C 77.14 73.87 94.69 79.19 104.54 92.63 C 108.19 96.43 106.16 101.98 106.67 106.67 C 78.22 106.67 49.78 106.67 21.33 106.67 C 21.48 103 21.03 99.28 21.54 95.65 Z"
        fill="#000000"/>
</svg>
