<svg
    xmlns="http://www.w3.org/2000/svg"
    viewBox="0 0 24 24"
    id="vector">
    <path
        id="path"
        d="M 5.1 4.1 C 9.4 3.9 13.7 4.1 18.1 4 C 19.2 3.8 20.2 4.9 20 6 C 20 10 20 14 20 18 C 20.2 19.1 19.1 20.1 18 20 C 14 20 10 20 6 20 C 4.9 20.2 3.8 19.1 4 18 C 4 13.8 4 9.6 4 5.5 C 4 4.9 4.6 4.5 5.1 4.1 M 5.6 5.5 C 5.6 6.4 5.6 7.4 5.6 8.3 C 9.9 8.3 14.1 8.3 18.5 8.3 C 18.5 7.4 18.5 6.4 18.5 5.5 C 14.2 5.5 9.8 5.5 5.6 5.5 M 8.2 10.8 C 8.3 11.5 8.9 12.4 9.6 11.8 C 10.3 10.7 9 10.4 8.2 10.8 M 11.6 10.6 C 10.9 11.4 11.9 12.4 12.7 11.7 C 12.9 10.9 12.4 10.3 11.6 10.6 M 14.2 11.4 C 14.2 12.2 15.2 11.8 15.6 11.8 C 15.6 11.5 15.6 11 15.6 10.8 C 15 10.6 13.9 10.5 14.2 11.4 M 17.2 10.7 C 16.8 11.1 17.2 12.4 17.9 11.9 C 19.1 11.7 18.1 10 17.2 10.7 M 14.2 13.3 C 12.8 14.1 14.9 16.2 15.6 14.7 C 16.5 13.8 15.2 12.6 14.2 13.3 M 5.3 14 C 5.7 14.4 6.2 15.2 6.8 14.7 C 6.9 14.2 6.9 13.7 6.6 13.3 C 6.3 13.4 5.6 13.8 5.3 14 M 8.2 14 C 8.6 14.5 9.5 15.4 9.8 14.4 C 10.2 13.2 8.7 13.4 8.2 14 M 12 14.8 C 13.2 14.9 12.6 13.4 12 13.1 C 11.4 13.4 10.8 15 12 14.8 M 16.9 14.6 C 17.4 14.7 18.1 15 18.5 14.5 C 18.4 13.9 18.1 13.5 17.5 13.2 C 17.3 13.5 17 14.2 16.9 14.6 M 5.8 16.2 C 5.5 17 5.7 18.2 6.8 17.6 C 7.4 16.8 6.6 16.2 5.8 16.2 M 8.2 16.9 C 8.6 17.1 8.9 17.9 9.4 17.6 C 10.1 17.6 10 16.7 9.7 16.2 C 9 16.1 8.6 16.6 8.2 16.9 M 11.4 16.3 C 11.4 16.7 11.3 17.2 11.3 17.6 C 11.7 17.6 12.2 17.6 12.6 17.6 C 12.6 17.2 12.6 16.7 12.5 16.3 C 12.2 16.3 11.8 16.3 11.4 16.3 M 14.2 16.3 C 14.3 16.7 13.9 17.7 14.6 17.7 C 15.1 17.9 15.3 17.2 15.7 17 C 15.6 16.8 15.3 16.5 15 16.3 C 14.9 16.3 14.5 16.3 14.2 16.3 Z"
        fill="#ffffff"/>
</svg>
