<svg
    xmlns="http://www.w3.org/2000/svg"
    viewBox="0 0 512 512"
    id="vector">
    <path
        id="path"
        d="M 28.74 39.69 C 41.22 33.78 56.17 33.66 68.84 39.1 C 204.1 95.18 339.33 151.33 474.58 207.43 C 481.86 210.36 489.29 213.44 495.2 218.75 C 505.3 227.32 511.25 240.2 512 253.36 L 512 259.41 C 510.96 272.28 505.13 284.84 495.2 293.24 C 488.49 299.27 479.9 302.37 471.7 305.76 C 340.26 360.31 208.82 414.84 77.38 469.37 C 70.72 472.07 64.14 475.28 56.95 476.27 C 41.44 478.85 25 473.21 14.11 461.93 C 5.97 453.81 1.22 442.76 0 431.4 L 0 423.78 C 0.83 417.09 2.76 410.62 4.39 404.1 C 15.68 359.74 27.03 315.39 38.3 271.03 C 98.21 270.96 158.12 271.03 218.02 270.99 C 223.67 271.11 229.24 267.81 231.71 262.71 C 233.86 258.58 233.87 253.45 231.73 249.32 C 229.27 244.19 223.68 240.89 218.02 241.01 C 158.11 240.97 98.2 241.05 38.3 240.97 C 26.54 194.67 14.7 148.39 2.9 102.09 C 1.61 97.32 0.49 92.48 0 87.55 L 0 81.42 C 1.12 63.63 12.52 47.08 28.74 39.69 Z"
        fill="#ffffff"
        stroke-width="1"/>
</svg>
