<?xml version="1.0" encoding="utf-8"?>
<svg version="1.0" id="Layer_1" xmlns="http://www.w3.org/2000/svg" x="0px" y="0px" viewBox="0 0 24 24"
	style="enable-background:new 0 0 24 24;" xml:space="preserve">
<g>
	<path class="st0" d="M5.4,1.5h3.7C9.8,2.8,10.1,5,12,5s2.1-2.2,2.7-3.5h2.8c2.8,0,4.4,2.7,5,5.1l0,0c-0.9,1.1-1.9,2.1-2.8,3.3
		c0,4.2,0,8.4,0,12.6H4.2c0-4.2,0-8.4,0-12.6C3.4,8.7,2.3,7.8,1.5,6.8C2.3,4.8,3.1,2.2,5.4,1.5 M5.7,2.9C5.6,9,5.6,14.9,5.7,21
		c0.5,0,0.8,0,1.3,0C7.1,14.9,7.1,8.9,7,2.9C6.6,2.9,6.2,2.9,5.7,2.9 M16.9,2.9c-0.1,1.9-0.1,3.7,0,5.5c0.5,0,0.9,0,1.3,0
		c0-1.9,0.1-3.7,0-5.5C17.8,2.9,17.4,2.9,16.9,2.9 M8.5,4.6c0,5.5-0.1,11,0,16.3c0.5,0,0.8,0,1.3,0c0.1-5.5,0.1-11,0-16.3
		C9.4,4.6,9,4.6,8.5,4.6 M14.1,4.6c-0.1,1.3-0.1,2.6,0,3.7c0.5,0,0.8,0,1.3,0c0.1-1.2,0.1-2.4,0.1-3.7C15,4.6,14.6,4.6,14.1,4.6
		 M11.3,6.4c-0.1,4.9-0.1,9.8,0,14.6c0.5,0,0.8,0,1.3,0c0.1-4.9,0.1-9.8,0-14.6C12.2,6.4,11.8,6.4,11.3,6.4 M14.1,9.5
		c-0.1,1.1-0.1,2.1,0,3c1.4,0.1,2.7,0.1,4.1,0c0.1-1,0.1-2,0-3C16.9,9.5,15.5,9.5,14.1,9.5 M14.1,14c0,2.3-0.1,4.8,0,7.1
		c0.5,0,0.8,0,1.3,0c0.1-2.3,0-4.7,0-7.1C15,13.9,14.6,13.9,14.1,14 M16.9,14c0,2.3-0.1,4.8,0,7.1c0.5,0,0.8,0,1.3,0
		c0.1-2.3,0-4.7,0-7.1C17.8,13.9,17.4,13.9,16.9,14z"/>
</g>
</svg>
