<?xml version="1.0" encoding="utf-8"?>
<svg version="1.0" id="Layer_1" xmlns="http://www.w3.org/2000/svg" x="0px" y="0px"
    viewBox="0 0 24 24" style="enable-background:new 0 0 24 24;" xml:space="preserve">

<g>
	<path class="st0" d="M4.7,1.5H9C9.2,2.3,9.4,3,9.8,3.8c0.7,1.3,2.7,1.6,3.7,0.7c0.7-0.8,0.7-2,1.1-3h4.6c0.1,2,0.2,4,0.8,5.8
		c0.4,1.4,1.4,2.3,2.5,3.3v11.9h-21V10.6c1.1-0.7,2.1-1.5,2.6-2.8C4.7,5.8,4.5,3.6,4.7,1.5 M12.7,9.4c-0.9,0.4-1.3,1.3-1.3,2.2
		c0,1.3-0.1,2.6,0.1,3.9c0.7,2,4.2,1.9,4.7-0.2c0.2-1.4,0.1-2.9,0-4.4C16,9.3,14,8.9,12.7,9.4 M7.7,10.1c0,0.2,0,0.8,0,1
		c0.2,0,0.7,0,0.9,0c0,1.9,0,3.6,0,5.5c0.6,0,1.2,0,1.8,0c0-2.4,0-4.9,0-7.5c-0.3,0-0.9,0-1.3,0C8.6,9.7,8.2,10,7.7,10.1 M3.5,19.5
		c-0.6,0.3-0.4,1.4,0.4,1.3c5.3,0,10.5,0,15.8,0c0.5,0.1,1-0.1,1-0.7c0.1-0.8-0.8-0.7-1.4-0.7C14,19.3,8.8,19.2,3.5,19.5z" />
    <path class="st0" d="M13.4,10.7c0.5-0.6,1.3-0.1,1.2,0.6c0,1.3,0.2,2.7-0.1,4.1c-0.4,0.7-1.3,0.2-1.2-0.5
		C13.3,13.5,13.1,12,13.4,10.7z" />
</g>
</svg>
