<?xml version="1.0" encoding="utf-8"?>
<svg version="1.0" id="Layer_1" xmlns="http://www.w3.org/2000/svg" x="0px" y="0px" viewBox="0 0 24 24"
	style="enable-background:new 0 0 24 24;" xml:space="preserve">
<path class="st0" d="M9,1.5h6.2c0.1,1.1,0.1,2.1,0,3.1C13,4.8,11,4.8,9,4.6C8.9,3.6,8.9,2.6,9,1.5z"/>
<path class="st0" d="M1.5,4.6c0.2-0.9,1.1-1.9,2.1-1.9c1.4-0.1,2.8,0,4.2,0c0,0.6,0,1.2,0,1.8c2.8,0.1,5.6,0.1,8.3,0
	c0-0.6,0-1.2,0.1-1.8c1.5,0,3-0.1,4.5,0c0.9,0.1,1.5,0.9,1.8,1.8v14.9c-0.2,0.9-0.9,1.6-1.8,1.9H3.4c-0.9-0.1-1.6-0.9-1.9-1.8
	L1.5,4.6 M4.3,6.3c0,0.5,0,0.8,0,1.3c4.9,0.1,9.8,0.1,14.6,0c0-0.5,0-0.9,0-1.3C14.1,6.3,9.2,6.3,4.3,6.3 M7.1,9.1
	c0,0.5,0,0.9,0,1.3c4.2,0,8.4,0.1,12.5,0c0-0.5,0-0.8,0-1.3C15.5,9.1,11.3,9.1,7.1,9.1 M4.3,11.8c0,0.5,0,0.8,0,1.3
	c5.5,0.1,11,0.1,16.3,0c0-0.5,0-0.8,0-1.3C15.3,11.8,9.8,11.8,4.3,11.8 M15.1,15.8c-0.6,0.3-1.3,0.3-1.9,0.6
	c0.4,0.5,0.8,0.9,1.2,1.4c0,0.6-0.1,1.3-0.1,1.9c0.6-0.2,1.2-0.5,1.8-0.7c0.6,0.2,1.2,0.5,1.8,0.7c0-0.6-0.1-1.3-0.1-1.9
	c0.3-0.5,0.8-0.9,1.2-1.5c-0.6-0.1-1.2-0.2-1.8-0.5c-0.5-0.5-0.7-1.1-1.2-1.6C15.9,14.8,15.6,15.3,15.1,15.8z"/>
</svg>
