<?xml version="1.0" encoding="utf-8"?>
<svg version="1.0" id="Layer_1" xmlns="http://www.w3.org/2000/svg" x="0px" y="0px" viewBox="0 0 60 59"
	style="enable-background:new 0 0 60 59;" xml:space="preserve">
<path class="st0" d="M29,0h1.4C38,4.4,44.8,10.1,52,15c2.8,2.2,6.5,3.7,8,7.2v3.6c-9-6.6-18.1-13.1-27.2-19.6
	c-1.6-1.3-3.9-1.6-5.6-0.2C18.1,12.5,9,19.1,0,25.8v-3.5c0.9-3,3.9-4.3,6.2-6.1C13.9,10.9,21.1,4.9,29,0z"/>
<path class="st0" d="M27.2,5.7c1.6-1.5,4-1.2,5.6,0.2c7.8,5.8,15.5,11.8,23.3,17.6c0,8.7,0,17.5,0,26.3c0.2,2.3-1.6,4.6-4,4.4
	c-4.7,0.2-9.3,0-14,0.1c0-6,0-12,0-18c-5.3,0-10.7,0-16,0c0,6,0,12,0,18c-4.6-0.1-9.3,0.1-13.9-0.1c-2.4,0.2-4.3-2.2-4-4.5
	C4,41,4,32.2,4,23.5C11.7,17.6,19.4,11.6,27.2,5.7z"/>
</svg>
