<?xml version="1.0" encoding="utf-8"?>
<svg version="1.0" id="Layer_1" xmlns="http://www.w3.org/2000/svg" x="0px" y="0px" viewBox="0 0 24 24"
	style="enable-background:new 0 0 24 24;" xml:space="preserve">
<g>
	<path class="st0" d="M11.6,1.5h0.6c1,0.2,1.7,1.2,2,2.2c-1.5-0.2-3-0.2-4.4-0.1C10,2.7,10.5,1.7,11.6,1.5z"/>
	<path class="st0" d="M6.7,6.5c2.2-2.8,6.5-3,9.4-1.3c3.1,2.1,3.5,6.2,3.4,9.7c0.8,0.5,1.7,1,2.4,1.5v1.3c-6.5,0.1-13.2,0.1-19.8,0
		v-1.3c0.8-0.6,1.6-1,2.4-1.6C4.9,12,5,9,6.7,6.5 M6.7,13.9c0,0.2-0.1,0.7-0.1,0.8c2.1,0.1,4.3-0.7,6.4-0.5c1.7,0,3.4,0.6,5,0.5
		c0-0.2-0.1-0.6-0.2-0.8C14.3,12.9,10.4,12.9,6.7,13.9z"/>
	<path class="st0" d="M8.4,18.8c2.3,0,4.8,0,7.1,0c0,1.9-1.6,3.7-3.6,3.7C10.2,22.6,8.4,20.7,8.4,18.8z"/>
</g>
</svg>
