<svg
    xmlns="http://www.w3.org/2000/svg"
    viewBox="0 0 76 75"
    id="vector">
    <path
        id="path"
        d="M 21.6 16.64 C 27.78 12.03 35.83 13.04 43.06 13.04 C 50.22 13.03 57.2 17.18 60.54 23.52 C 63.34 28.65 63.5 34.85 62.34 40.47 C 60.3 49.18 51.84 55.69 42.91 55.56 C 38.96 56.1 34.39 54.35 31.01 57.03 C 28.35 58.76 25.68 60.48 23 62.18 C 23 59.11 23 56.03 22.99 52.96 C 10.12 45.75 9.45 24.83 21.6 16.64 M 23.2 19.17 C 15.8 24.2 14.27 34.75 17.54 42.62 C 19.12 46.51 22.58 49.09 26 51.27 C 26 53.08 26 54.89 26.01 56.7 C 28.23 55.35 30.29 53.67 32.69 52.65 C 39.34 52.26 46.77 53.81 52.56 49.6 C 59.82 44.87 61.54 34.92 58.91 27.12 C 56.58 20.62 49.99 16 43.08 16.04 C 36.42 16.16 28.92 14.87 23.2 19.17 Z"
        fill="#ffffff"/>
    <path
        id="path_3"
        d="M 37.19 24.18 C 38.36 23.53 40.13 24.61 39.94 25.98 C 40.06 31.32 40.05 36.67 39.94 42.01 C 40.22 44.53 35.88 44.61 36.07 42.09 C 35.99 36.46 35.83 30.79 36.16 25.16 C 36.42 24.92 36.93 24.42 37.19 24.18 Z"
        fill="#ffffff"/>
    <path
        id="path_4"
        d="M 23.16 26.14 C 24.4 25.64 26.14 26.53 25.93 27.99 C 26.06 32 26.06 36.02 25.93 40.03 C 26.15 42.12 22.89 42.73 22.15 40.82 C 21.88 36.28 21.88 31.7 22.16 27.16 C 22.41 26.91 22.91 26.4 23.16 26.14 Z"
        fill="#ffffff"/>
    <path
        id="path_5"
        d="M 44.23 26.17 C 45.4 25.53 47.16 26.64 46.94 28.01 C 47.01 32.62 47.17 37.26 46.83 41.87 C 46.04 43.69 42.91 43.14 43.07 41.07 C 42.98 36.45 42.85 31.8 43.15 27.19 C 43.42 26.93 43.96 26.42 44.23 26.17 Z"
        fill="#ffffff"/>
    <path
        id="path_6"
        d="M 30.19 28.1 C 31.33 27.82 32.21 28.16 32.83 29.13 C 33.13 32.36 33.13 35.63 32.83 38.87 C 32.11 40.37 29.83 40.36 29.15 38.82 C 28.88 35.6 28.87 32.35 29.17 29.13 C 29.42 28.87 29.94 28.36 30.19 28.1 Z"
        fill="#ffffff"/>
    <path
        id="path_7"
        d="M 51.14 28.11 C 52.43 27.69 54.09 28.48 53.93 30 C 54.06 32.95 54.15 35.93 53.83 38.88 C 52.63 41.2 49.25 39.48 50.01 37.09 C 50.4 34.19 48.89 30.37 51.14 28.11 Z"
        fill="#ffffff"/>
</svg>
