<svg
    xmlns="http://www.w3.org/2000/svg"
    viewBox="0 0 512 512"
    id="vector">
    <path
        id="path_1"
        d="M 245.61 0 L 265.39 0 C 298.4 1.57 331.26 8.85 361.31 22.73 C 414.86 46.82 459.43 90.01 485.48 142.61 C 501.63 174.88 510.33 210.61 512 246.6 L 512 265.39 C 510.96 282.72 508.89 300.02 504.67 316.88 C 494.98 356.58 475.46 393.8 448.5 424.49 C 413.79 464.28 366.52 493 315.1 505.1 C 299.13 509.03 282.76 510.84 266.39 512 L 246.61 512 C 209.87 510.3 173.41 501.23 140.62 484.45 C 84.29 456.02 39.24 406.14 16.78 347.16 C 6.77 321.39 1.58 293.95 0 266.39 L 0 246.6 C 0.69 237.79 1.19 228.96 2.5 220.22 C 8.61 176.22 26.6 133.95 54 99 C 83.84 60.59 124.77 30.88 170.63 14.65 C 194.7 5.96 220.11 1.51 245.61 0 M 168.76 152.02 C 162.97 157.33 157.34 162.97 152.02 168.75 C 149.04 170.75 148.89 174.93 149.9 178.04 C 150.56 179.35 151.21 180.69 152.26 181.74 C 176.62 206.19 201.12 230.5 225.42 255.01 C 225.42 255.5 225.42 256.49 225.42 256.99 C 201.12 281.5 176.61 305.81 152.25 330.26 C 151.21 331.3 150.56 332.65 149.9 333.95 C 148.88 337.07 149.05 341.24 152.02 343.25 C 155.11 347.03 158.9 350.19 162.25 353.75 C 164.85 356.13 166.96 359.24 170.28 360.7 C 173.75 362.78 178.8 362.75 181.75 359.75 C 206.19 335.37 230.5 310.88 255.01 286.58 C 255.5 286.58 256.5 286.58 256.99 286.58 C 280.49 309.89 303.83 333.36 327.24 356.76 C 329.65 359.17 332.2 362.43 336.02 362.06 C 343.01 362.48 347.18 355.96 351.75 351.75 C 355.96 347.18 362.49 343.01 362.06 336.01 C 362.42 332.19 359.16 329.65 356.76 327.24 C 333.36 303.83 309.89 280.5 286.58 256.99 C 286.58 256.5 286.58 255.5 286.58 255.01 C 310.88 230.5 335.38 206.18 359.75 181.75 C 364.11 177.33 361.91 170.02 357.77 166.24 C 352.85 161.58 348.36 156.44 343.25 152.02 C 341.24 149.05 337.07 148.88 333.96 149.9 C 330.55 151.28 328.32 154.29 325.75 156.75 C 302.82 179.63 280 202.62 256.99 225.42 C 256.49 225.42 255.5 225.42 255.01 225.42 C 230.49 201.12 206.19 176.61 181.74 152.25 C 180.69 151.21 179.34 150.56 178.04 149.9 C 174.93 148.89 170.75 149.04 168.76 152.02 Z"
        fill="#000000"
        stroke-width="1"/>
    <path
        id="path_2"
        d="M 168.76 152.02 C 171.57 150.29 174.76 149.63 178.04 149.9 C 179.34 150.56 180.69 151.21 181.74 152.25 C 206.19 176.61 230.49 201.12 255.01 225.42 C 255.66 226.62 256.32 226.62 256.99 225.42 C 280 202.62 302.82 179.63 325.75 156.75 C 328.32 154.29 330.55 151.28 333.96 149.9 C 337.23 149.63 340.43 150.29 343.25 152.02 C 348.36 156.44 352.85 161.58 357.77 166.24 C 361.91 170.02 364.11 177.33 359.75 181.75 C 335.38 206.18 310.88 230.5 286.58 255.01 C 285.37 255.67 285.37 256.33 286.58 256.99 C 309.89 280.5 333.36 303.83 356.76 327.24 C 359.16 329.65 362.42 332.19 362.06 336.01 C 362.49 343.01 355.96 347.18 351.75 351.75 C 347.18 355.96 343.01 362.48 336.02 362.06 C 332.2 362.43 329.65 359.17 327.24 356.76 C 303.83 333.36 280.49 309.89 256.99 286.58 C 256.33 285.37 255.67 285.37 255.01 286.58 C 230.5 310.88 206.19 335.37 181.75 359.75 C 178.8 362.75 173.75 362.78 170.28 360.7 C 166.96 359.24 164.85 356.13 162.25 353.75 C 158.9 350.19 155.11 347.03 152.02 343.25 C 150.29 340.43 149.63 337.23 149.9 333.95 C 150.56 332.65 151.21 331.3 152.25 330.26 C 176.61 305.81 201.12 281.5 225.42 256.99 C 226.63 256.32 226.63 255.66 225.42 255.01 C 201.12 230.5 176.62 206.19 152.26 181.74 C 151.21 180.69 150.56 179.35 149.9 178.04 C 149.63 174.76 150.29 171.57 152.02 168.75 C 157.34 162.97 162.97 157.33 168.76 152.02 Z"
        fill="#ffffff"
        stroke-width="1"/>
</svg>
