<svg
    xmlns="http://www.w3.org/2000/svg"
    viewBox="0 0 36 36"
    id="vector">
    <path
        id="path"
        d="M 16.98 0 L 18.86 0 C 23.1 0.79 27.41 2.32 30.48 5.49 C 33.66 8.55 35.17 12.85 36 17.08 L 36 18.85 C 35.09 27.76 27.79 35.06 18.88 36 L 17.16 36 C 12.92 35.19 8.59 33.69 5.53 30.5 C 2.36 27.47 0.85 23.19 0 18.98 L 0 17.1 C 0.94 8.25 8.15 1.03 16.98 0 M 5.3 9.35 C 5.89 9.34 7.06 9.34 7.64 9.33 C 7.75 11.2 7.88 13.07 8.01 14.94 C 6.77 16.28 5.53 17.61 4.29 18.95 C 3.87 18.59 3.03 17.88 2.62 17.53 C 2.9 21.04 3.88 24.48 5.97 27.36 C 6.09 26.82 6.33 25.73 6.45 25.19 C 8.26 25.6 10.07 26.01 11.87 26.44 C 12.83 28.03 13.8 29.61 14.78 31.19 C 14.25 31.46 13.21 31.99 12.69 32.26 C 16.15 33.47 19.87 33.47 23.32 32.25 C 22.8 31.99 21.76 31.45 21.23 31.18 C 22.21 29.61 23.17 28.03 24.12 26.44 C 25.94 26.02 27.76 25.62 29.58 25.21 C 29.69 25.76 29.91 26.85 30.01 27.39 C 32.03 24.6 33.02 21.28 33.38 17.89 C 32.9 18.12 31.93 18.59 31.45 18.82 C 30.21 17.36 28.91 15.93 27.75 14.4 C 28.07 12.72 28.25 11.03 28.43 9.33 C 29 9.34 30.13 9.34 30.7 9.34 C 28.45 6.73 25.67 4.69 22.55 3.22 C 23.97 6.39 19.88 6.39 18.01 7.55 C 16.14 6.39 12.04 6.39 13.44 3.22 C 10.34 4.7 7.55 6.73 5.3 9.35 Z"
        fill="#ffffff"
        stroke-width="1"/>
    <path
        id="path_1"
        d="M 11.95 16.54 C 13.98 15.07 16 13.61 18 12.11 C 20 13.6 22.01 15.06 24.04 16.51 C 23.45 18.98 22.67 21.39 21.9 23.8 C 19.3 23.88 16.7 23.88 14.1 23.8 C 13.34 21.39 12.56 18.99 11.95 16.54 Z"
        fill="#ffffff"
        stroke-width="1"/>
</svg>
