<svg
    xmlns="http://www.w3.org/2000/svg"
    viewBox="0 0 50 9"
    id="vector">
    <path
        id="path"
        d="M 2.8 0.4 C 3.6 0.4 4.4 0.4 5.2 0.4 C 5 1.7 4.9 3 4.8 4.3 C 5.3 3 5.8 1.8 6.3 0.5 C 7 0.5 7.7 0.5 8.4 0.5 C 8.2 1.7 8 3 8 4.3 C 8.5 3 9 1.7 9.4 0.5 C 10.2 0.5 11 0.5 11.8 0.5 C 10.7 3.2 9.5 5.8 8.3 8.4 C 7.5 8.4 6.7 8.4 5.9 8.4 C 6.1 7 6.2 5.7 6.3 4.3 C 5.8 5.7 5.2 7 4.7 8.4 C 3.9 8.4 3.1 8.4 2.3 8.4 C 2.4 5.7 2.6 3.1 2.8 0.4 Z"
        fill="#eac25f"/>
    <path
        id="path_1"
        d="M 10.6 8.4 C 11.3 5.7 11.9 3.1 12.6 0.5 C 13.4 0.5 14.2 0.5 15 0.5 C 14.3 3.2 13.7 5.8 12.9 8.5 C 12.1 8.4 11.3 8.4 10.6 8.4 Z"
        fill="#eac25f"/>
    <path
        id="path_2"
        d="M 14.1 8.4 C 14.8 5.8 15.4 3.1 16.1 0.5 C 16.9 0.5 17.7 0.5 18.5 0.5 C 19.1 1.8 19.5 3.1 20.1 4.5 C 20.6 3.2 20.9 1.9 21.2 0.6 C 22 0.6 22.8 0.6 23.5 0.6 C 22.9 3.3 22.2 5.9 21.5 8.5 C 20.7 8.5 19.9 8.5 19 8.5 C 18.5 7.2 18.1 5.9 17.4 4.7 C 17 6 16.7 7.3 16.4 8.5 C 15.7 8.4 14.9 8.4 14.1 8.4 Z"
        fill="#eac25f"/>
    <path
        id="path_3"
        d="M 22.7 8.4 C 23.3 5.7 24 3.1 24.7 0.5 C 25.5 0.5 26.3 0.5 27.2 0.5 C 27.7 1.8 28.2 3.1 28.7 4.4 C 29.2 3.1 29.5 1.8 29.8 0.4 C 30.6 0.4 31.4 0.4 32.1 0.4 C 31.4 3 30.8 5.7 30.1 8.3 C 29.3 8.3 28.5 8.3 27.7 8.3 C 27.1 7 26.6 5.7 26.1 4.4 C 25.6 5.7 25.3 7 25 8.3 C 24.3 8.4 23.5 8.4 22.7 8.4 Z"
        fill="#eac25f"/>
    <path
        id="path_4"
        d="M 33.1 0.5 C 35.5 0.5 38 0.5 40.4 0.5 C 40.2 1.2 40.1 1.9 39.9 2.6 C 38.2 2.6 36.6 2.5 34.9 2.6 L 34.6 3.4 C 36.1 3.5 37.6 3.3 39.1 3.5 C 39.2 4.1 38.9 4.8 38.8 5.4 C 37.3 5.4 35.8 5.3 34.2 5.4 C 34.1 5.6 34 6.1 33.9 6.3 C 35.6 6.3 37.2 6.3 38.9 6.3 C 38.7 7 38.6 7.7 38.4 8.4 C 35.9 8.4 33.5 8.4 31 8.4 C 31.8 5.7 32.5 3.1 33.1 0.5 Z"
        fill="#eac25f"/>
    <path
        id="path_5"
        d="M 41.7 0.5 C 43.7 0.5 45.7 0.4 47.6 0.6 C 48.2 0.6 48.8 1.2 48.7 1.8 C 48.6 3 48.2 4.1 47.3 4.9 C 47.4 5.1 47.7 5.4 47.8 5.5 C 47.6 6.5 47.4 7.5 47.1 8.4 C 46.3 8.4 45.6 8.4 44.8 8.4 C 45 7.6 45.2 6.7 45.3 5.8 C 44.5 5.8 43.6 5.8 42.8 5.8 C 42.6 6.7 42.3 7.5 42.1 8.4 C 41.3 8.4 40.5 8.4 39.7 8.4 C 40.4 5.8 41 3.1 41.7 0.5 M 43.6 2.5 C 43.5 3 43.4 3.4 43.3 3.9 C 44.2 3.9 45 3.9 45.9 3.8 C 45.9 3.3 46 2.9 46 2.4 C 45.2 2.4 44.4 2.4 43.6 2.5 Z"
        fill="#eac25f"/>
</svg>
