<svg
    xmlns="http://www.w3.org/2000/svg"
    viewBox="0 0 81 30"
    id="vector">
    <path
        id="path"
        d="M 0 0 L 81 0 L 81 30 L 0 30 L 0 0 M 28.34 6.89 C 28.47 11.68 28.46 16.46 28.35 21.24 C 31.72 21.2 35.08 21.2 38.45 21.27 C 38.45 20.51 38.44 19.74 38.44 18.98 C 35.91 19.03 33.39 19.04 30.86 19.03 C 30.86 14.98 30.82 10.93 30.93 6.89 C 30.28 6.89 28.99 6.89 28.34 6.89 M 39.86 6.9 C 39.97 11.67 39.96 16.44 39.86 21.21 C 40.5 21.21 41.79 21.22 42.43 21.22 C 42.34 16.44 42.33 11.67 42.43 6.89 C 41.79 6.89 40.5 6.89 39.86 6.9 M 43.77 6.89 C 45.59 11.65 47.35 16.43 49.1 21.22 C 49.84 21.22 51.33 21.21 52.08 21.21 C 53.75 16.39 55.57 11.63 57.36 6.85 C 56.64 6.89 55.18 6.97 54.46 7.01 C 53.31 11.05 51.84 14.98 50.57 18.98 C 49.26 14.95 47.8 10.98 46.63 6.91 C 45.92 6.9 44.48 6.89 43.77 6.89 M 58.86 6.87 C 58.97 11.66 58.96 16.45 58.86 21.24 C 62.24 21.2 65.62 21.19 69 21.28 C 69 20.71 69 19.58 69 19.01 C 66.43 19.07 63.87 19.08 61.3 19.07 C 61.3 17.65 61.3 16.24 61.3 14.83 C 63.54 14.82 65.78 14.84 68.03 14.89 C 68.03 14.33 68.02 13.21 68.02 12.65 C 65.79 12.71 63.55 12.73 61.32 12.73 C 61.31 11.49 61.31 10.26 61.31 9.02 C 63.81 9 66.32 9.01 68.82 9.07 C 68.82 8.51 68.83 7.39 68.83 6.82 C 65.51 6.91 62.18 6.91 58.86 6.87 M 7.63 16.43 C 9.06 16.44 10.49 16.45 11.93 16.46 C 11.91 18.58 12.03 20.69 12.21 22.8 C 13.72 19.67 15.39 16.63 17.09 13.6 C 15.63 13.58 14.18 13.55 12.73 13.53 C 12.73 11.38 12.72 9.24 12.61 7.09 C 10.98 10.22 9.37 13.36 7.63 16.43 Z"
        fill="#8d1d25"
        stroke-width="1"/>
    <path
        id="path_1"
        d="M 28.34 6.89 C 28.99 6.89 30.28 6.89 30.93 6.89 C 30.82 10.93 30.86 14.98 30.86 19.03 C 33.39 19.04 35.91 19.03 38.44 18.98 C 38.44 19.74 38.45 20.51 38.45 21.27 C 35.08 21.2 31.72 21.2 28.35 21.24 C 28.46 16.46 28.47 11.68 28.34 6.89 Z"
        fill="#fffefe"
        stroke-width="1"/>
    <path
        id="path_2"
        d="M 39.86 6.9 C 40.5 6.89 41.79 6.89 42.43 6.89 C 42.33 11.67 42.34 16.44 42.43 21.22 C 41.79 21.22 40.5 21.21 39.86 21.21 C 39.96 16.44 39.97 11.67 39.86 6.9 Z"
        fill="#fffefe"
        stroke-width="1"/>
    <path
        id="path_3"
        d="M 43.77 6.89 C 44.48 6.89 45.92 6.9 46.63 6.91 C 47.8 10.98 49.26 14.95 50.57 18.98 C 51.84 14.98 53.31 11.05 54.46 7.01 C 55.18 6.97 56.64 6.89 57.36 6.85 C 55.57 11.63 53.75 16.39 52.08 21.21 C 51.33 21.21 49.84 21.22 49.1 21.22 C 47.35 16.43 45.59 11.65 43.77 6.89 Z"
        fill="#fffefe"
        stroke-width="1"/>
    <path
        id="path_4"
        d="M 58.86 6.87 C 62.18 6.91 65.51 6.91 68.83 6.82 C 68.83 7.39 68.82 8.51 68.82 9.07 C 66.32 9.01 63.81 9 61.31 9.02 C 61.31 10.26 61.31 11.49 61.32 12.73 C 63.55 12.73 65.79 12.71 68.02 12.65 C 68.02 13.21 68.03 14.33 68.03 14.89 C 65.78 14.84 63.54 14.82 61.3 14.83 C 61.3 16.24 61.3 17.65 61.3 19.07 C 63.87 19.08 66.43 19.07 69 19.01 C 69 19.58 69 20.71 69 21.28 C 65.62 21.19 62.24 21.2 58.86 21.24 C 58.96 16.45 58.97 11.66 58.86 6.87 Z"
        fill="#fffefe"
        stroke-width="1"/>
    <path
        id="path_5"
        d="M 7.63 16.43 C 9.37 13.36 10.98 10.22 12.61 7.09 C 12.72 9.24 12.73 11.38 12.73 13.53 C 14.18 13.55 15.63 13.58 17.09 13.6 C 15.39 16.63 13.72 19.67 12.21 22.8 C 12.03 20.69 11.91 18.58 11.93 16.46 C 10.49 16.45 9.06 16.44 7.63 16.43 Z"
        fill="#fffefe"
        stroke-width="1"/>
</svg>
