<svg
    xmlns="http://www.w3.org/2000/svg"
    viewBox="0 0 45 36"
    id="vector">
    <path
        id="path"
        d="M 1.71 0 L 19.33 0 C 21.54 2.09 20.95 5.23 21.01 7.94 C 20.95 15.98 21.06 24.01 20.97 32.04 C 21.1 33.54 20.27 34.81 19.5 36 L 1.62 36 C 1.9 34.76 1.36 34.15 0 34.16 L 0 1.73 C 1.36 1.84 1.93 1.26 1.71 0 M 6.45 11.48 C 7.46 11.51 9.47 11.55 10.48 11.58 C 10.26 16.32 10.51 21.07 10.3 25.82 C 10.87 25.78 12.01 25.72 12.57 25.69 C 12.38 20.56 12.37 15.43 12.59 10.31 C 10.56 10.67 7.86 9.53 6.45 11.48 Z"
        fill="#ffffff"
        stroke-width="1"/>
    <path
        id="path_1"
        d="M 25.5 0 L 43.38 0 C 43.1 1.24 43.63 1.85 45 1.84 L 45 34.27 C 43.64 34.16 43.07 34.74 43.29 36 L 25.67 36 C 24.76 34.86 23.85 33.59 24.02 32.04 C 23.99 22.68 23.98 13.32 24.02 3.96 C 23.9 2.47 24.73 1.2 25.5 0 M 28.78 13.56 C 27.96 17.7 27.76 22.63 31.29 25.63 C 33.42 25.6 35.56 25.6 37.69 25.63 C 41.93 21.48 42.2 12.68 36.46 9.71 C 33.39 8.92 30.07 10.72 28.78 13.56 Z"
        fill="#ffffff"
        stroke-width="1"/>
    <path
        id="path_2"
        d="M 31.79 11.51 C 33.59 11.49 35.4 11.49 37.21 11.52 C 38.7 15.72 39.56 20.9 36.3 24.5 C 35.43 24.48 33.71 24.45 32.84 24.43 C 32.1 23.62 31.35 22.81 30.6 22.01 C 30.34 18.45 30.38 14.85 31.79 11.51 Z"
        fill="#ffffff"
        stroke-width="1"/>
</svg>
