<svg
    xmlns="http://www.w3.org/2000/svg"
    viewBox="0 0 138 212"
    id="vector">
    <path
        id="path"
        d="M 61.07 2.07 C 78.4 -3.43 91.96 11.8 106.31 18.7 C 120.24 25.6 138.22 35.41 135.03 53.99 C 134.87 91.3 135.21 128.62 134.87 165.91 C 131.47 182.28 114.16 186.79 101.98 194.94 C 92.36 199.44 84.22 207.44 73.6 209.55 C 60.36 212.69 49.86 202.62 39.06 196.93 C 25.91 187.81 4.45 182.7 2.97 164.01 C 3.02 125 3.02 85.99 2.97 46.98 C 3.54 32.63 18.12 25.92 28.97 19.94 C 39.96 14.51 49.74 6.74 61.07 2.07 M 62 3.91 C 52.21 6.64 43.33 14.01 34.95 19.07 C 28.12 21.34 21.88 25.81 16.03 29.95 C 10.03 31.95 5.96 38.96 4.96 44.96 L 4.01 45.04 C 3.98 85.35 3.99 125.67 4.01 165.98 L 4.97 166.02 C 8.42 183.08 28.51 187.23 40.98 196.05 C 48.68 199.92 55.66 206.8 64.46 207.69 C 69.96 208.2 78.22 209.06 82.1 203.98 C 87.66 201.73 93.47 198.53 97.99 194.78 C 109.02 188.47 123.79 184.37 129.64 172.41 C 131.66 170.6 133.07 167.79 133.02 165.04 L 133.95 164.95 C 134.08 125.31 133.98 85.67 133.99 46.03 L 133.02 45.97 C 131.78 39.09 127.43 32.19 120.96 29.03 C 106.66 20.63 92.24 12.42 77.91 4.12 C 73.04 2.24 65.4 2.15 62 3.91 Z"
        fill="#070403"
        fill-opacity="0.31"
        stroke-opacity="0.31"/>
    <path
        id="path_1"
        d="M 62 3.91 C 65.4 2.15 73.04 2.24 77.91 4.12 C 92.24 12.42 106.66 20.63 120.96 29.03 C 127.43 32.19 131.78 39.09 133.02 45.97 C 132.86 73.71 133.25 101.46 132.8 129.21 C 131.85 122.58 132.06 115.87 131.91 109.2 C 131.92 95.79 132.2 82.37 131.95 68.97 C 124.49 73.78 131.71 87.45 128.24 95.22 C 127.36 78.06 128.95 60.72 127.36 43.66 C 119.68 28.76 100.68 26.3 88.66 15.8 C 102.69 21.72 115.94 30 128.23 39.02 C 124.77 31.48 116.23 28.56 109.63 24.42 C 100.01 19.36 91.17 12.9 81.27 8.35 C 78.71 6.9 76.18 5.2 73.24 4.66 C 69.5 4.23 65.75 3.98 62 3.91 Z"
        fill="#714627"/>
    <path
        id="path_2"
        d="M 34.95 19.07 C 43.33 14.01 52.21 6.64 62 3.91 C 65.75 3.98 69.5 4.23 73.24 4.66 C 58.15 2.04 48.13 15.45 34.95 19.07 Z"
        fill="#9e6b42"
        fill-opacity="0.96"
        stroke-opacity="0.96"/>
    <path
        id="path_3"
        d="M 34.95 19.07 C 48.13 15.45 58.15 2.04 73.24 4.66 C 76.18 5.2 78.71 6.9 81.27 8.35 C 68.15 3.25 54.54 8.66 44.99 18.1 C 33.52 26.91 17.01 30.42 9.76 43.77 C 8.25 45.42 7.04 47.29 5.9 49.21 C 5.26 41.16 11.36 35.59 16.03 29.95 C 21.88 25.81 28.12 21.34 34.95 19.07 Z"
        fill="#daa878"/>
    <path
        id="path_4"
        d="M 44.99 18.1 C 54.54 8.66 68.15 3.25 81.27 8.35 C 91.17 12.9 100.01 19.36 109.63 24.42 C 116.23 28.56 124.77 31.48 128.23 39.02 C 115.94 30 102.69 21.72 88.66 15.8 C 81.23 11.74 73.77 6.28 64.81 8.13 C 57.98 9.26 52.91 14.82 46.75 17.62 C 46.31 17.74 45.43 17.98 44.99 18.1 Z"
        fill="#ab7c50"/>
    <path
        id="path_5"
        d="M 46.75 17.62 C 52.91 14.82 57.98 9.26 64.81 8.13 C 68.1 8.36 71.8 8.52 73.33 11.82 C 65.21 9.82 58.01 15.08 51.4 18.94 C 50.28 17.33 48.49 17.36 46.75 17.62 Z"
        fill="#332a26"/>
    <path
        id="path_6"
        d="M 64.81 8.13 C 73.77 6.28 81.23 11.74 88.66 15.8 C 100.68 26.3 119.68 28.76 127.36 43.66 C 128.95 60.72 127.36 78.06 128.24 95.22 C 128.18 95.92 128.06 97.31 128 98 C 127.26 98 125.76 98 125.01 98 C 124.92 80.1 125.48 62.11 123.69 44.28 C 120.82 38.41 114.75 35.38 109.22 32.57 C 97.56 25.69 85.98 18.66 74.1 12.18 L 73.33 11.82 C 71.8 8.52 68.1 8.36 64.81 8.13 Z"
        fill="#1a1210"/>
    <path
        id="path_7"
        d="M 9.99 110.96 C 10.97 111.37 11.96 111.77 12.95 112.16 C 13.02 119.66 12.96 127.17 13.15 134.68 C 14.06 145.2 10.76 156.51 14.36 166.67 C 20.54 177.23 33.81 179.84 43.12 186.9 C 51.41 190.57 58.25 197.76 67.29 199.39 C 65.01 201.85 61.76 200.52 58.94 200.02 C 47.43 193.77 36.2 187.04 24.74 180.7 C 11.83 176.01 6.42 162.17 8.92 149.19 C 9.02 144.89 9.13 140.58 9.33 136.29 C 11.06 127.98 9.54 119.37 9.99 110.96 Z"
        fill="#1a1210"/>
    <path
        id="path_8"
        d="M 51.4 18.94 C 58.01 15.08 65.21 9.82 73.33 11.82 L 74.1 12.18 C 71.37 12.93 69.48 14.92 68.81 17.65 C 65.97 18.74 63.04 19.77 60.64 21.71 C 56.77 23.75 52.95 25.9 49.09 27.97 C 48.49 25.86 47.85 23.75 47.11 21.69 C 48.53 20.76 49.98 19.86 51.4 18.94 Z"
        fill="#bb804d"/>
    <path
        id="path_9"
        d="M 74.1 12.18 C 85.98 18.66 97.56 25.69 109.22 32.57 C 107.27 34.29 105.96 37.65 102.37 35.58 C 90.71 30.54 80.53 22.58 68.81 17.65 C 69.48 14.92 71.37 12.93 74.1 12.18 Z"
        fill="#9b6237"/>
    <path
        id="path_10"
        d="M 46.75 17.62 C 48.49 17.36 50.28 17.33 51.4 18.94 C 49.98 19.86 48.53 20.76 47.11 21.69 C 36.36 30.11 19.53 32.53 13.5 45.87 C 12.82 51.9 13.01 57.97 12.96 64.03 C 11.96 63.72 10.94 63.44 9.93 63.18 C 10.01 79.11 10 95.04 9.99 110.96 C 9.54 119.37 11.06 127.98 9.33 136.29 C 8.75 123.6 9.13 110.89 8.95 98.2 C 9.54 80.07 7.96 61.83 9.76 43.77 C 17.01 30.42 33.52 26.91 44.99 18.1 C 45.43 17.98 46.31 17.74 46.75 17.62 Z"
        fill="#4e4139"/>
    <path
        id="path_11"
        d="M 60.64 21.71 C 63.04 19.77 65.97 18.74 68.81 17.65 C 80.53 22.58 90.71 30.54 102.37 35.58 C 105.96 37.65 107.27 34.29 109.22 32.57 C 114.75 35.38 120.82 38.41 123.69 44.28 C 125.48 62.11 124.92 80.1 125.01 98 C 125 111.94 124.94 125.89 125.05 139.83 C 124.34 147.9 126.33 156.37 124.31 164.27 C 124.21 162.51 124.02 158.98 123.92 157.21 C 123.99 146.55 124.11 135.89 123.89 125.23 C 124.01 114.2 124.09 103.17 123.93 92.14 C 121.13 79.7 130.58 61.2 118.12 52.72 C 117.88 64.1 117.93 75.48 118.07 86.86 C 118.03 97.24 117.91 107.62 118.03 118 C 117.04 117.6 116.06 117.21 115.07 116.83 C 115 114.29 114.92 111.76 114.83 109.23 C 115.07 88.53 115.11 67.81 114.92 47.11 C 101.76 38.29 87.58 31.14 73.99 23.04 C 71.28 21.1 66.98 20.06 64.47 22.8 C 63.4 23.26 62.33 23.7 61.25 24.14 C 61.1 23.53 60.79 22.32 60.64 21.71 Z"
        fill="#7a4b29"/>
    <path
        id="path_12"
        d="M 64.47 22.8 C 66.98 20.06 71.28 21.1 73.99 23.04 C 87.58 31.14 101.76 38.29 114.92 47.11 C 115.11 67.81 115.07 88.53 114.83 109.23 C 113.76 106.87 110.08 104.95 110.86 102.01 C 110.93 101.11 112.95 99.42 111.5 99.01 C 110.11 98.18 108.48 98.05 106.91 97.85 C 104.75 95.1 108.59 93.78 110.19 92.17 C 111.54 91.54 113.15 88.69 111.41 88.03 C 105.91 87.15 99.51 88.06 96.89 82.16 C 101.21 81.17 107.57 83.75 111.1 81.05 C 111.21 80.15 112.99 78.43 111.53 78 C 106.47 76.03 100.74 77.13 95.57 78.05 L 94.83 77.97 C 92.64 74.25 95.63 72.87 99.01 72.46 C 104.75 72.4 103.56 65.6 102.38 61.75 C 101.49 60.39 99.48 61.08 98.15 61.19 C 97.82 61.29 97.15 61.5 96.82 61.6 C 95.25 61.31 93.67 60.99 92.07 60.97 C 91.75 62.52 91.12 65.62 90.81 67.17 C 80.18 53.8 72.64 37.82 64.47 22.8 Z"
        fill="#1d1716"/>
    <path
        id="path_13"
        d="M 13.5 45.87 C 19.53 32.53 36.36 30.11 47.11 21.69 C 47.85 23.75 48.49 25.86 49.09 27.97 C 40.79 33.08 32.45 38.12 23.98 42.95 C 21.59 44.12 20.51 46.6 19.92 49.06 C 16.98 51.26 14.39 48.78 13.5 45.87 Z"
        fill="#e0a169"/>
    <path
        id="path_14"
        d="M 49.09 27.97 C 52.95 25.9 56.77 23.75 60.64 21.71 C 60.79 22.32 61.1 23.53 61.25 24.14 C 56.35 27.03 51.54 30.09 46.56 32.85 C 38.8 38.28 28.55 41.51 22.74 48.74 C 21.05 64.42 22.46 80.26 21.99 96 C 21.5 96 20.51 96 20.02 96 C 19.97 88.95 20 81.9 19.97 74.86 C 20.04 66.26 20.05 57.66 19.92 49.06 C 20.51 46.6 21.59 44.12 23.98 42.95 C 32.45 38.12 40.79 33.08 49.09 27.97 Z"
        fill="#95613a"/>
    <path
        id="path_15"
        d="M 61.25 24.14 C 62.33 23.7 63.4 23.26 64.47 22.8 C 72.64 37.82 80.18 53.8 90.81 67.17 C 91.12 65.62 91.75 62.52 92.07 60.97 C 92.09 63.83 92.13 69.55 92.16 72.4 C 92.46 70.36 94.37 65.44 95.01 69.98 C 97.4 76.51 96.48 64.08 96.82 61.6 C 97.15 61.5 97.82 61.29 98.15 61.19 C 98.02 62.8 97.91 64.41 97.94 66.02 C 98.21 67.63 98.75 70.85 99.01 72.46 C 95.63 72.87 92.64 74.25 94.83 77.97 C 95.09 79.02 95.5 80.02 96.04 80.96 C 96.25 81.26 96.68 81.86 96.89 82.16 C 99.51 88.06 105.91 87.15 111.41 88.03 C 106.23 88.43 100.7 86.88 95.71 88.75 C 94.07 94.23 105.74 91.48 110.19 92.17 C 108.59 93.78 104.75 95.1 106.91 97.85 C 102.99 97.72 99.18 98.11 95.48 99.01 C 94.25 104.83 106.3 101.23 110.86 102.01 C 110.08 104.95 113.76 106.87 114.83 109.23 C 114.92 111.76 115 114.29 115.07 116.83 C 114.98 127.65 115.06 138.48 114.84 149.3 C 105.59 136.08 98.15 121.63 89.87 107.8 C 90.95 100.91 89.73 94.47 84.26 89.75 C 82.5 88.43 84.05 87.26 85.19 86.19 C 88.1 83.36 89.48 78.53 88.47 74.6 C 87.36 69.24 84.68 63.33 79.18 61.43 C 74.81 59.27 69.9 58.95 65.14 58.3 C 56.94 58.33 55.64 47.77 51.43 42.63 C 49.62 39.47 47.36 36.48 46.56 32.85 C 51.54 30.09 56.35 27.03 61.25 24.14 Z"
        fill="#2c2625"/>
    <path
        id="path_16"
        d="M 4.96 44.96 C 5.96 38.96 10.03 31.95 16.03 29.95 C 11.36 35.59 5.26 41.16 5.9 49.21 C 7.04 47.29 8.25 45.42 9.76 43.77 C 7.96 61.83 9.54 80.07 8.95 98.2 C 6.96 96.76 3.68 95.92 6.05 91.98 C 5.23 80.59 7.28 68.99 5.33 57.71 C 5.13 53.46 5.01 49.21 4.96 44.96 Z"
        fill="#ba7c49"/>
    <path
        id="path_17"
        d="M 22.74 48.74 C 28.55 41.51 38.8 38.28 46.56 32.85 C 47.36 36.48 49.62 39.47 51.43 42.63 C 55.64 47.77 56.94 58.33 65.14 58.3 C 59.35 59.72 52.74 61.07 48.75 65.91 C 45.05 69.17 53.13 73.65 55.28 76.89 C 60.25 74.7 65.47 71.2 71.05 73.83 C 72.45 76.22 75.26 79.04 72.72 81.69 C 70.2 86.44 62.43 82.98 60.02 86.06 C 59.88 89.3 59.78 92.57 60.12 95.81 C 64.12 96.4 69.51 95.12 72.74 98.31 C 75.18 101.06 72.38 104.15 71.55 106.96 C 65.52 109.84 60.1 106.82 55.06 103.74 C 53.63 102.32 52.35 104.4 51.13 105.08 C 48.27 99.96 45.69 94.68 42.54 89.74 C 38.87 86.07 31.9 88.7 26.79 87.78 C 31.57 85.6 40.41 90.15 42.03 83.07 C 37.42 80.62 31.56 83.39 26.78 81.26 C 30.85 79.48 40.79 83.94 42.13 79 C 41.08 76.11 37.61 77.08 35.1 76.88 C 30.81 70.7 28.45 63.16 23.15 57.73 C 23.01 54.73 22.84 51.74 22.74 48.74 Z"
        fill="#383331"/>
    <path
        id="path_18"
        d="M 4.01 45.04 L 4.96 44.96 C 5.01 49.21 5.13 53.46 5.33 57.71 C 5.06 71.37 4.51 85.07 5.29 98.72 C 4.66 121.15 5.18 143.59 4.97 166.02 L 4.01 165.98 C 3.99 125.67 3.98 85.35 4.01 45.04 Z"
        fill="#5d3a21"
        fill-opacity="0.84"
        stroke-opacity="0.84"/>
    <path
        id="path_19"
        d="M 12.96 64.03 C 13.01 57.97 12.82 51.9 13.5 45.87 C 14.39 48.78 16.98 51.26 19.92 49.06 C 20.05 57.66 20.04 66.26 19.97 74.86 C 18.6 79.06 15.11 77.7 13.04 74.87 C 12.99 71.25 13.03 67.64 12.96 64.03 Z"
        fill="#cc8c55"/>
    <path
        id="path_20"
        d="M 133.02 45.97 L 133.99 46.03 C 133.98 85.67 134.08 125.31 133.95 164.95 L 133.02 165.04 C 132.83 153.09 133.33 141.14 132.8 129.21 C 133.25 101.46 132.86 73.71 133.02 45.97 Z"
        fill="#3d2616"
        fill-opacity="0.67"
        stroke-opacity="0.67"/>
    <path
        id="path_21"
        d="M 2.03 47.04 L 2.97 46.98 C 3.02 85.99 3.02 125 2.97 164.01 L 2.01 163.99 C 2.01 125.01 1.96 86.02 2.03 47.04 Z"
        fill="#000000"
        fill-opacity="0.17"
        stroke-opacity="0.17"/>
    <path
        id="path_22"
        d="M 21.99 96 C 22.46 80.26 21.05 64.42 22.74 48.74 C 22.84 51.74 23.01 54.73 23.15 57.73 C 22.95 70.77 22.92 83.8 23.05 96.84 C 22.78 118.95 23.34 141.07 22.79 163.18 C 20.91 140.89 22.55 118.38 21.99 96 Z"
        fill="#533724"/>
    <path
        id="path_23"
        d="M 118.12 52.72 C 130.58 61.2 121.13 79.7 123.93 92.14 C 121.98 90.37 120.01 88.63 118.07 86.86 C 117.93 75.48 117.88 64.1 118.12 52.72 Z"
        fill="#965c31"/>
    <path
        id="path_24"
        d="M 5.33 57.71 C 7.28 68.99 5.23 80.59 6.05 91.98 C 3.68 95.92 6.96 96.76 8.95 98.2 C 9.13 110.89 8.75 123.6 9.33 136.29 C 9.13 140.58 9.02 144.89 8.92 149.19 C 6.94 147.76 3.69 146.88 6.05 142.98 C 5.15 128.27 7.37 113.31 5.29 98.72 C 4.51 85.07 5.06 71.37 5.33 57.71 Z"
        fill="#955d33"/>
    <path
        id="path_25"
        d="M 23.15 57.73 C 28.45 63.16 30.81 70.7 35.1 76.88 C 32.04 77.4 27.39 75.43 25.81 79.01 C 26.05 79.57 26.53 80.7 26.78 81.26 C 31.56 83.39 37.42 80.62 42.03 83.07 C 40.41 90.15 31.57 85.6 26.79 87.78 C 26.51 88.3 25.94 89.34 25.66 89.86 C 29.06 93.8 38.75 93.8 42.54 89.74 C 45.69 94.68 48.27 99.96 51.13 105.08 C 49.03 107.4 46.67 109.51 44.8 112.04 C 50.23 120.19 60.38 123.62 69.87 122.88 C 75.1 123.69 67.09 124.94 65.21 124.16 C 63.25 127.8 65.4 133.07 63.37 137.19 C 62.45 134.89 62.45 131.02 58.96 131.98 C 56.74 135.97 58.88 143.51 59.18 148.86 C 63.46 150.38 60.21 143.14 61.23 140.73 C 63.73 143.16 62.38 149.61 66.8 148.95 C 67.7 144.28 67.96 139.52 68.23 134.79 C 68.64 135.13 69.45 135.82 69.86 136.17 C 69.9 136.61 69.97 137.5 70 137.94 C 70.02 140.7 70.05 146.22 70.07 148.99 C 74.74 150.42 72.73 144.77 73.22 141.76 C 74.28 144.14 74.91 146.69 76.09 149.01 C 80.62 152.13 80.81 158.7 84.31 162.84 C 84.71 165.78 82.48 166.17 80.1 166.28 C 80.93 170.75 83.95 172.44 88.28 172.09 C 92.3 172.3 90.84 176.32 89.97 178.89 C 84.82 181.7 79.84 184.8 74.83 187.84 L 74.08 188.15 C 75.19 184.55 72.96 181.22 72.04 177.86 C 75.78 180.82 72.42 175.12 72.32 173.15 C 74.15 170.9 82.4 167.45 72.13 168.91 C 69.57 168.4 70.24 164.47 68.42 162.83 C 67.29 165.15 67.94 169.82 64.16 168.97 C 62.81 161.54 58.16 154.4 53.11 148.98 C 59.23 149.57 55 140.09 56.04 136 C 57.69 130.79 51.29 130.79 52.97 136 C 52.94 138.97 52.99 141.97 52.96 144.94 C 51.68 144.53 50.39 144.16 49.09 143.82 C 49.35 141.82 49.66 139.82 49.91 137.82 C 50.21 135.85 50.61 133.9 50.86 131.92 C 47.14 131.13 46.35 135.17 46.14 138.15 C 46.84 134.2 46.57 131.04 42.33 131.99 C 42.21 122.86 33.49 116.06 30.6 107.57 C 31.19 104.4 28.76 103.47 27 102.05 C 30.92 100.44 41.03 104.98 42.03 99.99 C 40.93 94.78 30.11 99.18 25.65 99.04 C 24.78 98.31 23.91 97.58 23.05 96.84 C 22.92 83.8 22.95 70.77 23.15 57.73 Z"
        fill="#2e2826"/>
    <path
        id="path_26"
        d="M 65.14 58.3 C 69.9 58.95 74.81 59.27 79.18 61.43 C 68.66 59.44 58.02 59.69 48.75 65.91 C 52.74 61.07 59.35 59.72 65.14 58.3 Z"
        fill="#e7c19d"/>
    <path
        id="path_27"
        d="M 48.75 65.91 C 58.02 59.69 68.66 59.44 79.18 61.43 C 84.68 63.33 87.36 69.24 88.47 74.6 C 82.67 74.11 76.85 74.02 71.05 73.83 C 65.47 71.2 60.25 74.7 55.28 76.89 C 53.13 73.65 45.05 69.17 48.75 65.91 Z"
        fill="#df9f68"/>
    <path
        id="path_28"
        d="M 92.07 60.97 C 93.67 60.99 95.25 61.31 96.82 61.6 C 96.48 64.08 97.4 76.51 95.01 69.98 C 94.37 65.44 92.46 70.36 92.16 72.4 C 92.13 69.55 92.09 63.83 92.07 60.97 M 93.16 63.16 C 92.16 67.8 97.8 62.16 93.16 63.16 Z"
        fill="#b47f55"/>
    <path
        id="path_29"
        d="M 98.15 61.19 C 99.48 61.08 101.49 60.39 102.38 61.75 C 102.17 62.32 101.74 63.47 101.53 64.04 C 99.29 62.24 98.64 63.5 98.85 65.97 L 97.94 66.02 C 97.91 64.41 98.02 62.8 98.15 61.19 Z"
        fill="#dda97a"/>
    <path
        id="path_30"
        d="M 102.38 61.75 C 103.56 65.6 104.75 72.4 99.01 72.46 C 98.75 70.85 98.21 67.63 97.94 66.02 L 98.85 65.97 C 98 71.72 103.08 71.03 101.53 64.04 C 101.74 63.47 102.17 62.32 102.38 61.75 Z"
        fill="#a06b42"/>
    <path
        id="path_31"
        d="M 9.93 63.18 C 10.94 63.44 11.96 63.72 12.96 64.03 C 13.03 67.64 12.99 71.25 13.04 74.87 C 13.01 84.53 12.93 94.2 13.03 103.87 C 13.01 106.63 12.98 109.39 12.95 112.16 C 11.96 111.77 10.97 111.37 9.99 110.96 C 10 95.04 10.01 79.11 9.93 63.18 Z"
        fill="#302a29"/>
    <path
        id="path_32"
        d="M 93.16 63.16 C 97.8 62.16 92.16 67.8 93.16 63.16 Z"
        fill="#473224"/>
    <path
        id="path_33"
        d="M 98.85 65.97 C 98.64 63.5 99.29 62.24 101.53 64.04 C 103.08 71.03 98 71.72 98.85 65.97 Z"
        fill="#392a20"/>
    <path
        id="path_34"
        d="M 128.24 95.22 C 131.71 87.45 124.49 73.78 131.95 68.97 C 132.2 82.37 131.92 95.79 131.91 109.2 C 130.09 107.4 126.54 101.35 128.97 110.94 C 128.52 119.02 130.08 127.31 128.31 135.28 C 127.84 122.86 128 110.43 128 98 C 128.06 97.31 128.18 95.92 128.24 95.22 Z"
        fill="#915b32"/>
    <path
        id="path_35"
        d="M 71.05 73.83 C 76.85 74.02 82.67 74.11 88.47 74.6 C 89.48 78.53 88.1 83.36 85.19 86.19 C 76.8 86.04 68.41 85.88 60.02 86.06 C 62.43 82.98 70.2 86.44 72.72 81.69 C 75.26 79.04 72.45 76.22 71.05 73.83 Z"
        fill="#c38450"/>
    <path
        id="path_36"
        d="M 13.04 74.87 C 15.11 77.7 18.6 79.06 19.97 74.86 C 20 81.9 19.97 88.95 20.02 96 C 20 98.97 20.04 101.96 20 104.94 C 17.67 108.11 15.11 106.18 13.03 103.87 C 12.93 94.2 13.01 84.53 13.04 74.87 Z"
        fill="#b87945"/>
    <path
        id="path_37"
        d="M 25.81 79.01 C 27.39 75.43 32.04 77.4 35.1 76.88 C 37.61 77.08 41.08 76.11 42.13 79 C 36.69 79 31.25 78.99 25.81 79.01 Z"
        fill="#d2a780"/>
    <path
        id="path_38"
        d="M 95.57 78.05 C 100.74 77.13 106.47 76.03 111.53 78 C 106.29 79.29 100.82 79.21 95.57 78.05 Z"
        fill="#cca17b"/>
    <path
        id="path_39"
        d="M 94.83 77.97 L 95.57 78.05 C 100.82 79.21 106.29 79.29 111.53 78 C 112.99 78.43 111.21 80.15 111.1 81.05 C 106.07 81.03 101.06 81.08 96.04 80.96 C 95.5 80.02 95.09 79.02 94.83 77.97 Z"
        fill="#af7141"/>
    <path
        id="path_40"
        d="M 25.81 79.01 C 31.25 78.99 36.69 79 42.13 79 C 40.79 83.94 30.85 79.48 26.78 81.26 C 26.53 80.7 26.05 79.57 25.81 79.01 Z"
        fill="#b47240"/>
    <path
        id="path_41"
        d="M 96.04 80.96 C 101.06 81.08 106.07 81.03 111.1 81.05 C 107.57 83.75 101.21 81.17 96.89 82.16 C 96.68 81.86 96.25 81.26 96.04 80.96 Z"
        fill="#6b4327"/>
    <path
        id="path_42"
        d="M 60.02 86.06 C 68.41 85.88 76.8 86.04 85.19 86.19 C 84.05 87.26 82.5 88.43 84.26 89.75 C 89.73 94.47 90.95 100.91 89.87 107.8 C 87.06 116.54 78.51 121.45 69.87 122.88 C 60.38 123.62 50.23 120.19 44.8 112.04 C 46.67 109.51 49.03 107.4 51.13 105.08 C 52.35 104.4 53.63 102.32 55.06 103.74 C 57.42 109.27 68.58 113.18 71.55 106.96 C 72.38 104.15 75.18 101.06 72.74 98.31 C 69.51 95.12 64.12 96.4 60.12 95.81 C 59.78 92.57 59.88 89.3 60.02 86.06 Z"
        fill="#a96939"/>
    <path
        id="path_43"
        d="M 118.07 86.86 C 120.01 88.63 121.98 90.37 123.93 92.14 C 124.09 103.17 124.01 114.2 123.89 125.23 C 122.1 123.27 120.43 121.15 118.21 119.65 C 118.16 119.23 118.07 118.41 118.03 118 C 117.91 107.62 118.03 97.24 118.07 86.86 Z"
        fill="#af713f"/>
    <path
        id="path_44"
        d="M 25.66 89.86 C 25.94 89.34 26.51 88.3 26.79 87.78 C 31.9 88.7 38.87 86.07 42.54 89.74 C 36.96 89.24 31.11 88.02 25.66 89.86 Z"
        fill="#e5ba91"/>
    <path
        id="path_45"
        d="M 95.71 88.75 C 100.7 86.88 106.23 88.43 111.41 88.03 C 106.23 89.03 100.95 89.16 95.71 88.75 Z"
        fill="#edc298"/>
    <path
        id="path_46"
        d="M 111.41 88.03 C 113.15 88.69 111.54 91.54 110.19 92.17 C 105.74 91.48 94.07 94.23 95.71 88.75 C 100.95 89.16 106.23 89.03 111.41 88.03 Z"
        fill="#ac6f40"/>
    <path
        id="path_47"
        d="M 25.66 89.86 C 31.11 88.02 36.96 89.24 42.54 89.74 C 38.75 93.8 29.06 93.8 25.66 89.86 Z"
        fill="#b0703f"/>
    <path
        id="path_48"
        d="M 20.02 96 C 20.51 96 21.5 96 21.99 96 C 22.55 118.38 20.91 140.89 22.79 163.18 C 34.62 173.55 50.6 179.26 63.78 188.22 C 66.74 190.69 70.92 189.8 74.08 188.15 L 74.83 187.84 C 74.95 188.43 75.19 189.62 75.31 190.22 C 73.01 191.62 70.54 192.73 67.91 193.38 C 60.28 189.26 52.67 185.09 45.23 180.63 C 37.14 174.63 26.53 172.26 19.53 164.89 C 19.6 155.64 20.27 146.39 20.04 137.13 C 20.03 126.4 19.99 115.67 20 104.94 C 20.04 101.96 20 98.97 20.02 96 Z"
        fill="#794725"/>
    <path
        id="path_49"
        d="M 23.05 96.84 C 23.91 97.58 24.78 98.31 25.65 99.04 L 25.92 99.96 C 26.19 100.48 26.73 101.52 27 102.05 C 28.76 103.47 31.19 104.4 30.6 107.57 C 33.49 116.06 42.21 122.86 42.33 131.99 C 42.07 134.03 41.92 136.09 41.86 138.15 C 43.11 130.84 34.51 130.18 38.04 136.78 C 38.63 140.83 39.37 144.87 40.29 148.86 C 44.92 150.95 40.77 142.87 44.8 144.08 C 43.16 153.12 49.63 148.16 49.09 143.82 C 50.39 144.16 51.68 144.53 52.96 144.94 C 52.97 146.29 53.02 147.64 53.11 148.98 C 58.16 154.4 62.81 161.54 64.16 168.97 C 58.51 168.25 63.13 171.11 64.98 173.15 C 64.83 175.13 64.27 177.04 63.95 178.99 C 66.28 176.71 69.41 174.78 72.04 177.86 C 72.96 181.22 75.19 184.55 74.08 188.15 C 70.92 189.8 66.74 190.69 63.78 188.22 C 50.6 179.26 34.62 173.55 22.79 163.18 C 23.34 141.07 22.78 118.95 23.05 96.84 M 41.29 162.52 C 37.64 163.58 40.34 169.24 43.09 166.12 C 46.77 164.13 42.25 163.52 41.29 162.52 M 52.29 162.87 C 52.7 165.96 50.46 166.25 47.96 166.19 C 48.67 168.17 50.53 169.38 50.23 171.88 C 52.34 170.98 54.38 171.37 56.01 172.98 C 54.4 170.24 55.94 168.04 58.03 166.23 C 55.38 166.4 53.58 165.03 52.29 162.87 Z"
        fill="#1f1918"/>
    <path
        id="path_50"
        d="M 25.65 99.04 C 30.11 99.18 40.93 94.78 42.03 99.99 C 36.66 99.98 31.29 100.07 25.92 99.96 L 25.65 99.04 Z"
        fill="#ca9c73"/>
    <path
        id="path_51"
        d="M 95.48 99.01 C 99.18 98.11 102.99 97.72 106.91 97.85 C 108.48 98.05 110.11 98.18 111.5 99.01 C 106.24 100.25 100.74 100.28 95.48 99.01 Z"
        fill="#cb9c73"/>
    <path
        id="path_52"
        d="M 125.01 98 C 125.76 98 127.26 98 128 98 C 128 110.43 127.84 122.86 128.31 135.28 C 128.13 137.19 128.02 139.11 127.96 141.03 C 127 140.62 126.03 140.22 125.05 139.83 C 124.94 125.89 125 111.94 125.01 98 Z"
        fill="#2e2726"/>
    <path
        id="path_53"
        d="M 5.29 98.72 C 7.37 113.31 5.15 128.27 6.05 142.98 C 3.69 146.88 6.94 147.76 8.92 149.19 C 6.42 162.17 11.83 176.01 24.74 180.7 C 34.23 193.61 51.45 198.82 64.46 207.69 C 55.66 206.8 48.68 199.92 40.98 196.05 C 28.51 187.23 8.42 183.08 4.97 166.02 C 5.18 143.59 4.66 121.15 5.29 98.72 Z"
        fill="#6d4224"/>
    <path
        id="path_54"
        d="M 110.86 102.01 C 106.3 101.23 94.25 104.83 95.48 99.01 C 100.74 100.28 106.24 100.25 111.5 99.01 C 112.95 99.42 110.93 101.11 110.86 102.01 Z"
        fill="#a96b3d"/>
    <path
        id="path_55"
        d="M 25.92 99.96 C 31.29 100.07 36.66 99.98 42.03 99.99 C 41.03 104.98 30.92 100.44 27 102.05 C 26.73 101.52 26.19 100.48 25.92 99.96 Z"
        fill="#ac6b3b"/>
    <path
        id="path_56"
        d="M 13.03 103.87 C 15.11 106.18 17.67 108.11 20 104.94 C 19.99 115.67 20.03 126.4 20.04 137.13 C 17.21 139.02 15.27 136.21 13.15 134.68 C 12.96 127.17 13.02 119.66 12.95 112.16 C 12.98 109.39 13.01 106.63 13.03 103.87 Z"
        fill="#a26637"/>
    <path
        id="path_57"
        d="M 55.06 103.74 C 60.1 106.82 65.52 109.84 71.55 106.96 C 68.58 113.18 57.42 109.27 55.06 103.74 Z"
        fill="#b78a5e"/>
    <path
        id="path_58"
        d="M 128.97 110.94 C 126.54 101.35 130.09 107.4 131.91 109.2 C 132.06 115.87 131.85 122.58 132.8 129.21 C 133.33 141.14 132.83 153.09 133.02 165.04 C 133.07 167.79 131.66 170.6 129.64 172.41 C 130.8 165.23 135.14 155.72 129.25 149.63 C 128.74 154.15 129.67 158.89 128.35 163.31 C 128.06 155.88 127.97 148.46 127.96 141.03 C 128.02 139.11 128.13 137.19 128.31 135.28 C 130.08 127.31 128.52 119.02 128.97 110.94 Z"
        fill="#ac7242"/>
    <path
        id="path_59"
        d="M 69.87 122.88 C 78.51 121.45 87.06 116.54 89.87 107.8 C 98.15 121.63 105.59 136.08 114.84 149.3 C 114.35 154.32 116.6 160.17 113.68 164.72 C 106.11 169.98 97.7 173.88 89.97 178.89 C 90.84 176.32 92.3 172.3 88.28 172.09 C 86.65 169.76 88.24 167.97 89.87 166.29 C 87.42 166.15 85.5 164.98 84.31 162.84 C 80.81 158.7 80.62 152.13 76.09 149.01 C 82.11 150.3 77.57 141.31 78.93 138.35 C 81.73 134.52 76.87 128.8 76.13 133.78 C 75.59 135.2 77.03 139.07 75.06 138.87 C 74.08 136.31 75.26 130.94 71.07 131.98 C 69.05 131.7 70.38 134.96 69.86 136.17 C 69.45 135.82 68.64 135.13 68.23 134.79 C 64.54 123.97 66.19 147.42 63.21 138.01 L 63.37 137.19 C 65.4 133.07 63.25 127.8 65.21 124.16 C 67.09 124.94 75.1 123.69 69.87 122.88 M 82.14 148.95 C 85.16 148.98 90.46 150.71 88.96 146.15 C 81.96 149.63 82.63 139.72 87.98 141.82 C 89.32 137.92 84.64 139.83 83.29 137.46 C 83.57 136.94 84.12 135.91 84.39 135.4 C 93.61 136.8 87.57 127.8 81.85 132.03 C 79.18 135.54 82.78 143.74 82.14 148.95 M 91.15 137.24 C 90.8 140.4 89.6 152.82 93.98 147.97 C 95.12 134.51 94.32 151.7 100 149.02 C 98.72 145.14 98.13 141.26 98.9 137.25 C 101.85 129.84 87.43 129.52 91.15 137.24 M 95.44 162.4 C 92.74 163.22 92.81 168.42 96 167.55 C 100.11 168.58 98.45 161.18 95.44 162.4 Z"
        fill="#373331"/>
    <path
        id="path_60"
        d="M 115.07 116.83 C 116.06 117.21 117.04 117.6 118.03 118 C 118.07 118.41 118.16 119.23 118.21 119.65 C 117.93 130.32 117.86 141.01 118.21 151.69 C 117.5 156.95 119.41 164.63 113.91 167.93 C 104.91 173.4 95.72 178.57 86.67 183.95 C 82.95 186.16 79.17 188.26 75.31 190.22 C 75.19 189.62 74.95 188.43 74.83 187.84 C 79.84 184.8 84.82 181.7 89.97 178.89 C 97.7 173.88 106.11 169.98 113.68 164.72 C 116.6 160.17 114.35 154.32 114.84 149.3 C 115.06 138.48 114.98 127.65 115.07 116.83 Z"
        fill="#95603a"/>
    <path
        id="path_61"
        d="M 118.21 119.65 C 120.43 121.15 122.1 123.27 123.89 125.23 C 124.11 135.89 123.99 146.55 123.92 157.21 C 122.02 155.37 120.18 153.46 118.21 151.69 C 117.86 141.01 117.93 130.32 118.21 119.65 Z"
        fill="#c78750"/>
    <path
        id="path_62"
        d="M 38.04 136.78 C 34.51 130.18 43.11 130.84 41.86 138.15 C 43.03 143.44 39.81 138.29 38.04 136.78 Z"
        fill="#c79163"/>
    <path
        id="path_63"
        d="M 42.33 131.99 C 46.57 131.04 46.84 134.2 46.14 138.15 C 44.71 138.14 43.28 138.14 41.86 138.15 C 41.92 136.09 42.07 134.03 42.33 131.99 Z"
        fill="#d09766"/>
    <path
        id="path_64"
        d="M 46.14 138.15 C 46.35 135.17 47.14 131.13 50.86 131.92 C 50.61 133.9 50.21 135.85 49.91 137.82 C 48.02 139.15 44.86 142.81 46.14 138.15 Z"
        fill="#c68f60"/>
    <path
        id="path_65"
        d="M 52.97 136 C 51.29 130.79 57.69 130.79 56.04 136 C 55.27 136 53.74 136 52.97 136 Z"
        fill="#e4a670"/>
    <path
        id="path_66"
        d="M 59.18 148.86 C 58.88 143.51 56.74 135.97 58.96 131.98 C 57.78 136.47 58.9 138.92 63.21 138.01 C 66.19 147.42 64.54 123.97 68.23 134.79 C 67.96 139.52 67.7 144.28 66.8 148.95 C 62.38 149.61 63.73 143.16 61.23 140.73 C 60.21 143.14 63.46 150.38 59.18 148.86 Z"
        fill="#a76e41"/>
    <path
        id="path_67"
        d="M 58.96 131.98 C 62.45 131.02 62.45 134.89 63.37 137.19 L 63.21 138.01 C 58.9 138.92 57.78 136.47 58.96 131.98 Z"
        fill="#d59966"/>
    <path
        id="path_68"
        d="M 69.86 136.17 C 70.38 134.96 69.05 131.7 71.07 131.98 C 75.26 130.94 74.08 136.31 75.06 138.87 C 73.36 138.63 71.69 138.25 70 137.94 C 69.97 137.5 69.9 136.61 69.86 136.17 Z"
        fill="#cf9563"/>
    <path
        id="path_69"
        d="M 76.13 133.78 C 76.87 128.8 81.73 134.52 78.93 138.35 C 77.02 137.6 76.8 135.45 76.13 133.78 Z"
        fill="#d69966"/>
    <path
        id="path_70"
        d="M 82.14 148.95 C 82.78 143.74 79.18 135.54 81.85 132.03 C 82.16 133.85 81.6 136.19 83.29 137.46 C 84.64 139.83 89.32 137.92 87.98 141.82 C 82.63 139.72 81.96 149.63 88.96 146.15 C 90.46 150.71 85.16 148.98 82.14 148.95 Z"
        fill="#a86f42"/>
    <path
        id="path_71"
        d="M 81.85 132.03 C 87.57 127.8 93.61 136.8 84.39 135.4 C 84.12 135.91 83.57 136.94 83.29 137.46 C 81.6 136.19 82.16 133.85 81.85 132.03 Z"
        fill="#dda16d"/>
    <path
        id="path_72"
        d="M 91.15 137.24 C 87.43 129.52 101.85 129.84 98.9 137.25 C 97.92 136.53 96.98 135.77 95.98 135.09 C 95.51 135.08 94.57 135.05 94.1 135.04 C 93.08 135.74 92.13 136.51 91.15 137.24 Z"
        fill="#dfa36f"/>
    <path
        id="path_73"
        d="M 76.13 133.78 C 76.8 135.45 77.02 137.6 78.93 138.35 C 77.57 141.31 82.11 150.3 76.09 149.01 C 74.91 146.69 74.28 144.14 73.22 141.76 C 72.73 144.77 74.74 150.42 70.07 148.99 C 70.05 146.22 70.02 140.7 70 137.94 C 71.69 138.25 73.36 138.63 75.06 138.87 C 77.03 139.07 75.59 135.2 76.13 133.78 Z"
        fill="#a6693b"/>
    <path
        id="path_74"
        d="M 13.15 134.68 C 15.27 136.21 17.21 139.02 20.04 137.13 C 20.27 146.39 19.6 155.64 19.53 164.89 C 26.53 172.26 37.14 174.63 45.23 180.63 C 39.66 179.64 41.44 183.6 43.12 186.9 C 33.81 179.84 20.54 177.23 14.36 166.67 C 10.76 156.51 14.06 145.2 13.15 134.68 Z"
        fill="#8a542d"/>
    <path
        id="path_75"
        d="M 91.15 137.24 C 92.13 136.51 93.08 135.74 94.1 135.04 C 92.66 140.86 96.54 140.62 95.98 135.09 C 96.98 135.77 97.92 136.53 98.9 137.25 C 98.13 141.26 98.72 145.14 100 149.02 C 94.32 151.7 95.12 134.51 93.98 147.97 C 89.6 152.82 90.8 140.4 91.15 137.24 Z"
        fill="#a76c3e"/>
    <path
        id="path_76"
        d="M 94.1 135.04 C 94.57 135.05 95.51 135.08 95.98 135.09 C 96.54 140.62 92.66 140.86 94.1 135.04 Z"
        fill="#3d3530"/>
    <path
        id="path_77"
        d="M 52.97 136 C 53.74 136 55.27 136 56.04 136 C 55 140.09 59.23 149.57 53.11 148.98 C 53.02 147.64 52.97 146.29 52.96 144.94 C 52.99 141.97 52.94 138.97 52.97 136 Z"
        fill="#b2703e"/>
    <path
        id="path_78"
        d="M 38.04 136.78 C 39.81 138.29 43.03 143.44 41.86 138.15 C 43.28 138.14 44.71 138.14 46.14 138.15 C 44.86 142.81 48.02 139.15 49.91 137.82 C 49.66 139.82 49.35 141.82 49.09 143.82 C 49.63 148.16 43.16 153.12 44.8 144.08 C 40.77 142.87 44.92 150.95 40.29 148.86 C 39.37 144.87 38.63 140.83 38.04 136.78 Z"
        fill="#a66839"/>
    <path
        id="path_79"
        d="M 125.05 139.83 C 126.03 140.22 127 140.62 127.96 141.03 C 127.97 148.46 128.06 155.88 128.35 163.31 C 125.62 176.45 111.95 180.58 101.88 186.84 C 95.74 190.34 89.66 193.96 83.77 197.87 C 83.36 197.95 82.52 198.11 82.11 198.19 C 82.97 196.33 83.85 194.48 84.75 192.64 C 86.45 191.43 88.26 190.37 90.09 189.37 C 99.82 184.16 109.22 178.36 118.71 172.73 C 121.54 170.71 122.9 167.32 124.31 164.27 C 126.33 156.37 124.34 147.9 125.05 139.83 Z"
        fill="#433d3a"/>
    <path
        id="path_80"
        d="M 129.25 149.63 C 135.14 155.72 130.8 165.23 129.64 172.41 C 123.79 184.37 109.02 188.47 97.99 194.78 C 93.25 195.91 88.81 198.25 83.77 197.87 C 89.66 193.96 95.74 190.34 101.88 186.84 C 111.95 180.58 125.62 176.45 128.35 163.31 C 129.67 158.89 128.74 154.15 129.25 149.63 Z"
        fill="#cf9460"/>
    <path
        id="path_81"
        d="M 118.21 151.69 C 120.18 153.46 122.02 155.37 123.92 157.21 C 124.02 158.98 124.21 162.51 124.31 164.27 C 122.9 167.32 121.54 170.71 118.71 172.73 C 109.22 178.36 99.82 184.16 90.09 189.37 C 88.32 187.99 86.76 186.31 86.67 183.95 C 95.72 178.57 104.91 173.4 113.91 167.93 C 119.41 164.63 117.5 156.95 118.21 151.69 Z"
        fill="#de9d63"/>
    <path
        id="path_82"
        d="M 41.29 162.52 C 42.25 163.52 46.77 164.13 43.09 166.12 C 40.34 169.24 37.64 163.58 41.29 162.52 Z"
        fill="#b0794b"/>
    <path
        id="path_83"
        d="M 95.44 162.4 C 98.45 161.18 100.11 168.58 96 167.55 C 92.81 168.42 92.74 163.22 95.44 162.4 Z"
        fill="#9e6f48"/>
    <path
        id="path_84"
        d="M 52.29 162.87 C 53.58 165.03 55.38 166.4 58.03 166.23 C 55.94 168.04 54.4 170.24 56.01 172.98 C 54.38 171.37 52.34 170.98 50.23 171.88 C 50.53 169.38 48.67 168.17 47.96 166.19 C 50.46 166.25 52.7 165.96 52.29 162.87 Z"
        fill="#a06c43"/>
    <path
        id="path_85"
        d="M 68.42 162.83 C 70.24 164.47 69.57 168.4 72.13 168.91 C 82.4 167.45 74.15 170.9 72.32 173.15 C 72.42 175.12 75.78 180.82 72.04 177.86 C 69.41 174.78 66.28 176.71 63.95 178.99 C 64.27 177.04 64.83 175.13 64.98 173.15 C 63.13 171.11 58.51 168.25 64.16 168.97 C 67.94 169.82 67.29 165.15 68.42 162.83 Z"
        fill="#aa7143"/>
    <path
        id="path_86"
        d="M 84.31 162.84 C 85.5 164.98 87.42 166.15 89.87 166.29 C 88.24 167.97 86.65 169.76 88.28 172.09 C 83.95 172.44 80.93 170.75 80.1 166.28 C 82.48 166.17 84.71 165.78 84.31 162.84 Z"
        fill="#a16e45"/>
    <path
        id="path_87"
        d="M 64.46 207.69 C 51.45 198.82 34.23 193.61 24.74 180.7 C 36.2 187.04 47.43 193.77 58.94 200.02 C 59.62 200.68 60.28 201.35 60.93 202.04 C 66.17 208.9 75.15 206.11 82.1 203.98 C 78.22 209.06 69.96 208.2 64.46 207.69 Z"
        fill="#8d5b34"/>
    <path
        id="path_88"
        d="M 43.12 186.9 C 41.44 183.6 39.66 179.64 45.23 180.63 C 52.67 185.09 60.28 189.26 67.91 193.38 C 68.32 195.29 68.76 197.19 69.14 199.11 C 68.68 199.18 67.75 199.32 67.29 199.39 C 58.25 197.76 51.41 190.57 43.12 186.9 Z"
        fill="#9f6436"/>
    <path
        id="path_89"
        d="M 75.31 190.22 C 79.17 188.26 82.95 186.16 86.67 183.95 C 86.76 186.31 88.32 187.99 90.09 189.37 C 88.26 190.37 86.45 191.43 84.75 192.64 C 79.66 195.05 75.1 199.44 69.14 199.11 C 68.76 197.19 68.32 195.29 67.91 193.38 C 70.54 192.73 73.01 191.62 75.31 190.22 Z"
        fill="#bb7d48"/>
    <path
        id="path_90"
        d="M 69.14 199.11 C 75.1 199.44 79.66 195.05 84.75 192.64 C 83.85 194.48 82.97 196.33 82.11 198.19 C 76.18 203.25 68.34 203.74 60.93 202.04 C 60.28 201.35 59.62 200.68 58.94 200.02 C 61.76 200.52 65.01 201.85 67.29 199.39 C 67.75 199.32 68.68 199.18 69.14 199.11 Z"
        fill="#2e2522"/>
    <path
        id="path_91"
        d="M 83.77 197.87 C 88.81 198.25 93.25 195.91 97.99 194.78 C 93.47 198.53 87.66 201.73 82.1 203.98 C 75.15 206.11 66.17 208.9 60.93 202.04 C 68.34 203.74 76.18 203.25 82.11 198.19 C 82.52 198.11 83.36 197.95 83.77 197.87 Z"
        fill="#ab7446"/>
</svg>
