<svg
    xmlns="http://www.w3.org/2000/svg"
    viewBox="0 0 104 78"
    id="vector">
    <path
        id="path"
        d="M 0 0 L 104 0 L 104 78 L 0 78 L 0 0 M 10.66 8.02 C 7.81 28.47 8.08 49.5 10.73 69.97 C 28.14 69.85 45.57 70.55 62.96 69.73 C 66.42 70.78 69 68.25 70.64 65.75 C 71.49 49.2 71.36 32.59 70.71 16.04 C 71.84 10.73 66.07 6.21 61.05 7.97 C 44.25 7.72 27.46 8.08 10.66 8.02 M 79.61 25.66 C 74.79 30.45 74.96 38.7 77.48 44.51 C 82.53 50.64 88.62 56.17 95.68 59.9 C 96.17 43.93 96.19 27.94 95.57 11.96 C 89.59 15.68 84.41 20.55 79.61 25.66 Z"
        fill="#464c5a"
        stroke-width="1"/>
    <path
        id="path_1"
        d="M 31.94 21.9 C 38.81 20.23 45.9 21.92 52.75 22.92 C 57.45 31.65 61.32 43.61 53.9 51.93 C 45.55 58.42 32.6 58.71 24.66 51.29 C 19.89 41.95 19.74 25.36 31.94 21.9 M 28.61 31.14 C 28.75 35.06 29.05 42.9 29.19 46.82 C 34.51 49.42 41.04 53.27 46.44 48.44 C 53.57 44.99 53.9 32.92 46.43 29.54 C 40.46 28.31 34.42 29.79 28.61 31.14 Z"
        fill="#464c5a"
        stroke-width="1"/>
    <path
        id="path_2"
        d="M 10.66 8.02 C 27.46 8.08 44.25 7.72 61.05 7.97 C 66.07 6.21 71.84 10.73 70.71 16.04 C 71.36 32.59 71.49 49.2 70.64 65.75 C 69 68.25 66.42 70.78 62.96 69.73 C 45.57 70.55 28.14 69.85 10.73 69.97 C 8.08 49.5 7.81 28.47 10.66 8.02 M 31.94 21.9 C 19.74 25.36 19.89 41.95 24.66 51.29 C 32.6 58.71 45.55 58.42 53.9 51.93 C 61.32 43.61 57.45 31.65 52.75 22.92 C 45.9 21.92 38.81 20.23 31.94 21.9 Z"
        fill="#fafafb"
        stroke-width="1"/>
    <path
        id="path_3"
        d="M 79.61 25.66 C 84.41 20.55 89.59 15.68 95.57 11.96 C 96.19 27.94 96.17 43.93 95.68 59.9 C 88.62 56.17 82.53 50.64 77.48 44.51 C 74.96 38.7 74.79 30.45 79.61 25.66 Z"
        fill="#fafafb"
        stroke-width="1"/>
    <path
        id="path_4"
        d="M 28.61 31.14 C 34.42 29.79 40.46 28.31 46.43 29.54 C 53.9 32.92 53.57 44.99 46.44 48.44 C 41.04 53.27 34.51 49.42 29.19 46.82 C 29.05 42.9 28.75 35.06 28.61 31.14 Z"
        fill="#fafafb"
        stroke-width="1"/>
</svg>
