<svg
    xmlns="http://www.w3.org/2000/svg"
    viewBox="0 0 138 212"
    id="vector">
    <path
        id="path"
        d="M 63.43 1.5 C 69.33 0.94 75.72 0.74 80.99 3.92 C 92.26 10.31 103.41 16.92 114.65 23.35 C 119.31 26.29 124.66 28.4 128.35 32.64 C 132.36 37.11 135.21 42.91 135.49 48.97 C 135.52 86.3 135.46 123.63 135.52 160.96 C 135.62 167.19 132.92 173.22 129.02 177.98 C 125.64 182.2 120.57 184.43 116.02 187.11 C 104.93 193.7 93.64 199.91 82.58 206.55 C 74.7 211.47 64.04 211.69 56.03 206.93 C 45.32 200.62 34.48 194.55 23.77 188.25 C 18.27 184.9 11.89 182.42 8.03 176.98 C 4.97 172.62 2.36 167.49 2.47 162.04 C 2.59 123.66 2.39 85.27 2.57 46.89 C 3.85 39.05 8.58 31.47 15.7 27.68 C 27.15 21.14 38.49 14.39 49.96 7.89 C 54.29 5.47 58.45 2.39 63.43 1.5 M 65.74 3.1 C 59.03 3.38 53.78 8.12 48.04 11.02 C 46.42 12.19 44.06 12.7 42.98 14.42 L 42.28 14.38 C 33.81 19.14 25.46 24.1 17.02 28.89 C 10.23 32.43 5.63 39.52 4.43 46.99 C 3.99 84.64 4.37 122.31 4.26 159.97 C 3.85 169.19 9.22 178.47 17.49 182.62 C 28.03 188.5 38.25 194.98 48.97 200.54 C 54.45 204.13 60.24 208.19 67.04 208.47 C 69.87 208.73 72.69 208.28 75.45 207.7 L 74.77 207.64 C 78.64 207.36 81.84 204.76 85.11 202.92 C 89.71 200.16 94.68 197.91 98.9 194.58 L 98.77 194.41 L 99.72 194.25 C 103.7 192.55 107.26 190.01 111.06 187.96 C 113.46 186.39 116.29 185.42 118.38 183.42 C 125.5 180.8 131.37 174.15 132.57 166.66 L 132.69 167.57 C 134.14 160.7 133.46 153.52 133.26 146.56 C 133.73 142.07 133.44 137.56 133.5 133.06 C 133.33 121.91 133.8 110.72 133.26 99.6 C 133.85 83.42 133.3 67.2 133.51 51 C 133.98 42.09 128.78 33.2 120.94 29 C 107.62 21.32 94.32 13.59 81 5.91 C 76.46 3.24 70.94 2.1 65.74 3.1 Z"
        fill="#000000"
        fill-opacity="0.29"
        stroke-opacity="0.29"/>
    <path
        id="path_1"
        d="M 36.52 23.61 C 39.48 21.94 42.36 20.17 45.39 18.65 L 46.88 18.77 C 43.15 19.75 39.88 21.81 36.52 23.61 Z"
        fill="#000000"
        fill-opacity="0.29"
        stroke-opacity="0.29"/>
    <path
        id="path_2"
        d="M 65.74 3.1 C 70.94 2.1 76.46 3.24 81 5.91 C 94.32 13.59 107.62 21.32 120.94 29 C 128.78 33.2 133.98 42.09 133.51 51 C 133.3 67.2 133.85 83.42 133.26 99.6 C 131.01 93.31 132.47 86.53 131.51 80.03 C 130.84 75.82 131.29 71.09 128.56 67.52 C 127.72 58.32 130.7 48.04 125.26 39.82 C 122.51 35.06 117.26 32.92 112.75 30.23 C 105.66 26.05 98.38 22.16 91.43 17.74 C 95.77 18.26 99.36 20.8 103.07 22.88 C 111.56 28.05 121.19 31.67 128.23 38.93 C 126.14 35.74 123.55 32.83 120.22 30.91 C 107.73 23.42 95.15 16.09 82.7 8.54 C 77.69 5.08 71.59 4.18 65.74 3.1 Z"
        fill="#e38c02"/>
    <path
        id="path_3"
        d="M 48.04 11.02 C 53.78 8.12 59.03 3.38 65.74 3.1 C 71.59 4.18 77.69 5.08 82.7 8.54 C 95.15 16.09 107.73 23.42 120.22 30.91 C 123.55 32.83 126.14 35.74 128.23 38.93 C 121.19 31.67 111.56 28.05 103.07 22.88 C 99.36 20.8 95.77 18.26 91.43 17.74 C 83.74 14.23 77.02 7.2 67.99 7.92 C 64.04 7.9 60.43 9.64 57.16 11.68 C 53.14 13.84 49.22 16.17 45.39 18.65 C 42.36 20.17 39.48 21.94 36.52 23.61 C 36.16 23.79 35.44 24.17 35.08 24.36 L 33.12 25.3 C 35.85 21.78 40.06 20.09 43.7 17.73 C 48.24 14.88 52.87 12.17 57.21 9 C 52.64 10.37 48.59 12.89 44.42 15.11 L 42.98 14.42 C 44.06 12.7 46.42 12.19 48.04 11.02 Z"
        fill="#f5c401"/>
    <path
        id="path_4"
        d="M 57.16 11.68 C 60.43 9.64 64.04 7.9 67.99 7.92 C 77.02 7.2 83.74 14.23 91.43 17.74 C 98.38 22.16 105.66 26.05 112.75 30.23 C 117.26 32.92 122.51 35.06 125.26 39.82 C 130.7 48.04 127.72 58.32 128.56 67.52 C 128.46 77.4 128.53 87.28 128.44 97.16 C 127.51 90.53 128.05 83.82 127.57 77.17 C 127.57 75.19 125.93 73.88 124.8 72.47 C 124.71 65.29 124.77 58.12 124.74 50.94 C 124.83 45.38 121.85 39.8 116.97 37.04 C 112.93 34.65 108.84 32.35 104.78 30.02 C 94.48 24 84.16 18 73.82 12.06 C 72.75 11.14 71.7 10.2 70.65 9.27 C 66 8.99 61.63 10.74 57.16 11.68 Z"
        fill="#130b0b"/>
    <path
        id="path_5"
        d="M 9.6 125.56 C 10.98 130.84 9.29 136.93 13.21 141.38 C 13.29 147.92 13.22 154.47 13.26 161.01 C 13.25 166.33 16.28 171.62 20.96 174.2 C 27.14 177.78 33.33 181.36 39.53 184.93 C 44.7 187.89 49.84 190.91 55.01 193.88 C 58.9 196.07 62.59 198.87 67.11 199.58 C 70.63 199.65 74.18 199.06 77.26 197.29 C 75.58 200.67 71.52 200.61 68.36 201.48 C 68.42 201.94 68.53 202.85 68.58 203.31 C 64.2 203.23 60.12 201.49 56.5 199.13 C 46.9 193.44 37.16 187.97 27.5 182.37 C 22.13 178.91 15.41 176.67 12.2 170.72 C 8.34 165.02 9.71 157.93 9.46 151.47 C 9.52 142.83 9.44 134.19 9.6 125.56 Z"
        fill="#130b0b"/>
    <path
        id="path_6"
        d="M 44.42 15.11 C 48.59 12.89 52.64 10.37 57.21 9 C 52.87 12.17 48.24 14.88 43.7 17.73 C 40.06 20.09 35.85 21.78 33.12 25.3 C 29.37 27.64 25.57 29.91 21.64 31.94 C 12.67 33.42 6.89 42.41 6.21 51.01 C 5.81 42.97 10 34.94 16.88 30.74 C 25.82 25.12 35.33 20.49 44.42 15.11 Z"
        fill="#fbf078"/>
    <path
        id="path_7"
        d="M 25.65 78.86 C 26.01 78.55 26.72 77.91 27.08 77.6 C 32.74 77.51 38.42 77.25 44.07 77.64 C 44.6 77.91 45.67 78.46 46.21 78.73 C 39.36 78.79 32.5 78.6 25.65 78.86 Z"
        fill="#fbf078"/>
    <path
        id="path_8"
        d="M 25.81 89.27 C 27.28 87.3 29.88 87.77 32.01 87.7 C 36.05 87.87 40.12 87.41 44.13 87.88 C 44.57 88.24 45.45 88.96 45.89 89.32 C 39.2 89.16 32.5 89.26 25.81 89.27 Z"
        fill="#fbf078"/>
    <path
        id="path_9"
        d="M 91.8 99.58 C 93.18 97.94 95.4 98.26 97.31 98.16 C 101.88 98.23 106.46 98.22 111.04 98.27 C 111.33 99.06 111.62 99.85 111.9 100.64 C 111.86 100.98 111.8 101.64 111.76 101.97 C 111.62 101.42 111.34 100.3 111.19 99.74 C 104.75 99.15 98.26 99.66 91.8 99.58 Z"
        fill="#fbf078"/>
    <path
        id="path_10"
        d="M 58 131.89 C 59.2 131.8 60.41 131.72 61.62 131.64 C 62 132.9 62.38 134.16 62.76 135.42 C 61.34 134.37 59.92 133.31 58.49 132.26 L 58 131.89 Z"
        fill="#fbf078"/>
    <path
        id="path_11"
        d="M 57.16 11.68 C 61.63 10.74 66 8.99 70.65 9.27 C 71.7 10.2 72.75 11.14 73.82 12.06 C 70.38 11.91 66.75 11.29 63.46 12.65 C 60.67 13.86 58.12 15.54 55.48 17.04 C 52.43 16.37 49.75 18.13 46.88 18.77 L 45.39 18.65 C 49.22 16.17 53.14 13.84 57.16 11.68 Z"
        fill="#352f2d"/>
    <path
        id="path_12"
        d="M 63.46 12.65 C 66.75 11.29 70.38 11.91 73.82 12.06 C 72.09 12.56 70.36 13.05 68.63 13.53 C 69 15.03 69.89 16.59 69.18 18.13 C 66.71 18.94 64.23 19.76 61.94 20.99 C 60.33 21.85 58.73 22.74 57.13 23.62 C 56.36 21.56 55.6 19.49 54.86 17.41 L 55.48 17.04 C 58.12 15.54 60.67 13.86 63.46 12.65 Z"
        fill="#f2bd0c"/>
    <path
        id="path_13"
        d="M 73.82 12.06 C 84.16 18 94.48 24 104.78 30.02 C 104.56 33.45 106.99 36.21 108.1 39.29 C 95.04 32.39 82.69 24.14 69.18 18.13 C 69.89 16.59 69 15.03 68.63 13.53 C 70.36 13.05 72.09 12.56 73.82 12.06 Z"
        fill="#eba400"/>
    <path
        id="path_14"
        d="M 17.02 28.89 C 25.46 24.1 33.81 19.14 42.28 14.38 L 42.98 14.42 L 44.42 15.11 C 35.33 20.49 25.82 25.12 16.88 30.74 C 10 34.94 5.81 42.97 6.21 51.01 C 6.89 42.41 12.67 33.42 21.64 31.94 C 15.19 35.22 9.68 41.41 9.47 48.94 C 9.53 59.81 9.41 70.68 9.49 81.55 C 9.5 83.8 9.47 86.05 9.46 88.29 C 8.43 83.94 9.78 78.22 5.66 75.25 L 4.77 74.36 C 4.49 65.24 4.43 56.11 4.43 46.99 C 5.63 39.52 10.23 32.43 17.02 28.89 Z"
        fill="#f4c613"/>
    <path
        id="path_15"
        d="M 46.88 18.77 C 49.75 18.13 52.43 16.37 55.48 17.04 L 54.86 17.41 C 48.61 21.21 42.22 24.77 35.87 28.39 C 33.52 29.76 31.17 31.11 28.81 32.44 C 28.34 32.05 27.39 31.27 26.91 30.88 C 29.71 28.86 33.99 28.03 35.08 24.36 C 35.44 24.17 36.16 23.79 36.52 23.61 C 39.88 21.81 43.15 19.75 46.88 18.77 Z"
        fill="#4c4948"/>
    <path
        id="path_16"
        d="M 35.87 28.39 C 42.22 24.77 48.61 21.21 54.86 17.41 C 55.6 19.49 56.36 21.56 57.13 23.62 C 50.01 27.54 43.29 32.15 36.14 36.04 C 34.84 33.59 34.39 30.9 35.87 28.39 Z"
        fill="#f8d71e"/>
    <path
        id="path_17"
        d="M 61.94 20.99 C 64.23 19.76 66.71 18.94 69.18 18.13 C 82.69 24.14 95.04 32.39 108.1 39.29 C 111.85 41.83 117.62 43.6 118.04 48.89 C 118.37 57.82 117.72 66.77 118.04 75.71 C 118.09 83.37 117.7 91.02 117.88 98.68 C 117.83 105 117.71 111.32 117.81 117.64 C 117.81 121.59 117.72 125.54 117.76 129.49 C 114.54 121.22 117.88 112.08 115.33 103.64 C 115.06 95.89 115.33 88.14 115.23 80.4 C 115.24 70.6 115.3 60.8 115.3 51 C 115.49 48.54 114.28 46.11 112.05 44.99 C 103.69 40.15 95.3 35.36 86.92 30.55 C 81.79 27.6 76.76 24.46 71.51 21.72 C 68.8 20.25 65.88 21.81 63.5 23.17 L 63.32 23.27 C 62.98 22.7 62.28 21.56 61.94 20.99 Z"
        fill="#d18108"/>
    <path
        id="path_18"
        d="M 57.13 23.62 C 58.73 22.74 60.33 21.85 61.94 20.99 C 62.28 21.56 62.98 22.7 63.32 23.27 C 58.39 26.18 53.47 29.09 48.5 31.93 C 41.2 36.12 33.96 40.42 26.63 44.57 C 24.56 45.67 22.68 47.52 22.59 50.01 C 22.25 55.5 22.93 61.01 22.79 66.51 C 22.72 78.18 22.68 89.84 22.73 101.5 C 22.72 103.46 22.67 105.41 22.67 107.36 C 21.24 101.32 21.82 95.11 21.72 88.96 C 21.8 86.99 20.98 85.19 20.25 83.41 C 19.05 71.84 20.58 60.21 19.76 48.63 C 20.74 46.5 21.75 44.13 23.95 43 C 27.97 40.61 32.1 38.39 36.14 36.04 C 43.29 32.15 50.01 27.54 57.13 23.62 Z"
        fill="#e09c02"/>
    <path
        id="path_19"
        d="M 63.5 23.17 C 65.88 21.81 68.8 20.25 71.51 21.72 C 76.76 24.46 81.79 27.6 86.92 30.55 C 88.6 36.19 92.51 40.73 95.08 45.95 C 101.74 57.46 108.16 69.13 115.23 80.4 C 115.33 88.14 115.06 95.89 115.33 103.64 L 115.32 105.23 C 114.12 103.74 112.94 102.24 111.9 100.64 C 111.62 99.85 111.33 99.06 111.04 98.27 C 110.46 96.82 109.81 95.39 109.16 93.97 C 109.78 93.36 110.4 92.73 111 92.1 C 111.81 90.63 112.39 88.67 110.53 87.75 C 107.98 86.99 105.11 86.8 103 85.02 C 100.2 82.21 95.74 84.03 92.63 81.82 C 98.89 81.3 105.46 82.75 111.52 81.11 C 111.56 80.24 111.63 78.5 111.66 77.63 L 110.98 76.93 C 106.7 76.67 102.41 76.63 98.13 76.66 C 97.46 75.17 96.78 73.69 96.37 72.11 C 98.75 69.22 97.31 65.12 97.74 61.7 C 99.24 61.39 100.45 60.64 100.63 58.97 C 98.18 58.96 95.73 58.99 93.3 59.34 C 92.99 59.41 92.35 59.55 92.04 59.62 C 90.65 59.43 89.05 58.62 87.85 59.75 C 86.77 60.96 87.13 62.71 86.99 64.19 C 83.38 59.55 80.82 54.21 77.82 49.18 C 73.12 40.47 67.28 32.35 63.5 23.17 Z"
        fill="#1f1a19"/>
    <path
        id="path_20"
        d="M 63.32 23.27 L 63.5 23.17 C 67.28 32.35 73.12 40.47 77.82 49.18 C 80.82 54.21 83.38 59.55 86.99 64.19 C 87.6 64.79 88.26 65.33 88.92 65.87 C 90.48 66.81 92.06 68.76 89.35 69.35 C 89 68.38 88.3 66.42 87.95 65.45 C 86.85 67.22 86.35 70.52 88.9 71.29 C 92.02 72.38 93.69 68.2 92.33 65.88 C 91.09 64.85 89.78 63.93 88.55 62.89 C 89.06 62.13 89.66 61.44 90.34 60.82 C 90.67 61.77 91.35 63.66 91.69 64.6 C 92.13 63.7 92.56 62.8 92.97 61.88 C 93.67 61.86 95.09 61.82 95.79 61.8 C 96.09 65.23 96.14 68.68 96.37 72.11 C 96.78 73.69 97.46 75.17 98.13 76.66 C 102.41 76.63 106.7 76.67 110.98 76.93 L 111.66 77.63 C 105.77 77.49 99.86 77.3 93.97 77.56 C 91.34 77.37 92.54 80.29 92.63 81.82 C 95.74 84.03 100.2 82.21 103 85.02 C 105.11 86.8 107.98 86.99 110.53 87.75 C 104.63 87.88 98.69 87.38 92.81 88.03 C 92.35 89.25 92.19 90.52 92.32 91.84 C 98.54 92.26 104.78 92.14 111 92.1 C 110.4 92.73 109.78 93.36 109.16 93.97 C 109.81 95.39 110.46 96.82 111.04 98.27 C 106.46 98.22 101.88 98.23 97.31 98.16 C 94.52 94.43 90.78 91.43 88.57 87.28 C 86.31 83.12 84.04 78.96 81.29 75.1 C 81.05 85.39 81.07 95.69 80.95 105.98 L 80.3 105.98 C 80.29 105.27 80.27 103.84 80.27 103.13 C 80.3 96.1 80.28 89.08 80.27 82.05 C 80.26 78.69 80.26 75.32 80.26 71.96 C 80.26 69.37 80.25 66.77 80.25 64.18 C 80.25 61.79 80.24 59.39 80.24 57 C 74.99 56.98 69.73 56.96 64.48 57.07 C 61.2 56.38 60.13 52.93 58.59 50.41 C 55.44 44.12 51.2 38.44 48.5 31.93 C 53.47 29.09 58.39 26.18 63.32 23.27 Z"
        fill="#282423"/>
    <path
        id="path_21"
        d="M 21.64 31.94 C 25.57 29.91 29.37 27.64 33.12 25.3 L 35.08 24.36 C 33.99 28.03 29.71 28.86 26.91 30.88 C 27.39 31.27 28.34 32.05 28.81 32.44 C 23.61 35.55 17.35 37.93 14.59 43.77 C 13.64 46.05 13.1 48.49 13.19 50.97 C 13.31 62.21 13.19 73.45 13.35 84.68 L 13.33 86 C 12.04 84.53 10.76 83.04 9.49 81.55 C 9.41 70.68 9.53 59.81 9.47 48.94 C 9.68 41.41 15.19 35.22 21.64 31.94 Z"
        fill="#423f3e"/>
    <path
        id="path_22"
        d="M 28.81 32.44 C 31.17 31.11 33.52 29.76 35.87 28.39 C 34.39 30.9 34.84 33.59 36.14 36.04 C 32.1 38.39 27.97 40.61 23.95 43 C 21.75 44.13 20.74 46.5 19.76 48.63 C 19.49 49.2 18.95 50.35 18.69 50.92 C 17.3 48.55 15.95 46.16 14.59 43.77 C 17.35 37.93 23.61 35.55 28.81 32.44 Z"
        fill="#faea34"/>
    <path
        id="path_23"
        d="M 86.92 30.55 C 95.3 35.36 103.69 40.15 112.05 44.99 C 114.28 46.11 115.49 48.54 115.3 51 C 115.3 60.8 115.24 70.6 115.23 80.4 C 108.16 69.13 101.74 57.46 95.08 45.95 C 92.51 40.73 88.6 36.19 86.92 30.55 Z"
        fill="#151111"/>
    <path
        id="path_24"
        d="M 116.41 174.51 C 118.61 173.25 120.47 171.48 122.09 169.55 C 120.85 173.95 116.27 175.55 112.74 177.68 C 105.48 181.64 98.62 186.31 91.25 190.04 L 89.47 190.09 C 91.55 188.9 93.6 187.66 95.68 186.46 C 102.56 182.43 109.51 178.5 116.41 174.51 Z"
        fill="#151111"/>
    <path
        id="path_25"
        d="M 108.1 39.29 C 106.99 36.21 104.56 33.45 104.78 30.02 C 108.84 32.35 112.93 34.65 116.97 37.04 C 121.85 39.8 124.83 45.38 124.74 50.94 C 124.77 58.12 124.71 65.29 124.8 72.47 C 124.76 77.07 124.77 81.67 124.75 86.27 C 122.51 82.75 120.32 79.2 118.04 75.71 C 117.72 66.77 118.37 57.82 118.04 48.89 C 117.62 43.6 111.85 41.83 108.1 39.29 Z"
        fill="#e79500"/>
    <path
        id="path_26"
        d="M 26.63 44.57 C 33.96 40.42 41.2 36.12 48.5 31.93 C 51.2 38.44 55.44 44.12 58.59 50.41 C 60.13 52.93 61.2 56.38 64.48 57.07 C 62.9 58.94 61.16 60.66 59.45 62.4 C 56.33 64.89 52.73 66.71 49.22 68.58 C 49.71 69.75 50.21 70.92 50.7 72.09 C 51.68 74.38 52.65 76.68 53.6 78.99 C 56.5 77.61 59.39 76.22 62.3 74.88 C 62.14 85.25 62.29 95.63 62.26 106 C 60.89 105.99 59.53 105.98 58.16 105.98 C 53.78 97.88 48.58 90.23 44.76 81.83 L 45.21 80.92 C 45.46 80.37 45.96 79.27 46.21 78.73 C 45.67 78.46 44.6 77.91 44.07 77.64 C 38.42 77.25 32.74 77.51 27.08 77.6 C 27.68 77.04 28.28 76.47 28.87 75.91 C 27.21 72.55 25.26 69.34 22.79 66.51 C 22.93 61.01 22.25 55.5 22.59 50.01 C 22.68 47.52 24.56 45.67 26.63 44.57 Z"
        fill="#353332"/>
    <path
        id="path_27"
        d="M 13.19 50.97 C 13.1 48.49 13.64 46.05 14.59 43.77 C 15.95 46.16 17.3 48.55 18.69 50.92 C 18.95 50.35 19.49 49.2 19.76 48.63 C 20.58 60.21 19.05 71.84 20.25 83.41 C 20.38 90.01 19.51 96.6 19.97 103.19 C 18.35 100.18 15.99 97.54 14.86 94.27 C 14.13 91.12 13.82 87.88 13.35 84.68 C 13.19 73.45 13.31 62.21 13.19 50.97 Z"
        fill="#f5cb15"/>
    <path
        id="path_28"
        d="M 4.26 159.97 C 4.37 122.31 3.99 84.64 4.43 46.99 C 4.43 56.11 4.49 65.24 4.77 74.36 C 4.32 87.24 4.56 100.14 4.99 113.01 C 6.19 123.63 5.96 134.34 6.41 144.99 C 6.33 147.55 7.98 149.58 9.46 151.47 C 9.71 157.93 8.34 165.02 12.2 170.72 C 15.41 176.67 22.13 178.91 27.5 182.37 C 27.35 183.75 27.44 185.34 28.72 186.19 C 33.8 190.33 39.67 193.34 45.2 196.83 C 46.72 197.76 47.78 199.24 48.97 200.54 C 38.25 194.98 28.03 188.5 17.49 182.62 C 9.22 178.47 3.85 169.19 4.26 159.97 Z"
        fill="#e28502"/>
    <path
        id="path_29"
        d="M 26 91.3 C 32.49 91.21 39.01 90.96 45.48 91.62 C 41.78 92.73 37.85 91.97 34.06 92.17 C 31.37 92.06 28.44 92.73 26 91.3 Z"
        fill="#e28502"/>
    <path
        id="path_30"
        d="M 64.48 57.07 C 69.73 56.96 74.99 56.98 80.24 57 C 80.24 59.39 80.25 61.79 80.25 64.18 C 73.59 64.03 66.85 64.83 60.25 63.82 C 60.05 63.47 59.65 62.75 59.45 62.4 C 61.16 60.66 62.9 58.94 64.48 57.07 Z"
        fill="#fbeb50"/>
    <path
        id="path_31"
        d="M 47.89 131.78 C 48.89 131.76 49.89 131.73 50.89 131.72 C 50.71 132.9 50.53 134.09 50.33 135.28 C 49.58 135.46 48.09 135.81 47.34 135.98 C 47.54 134.58 47.71 133.18 47.89 131.78 Z"
        fill="#fbeb50"/>
    <path
        id="path_32"
        d="M 87.85 59.75 C 89.05 58.62 90.65 59.43 92.04 59.62 C 92.27 60.19 92.74 61.32 92.97 61.88 C 92.56 62.8 92.13 63.7 91.69 64.6 C 91.35 63.66 90.67 61.77 90.34 60.82 C 89.66 61.44 89.06 62.13 88.55 62.89 C 89.78 63.93 91.09 64.85 92.33 65.88 C 91.48 65.88 89.77 65.87 88.92 65.87 C 88.26 65.33 87.6 64.79 86.99 64.19 C 87.13 62.71 86.77 60.96 87.85 59.75 Z"
        fill="#fce749"/>
    <path
        id="path_33"
        d="M 76.25 131.74 C 77.31 131.72 78.37 131.71 79.44 131.71 C 79.34 133.65 79.26 135.59 79.25 137.54 C 78.5 137.53 77 137.5 76.25 137.48 C 76.28 135.56 76.26 133.65 76.25 131.74 Z"
        fill="#fce749"/>
    <path
        id="path_34"
        d="M 92.04 59.62 C 92.35 59.55 92.99 59.41 93.3 59.34 C 94.17 59.96 94.99 60.64 95.77 61.39 L 95.79 61.8 C 95.09 61.82 93.67 61.86 92.97 61.88 C 92.74 61.32 92.27 60.19 92.04 59.62 Z"
        fill="#745927"/>
    <path
        id="path_35"
        d="M 93.3 59.34 C 95.73 58.99 98.18 58.96 100.63 58.97 C 100.45 60.64 99.24 61.39 97.74 61.7 C 97.31 65.12 98.75 69.22 96.37 72.11 C 96.14 68.68 96.09 65.23 95.79 61.8 L 95.77 61.39 C 94.99 60.64 94.17 59.96 93.3 59.34 Z"
        fill="#fce13b"/>
    <path
        id="path_36"
        d="M 53.24 131.68 C 54.17 131.72 55.1 131.76 56.03 131.81 C 56.02 133.75 56 135.7 55.99 137.64 C 55.31 137.65 53.93 137.67 53.25 137.68 C 53.26 135.68 53.25 133.68 53.24 131.68 Z"
        fill="#fce13b"/>
    <path
        id="path_37"
        d="M 64.71 131.69 C 65.66 131.7 66.6 131.7 67.55 131.69 C 67.53 133.69 67.52 135.68 67.51 137.68 C 66.82 137.67 65.44 137.66 64.74 137.66 C 64.74 135.67 64.72 133.68 64.71 131.69 Z"
        fill="#fce13b"/>
    <path
        id="path_38"
        d="M 49.22 68.58 C 52.73 66.71 56.33 64.89 59.45 62.4 C 59.65 62.75 60.05 63.47 60.25 63.82 C 66.85 64.83 73.59 64.03 80.25 64.18 C 80.25 66.77 80.26 69.37 80.26 71.96 C 70.41 72.25 60.55 72.1 50.7 72.09 C 50.21 70.92 49.71 69.75 49.22 68.58 Z"
        fill="#fcdc32"/>
    <path
        id="path_39"
        d="M 88.92 65.87 C 89.77 65.87 91.48 65.88 92.33 65.88 C 93.69 68.2 92.02 72.38 88.9 71.29 C 86.35 70.52 86.85 67.22 87.95 65.45 C 88.3 66.42 89 68.38 89.35 69.35 C 92.06 68.76 90.48 66.81 88.92 65.87 Z"
        fill="#f8b304"/>
    <path
        id="path_40"
        d="M 92.81 88.03 C 98.69 87.38 104.63 87.88 110.53 87.75 C 112.39 88.67 111.81 90.63 111 92.1 C 104.78 92.14 98.54 92.26 92.32 91.84 C 92.19 90.52 92.35 89.25 92.81 88.03 Z"
        fill="#f8b304"/>
    <path
        id="path_41"
        d="M 25.81 89.27 C 32.5 89.26 39.2 89.16 45.89 89.32 L 45.97 89.32 C 45.85 89.89 45.6 91.05 45.48 91.62 C 39.01 90.96 32.49 91.21 26 91.3 C 25.95 90.79 25.86 89.78 25.81 89.27 Z"
        fill="#f8b304"/>
    <path
        id="path_42"
        d="M 22.79 66.51 C 25.26 69.34 27.21 72.55 28.87 75.91 C 28.28 76.47 27.68 77.04 27.08 77.6 C 26.72 77.91 26.01 78.55 25.65 78.86 C 25.9 79.51 26.38 80.79 26.63 81.44 C 32.6 82.54 38.73 81.93 44.76 81.83 C 48.58 90.23 53.78 97.88 58.16 105.98 C 56.59 105.97 55.02 105.96 53.46 105.95 L 53.46 107.37 C 53.48 111.11 53.49 114.85 53.51 118.59 C 65.05 118.62 76.6 118.6 88.14 118.61 C 87.89 119.01 87.39 119.81 87.14 120.21 C 80.28 120.18 73.37 119.5 66.55 120.62 C 68.43 123.92 70.4 127.16 72.51 130.33 C 71.91 130.54 70.72 130.96 70.13 131.17 L 70.06 131.76 C 69.93 134 69.93 136.26 69.94 138.51 C 69.97 142.2 70 145.88 70.07 149.56 C 70.72 149.6 72.02 149.67 72.67 149.7 C 71.8 153.27 74.18 156.24 75.92 159.09 C 77.52 161.55 78.65 164.25 79.94 166.86 C 80.86 167.74 81.8 168.59 82.7 169.49 C 82.33 170.74 81.96 172 81.6 173.26 C 82.08 172.94 83.05 172.29 83.53 171.97 C 85 174.7 86.53 177.4 88.11 180.08 C 84.51 182.17 80.9 184.26 77.3 186.36 C 76.03 184.12 74.86 181.83 73.92 179.43 C 73.38 177.35 72.93 175.24 72.44 173.15 C 74.13 171.79 75.83 170.45 77.52 169.08 C 75.34 169.02 73.17 168.99 70.99 168.95 C 70.32 167.11 69.6 165.29 68.84 163.49 C 68.3 164.96 67.76 166.43 67.22 167.91 C 62.94 162.12 60.15 155.43 55.98 149.58 C 55.98 145.6 56 141.62 55.99 137.64 C 56 135.7 56.02 133.75 56.03 131.81 C 55.1 131.76 54.17 131.72 53.24 131.68 C 53.25 133.68 53.26 135.68 53.25 137.68 C 53.24 139.56 53.23 141.44 53.23 143.33 C 52.08 141.93 50.92 140.55 49.75 139.18 C 49.89 138.21 50.18 136.26 50.33 135.28 C 50.53 134.09 50.71 132.9 50.89 131.72 C 49.89 131.73 48.89 131.76 47.89 131.78 C 47.71 133.18 47.54 134.58 47.34 135.98 C 47.13 137.19 46.92 138.39 46.71 139.59 C 46.61 138.95 46.43 137.66 46.33 137.02 C 46.09 135.3 45.86 133.58 45.64 131.87 C 44.65 131.8 43.66 131.71 42.68 131.64 C 42.4 133.87 42.12 136.11 41.78 138.34 C 41.69 138.55 41.52 138.98 41.44 139.19 L 41.2 138.07 C 40.88 135.95 40.7 133.83 40.39 131.72 C 40.01 129.41 38.95 127.29 37.76 125.31 C 34.12 119.25 30.45 113.21 27.14 106.97 C 26.06 104.86 24.45 103.11 22.73 101.5 C 22.68 89.84 22.72 78.18 22.79 66.51 M 25.81 89.27 C 25.86 89.78 25.95 90.79 26 91.3 C 28.44 92.73 31.37 92.06 34.06 92.17 C 37.85 91.97 41.78 92.73 45.48 91.62 C 45.6 91.05 45.85 89.89 45.97 89.32 L 45.89 89.32 C 45.45 88.96 44.57 88.24 44.13 87.88 C 40.12 87.41 36.05 87.87 32.01 87.7 C 29.88 87.77 27.28 87.3 25.81 89.27 M 26.41 98.87 C 26.19 99.19 25.75 99.85 25.52 100.17 C 25.91 100.72 26.67 101.82 27.06 102.36 C 32.33 102.81 37.65 102.54 42.94 102.54 C 44.63 102.59 45.74 101.78 46.29 100.1 L 45.48 99.04 C 43.12 97.05 39.78 98.27 36.98 97.99 C 33.49 98.34 29.63 97.14 26.41 98.87 M 58 131.89 L 58.49 132.26 C 58.49 134.42 58.5 136.58 58.49 138.74 C 58.49 142.35 58.5 145.96 58.54 149.57 C 59.21 149.57 60.56 149.57 61.24 149.57 C 61.23 146.29 61.23 143.02 61.32 139.75 C 62.55 142.97 63.57 146.27 64.62 149.56 C 65.57 149.57 66.52 149.58 67.48 149.59 C 67.5 145.62 67.53 141.65 67.51 137.68 C 67.52 135.68 67.53 133.69 67.55 131.69 C 66.6 131.7 65.66 131.7 64.71 131.69 C 64.72 133.68 64.74 135.67 64.74 137.66 C 64.76 138.59 64.79 140.46 64.81 141.39 C 64.43 140.51 64.07 139.64 63.7 138.76 C 63.38 137.65 63.07 136.53 62.76 135.42 C 62.38 134.16 62 132.9 61.62 131.64 C 60.41 131.72 59.2 131.8 58 131.89 Z"
        fill="#2a2625"/>
    <path
        id="path_43"
        d="M 128.56 67.52 C 131.29 71.09 130.84 75.82 131.51 80.03 C 132.47 86.53 131.01 93.31 133.26 99.6 C 133.8 110.72 133.33 121.91 133.5 133.06 C 133.44 137.56 133.73 142.07 133.26 146.56 C 131.51 139.43 132.51 131.85 129.72 124.92 C 129.32 127.4 128.89 129.88 128.59 132.38 C 128.56 130.05 128.47 127.72 128.46 125.39 C 128.46 117.02 128.54 108.65 128.5 100.28 C 128.49 99.5 128.45 97.94 128.44 97.16 C 128.53 87.28 128.46 77.4 128.56 67.52 Z"
        fill="#eba901"/>
    <path
        id="path_44"
        d="M 50.7 72.09 C 60.55 72.1 70.41 72.25 80.26 71.96 C 80.26 75.32 80.26 78.69 80.27 82.05 C 74.6 82.26 68.92 82.42 63.27 81.89 C 62.98 79.55 62.61 77.22 62.3 74.88 C 59.39 76.22 56.5 77.61 53.6 78.99 C 52.65 76.68 51.68 74.38 50.7 72.09 Z"
        fill="#fbcd1b"/>
    <path
        id="path_45"
        d="M 37.9 135.27 C 39.01 136.19 40.12 137.11 41.2 138.07 L 41.44 139.19 C 41.52 138.98 41.69 138.55 41.78 138.34 C 42.45 137.4 43.15 136.48 43.87 135.58 C 44.49 135.94 45.72 136.66 46.33 137.02 C 46.43 137.66 46.61 138.95 46.71 139.59 C 46.92 138.39 47.13 137.19 47.34 135.98 C 48.09 135.81 49.58 135.46 50.33 135.28 C 50.18 136.26 49.89 138.21 49.75 139.18 C 49.71 139.44 49.64 139.95 49.6 140.21 C 45.97 140.2 42.34 140.19 38.71 140.2 C 38.44 138.56 38.17 136.91 37.9 135.27 Z"
        fill="#fbcd1b"/>
    <path
        id="path_46"
        d="M 124.8 72.47 C 125.93 73.88 127.57 75.19 127.57 77.17 C 128.05 83.82 127.51 90.53 128.44 97.16 C 128.45 97.94 128.49 99.5 128.5 100.28 C 127.25 98.83 126 97.37 124.74 95.92 C 124.74 92.7 124.73 89.48 124.75 86.27 C 124.77 81.67 124.76 77.07 124.8 72.47 Z"
        fill="#1e1716"/>
    <path
        id="path_47"
        d="M 4.77 74.36 L 5.66 75.25 C 5.64 84.86 6.05 94.46 6.31 104.07 C 6.13 106.44 7.89 108.09 9.47 109.56 C 9.57 114.89 9.35 120.23 9.6 125.56 C 9.44 134.19 9.52 142.83 9.46 151.47 C 7.98 149.58 6.33 147.55 6.41 144.99 C 5.96 134.34 6.19 123.63 4.99 113.01 C 4.56 100.14 4.32 87.24 4.77 74.36 Z"
        fill="#ea9e00"/>
    <path
        id="path_48"
        d="M 5.66 75.25 C 9.78 78.22 8.43 83.94 9.46 88.29 C 9.61 95.38 9.46 102.47 9.47 109.56 C 7.89 108.09 6.13 106.44 6.31 104.07 C 6.05 94.46 5.64 84.86 5.66 75.25 Z"
        fill="#efb104"/>
    <path
        id="path_49"
        d="M 62.3 74.88 C 62.61 77.22 62.98 79.55 63.27 81.89 C 68.92 82.42 74.6 82.26 80.27 82.05 C 80.28 89.08 80.3 96.1 80.27 103.13 C 74.7 103.16 69.13 103.08 63.56 103.26 C 63.29 104.54 63.03 105.83 62.76 107.12 C 59.66 107.31 56.56 107.45 53.46 107.37 L 53.46 105.95 C 55.02 105.96 56.59 105.97 58.16 105.98 C 59.53 105.98 60.89 105.99 62.26 106 C 62.29 95.63 62.14 85.25 62.3 74.88 Z"
        fill="#f8b404"/>
    <path
        id="path_50"
        d="M 81.29 75.1 C 84.04 78.96 86.31 83.12 88.57 87.28 C 90.78 91.43 94.52 94.43 97.31 98.16 C 95.4 98.26 93.18 97.94 91.8 99.58 C 91.99 100.17 92.39 101.36 92.58 101.95 L 93.07 102.78 L 93.57 103.6 C 95.22 103.99 96.89 104.29 98.56 104.61 C 104.39 113.68 108.79 123.64 115.26 132.31 C 115.31 140.9 115.18 149.48 115.28 158.06 C 115.33 160.35 115.1 162.66 114.12 164.76 C 107.32 158.29 105.21 148.46 98.8 141.65 C 99.1 139.8 99.48 137.96 99.79 136.11 C 99.75 132.51 96.43 131.23 93.35 131.68 C 91.66 127.66 89.52 123.86 87.14 120.21 C 87.39 119.81 87.89 119.01 88.14 118.61 C 88.37 114.85 88.25 111.08 88.26 107.31 L 88.25 106 C 85.82 106 83.39 105.98 80.95 105.98 C 81.07 95.69 81.05 85.39 81.29 75.1 Z"
        fill="#2f2c2b"/>
    <path
        id="path_51"
        d="M 118.04 75.71 C 120.32 79.2 122.51 82.75 124.75 86.27 C 124.73 89.48 124.74 92.7 124.74 95.92 C 124.54 104.43 125.2 112.98 124.48 121.47 L 124.32 122.58 C 124.05 118.38 124.17 114.16 123.86 109.97 C 123.55 105.53 120.31 102.15 117.88 98.68 C 117.7 91.02 118.09 83.37 118.04 75.71 Z"
        fill="#edaa00"/>
    <path
        id="path_52"
        d="M 92.63 81.82 C 92.54 80.29 91.34 77.37 93.97 77.56 C 99.86 77.3 105.77 77.49 111.66 77.63 C 111.63 78.5 111.56 80.24 111.52 81.11 C 105.46 82.75 98.89 81.3 92.63 81.82 Z"
        fill="#fac00e"/>
    <path
        id="path_53"
        d="M 25.65 78.86 C 32.5 78.6 39.36 78.79 46.21 78.73 C 45.96 79.27 45.46 80.37 45.21 80.92 C 39.02 81.35 32.8 80.74 26.63 81.44 C 26.38 80.79 25.9 79.51 25.65 78.86 Z"
        fill="#f8b609"/>
    <path
        id="path_54"
        d="M 26.63 81.44 C 32.8 80.74 39.02 81.35 45.21 80.92 L 44.76 81.83 C 38.73 81.93 32.6 82.54 26.63 81.44 Z"
        fill="#da8103"/>
    <path
        id="path_55"
        d="M 9.49 81.55 C 10.76 83.04 12.04 84.53 13.33 86 C 13.08 97.55 13.27 109.1 13.31 120.65 C 13.17 127.56 13.29 134.47 13.21 141.38 C 9.29 136.93 10.98 130.84 9.6 125.56 C 9.35 120.23 9.57 114.89 9.47 109.56 C 9.46 102.47 9.61 95.38 9.46 88.29 C 9.47 86.05 9.5 83.8 9.49 81.55 Z"
        fill="#251e1d"/>
    <path
        id="path_56"
        d="M 20.25 83.41 C 20.98 85.19 21.8 86.99 21.72 88.96 C 21.82 95.11 21.24 101.32 22.67 107.36 C 22.88 112.13 22.73 116.91 22.78 121.68 C 22.64 133.79 22.97 145.9 22.41 158 C 22.19 161.04 22.69 164.76 25.76 166.26 C 37.47 173.06 49.24 179.76 60.96 186.53 C 63.23 187.85 65.41 189.45 67.98 190.14 C 70.51 190.57 72.7 188.9 74.82 187.81 C 74.84 188.61 74.87 190.22 74.89 191.02 C 71.37 192.93 66.95 193.75 63.46 191.27 C 57 186.93 49.89 183.7 43.27 179.62 C 37.15 175.6 30.52 172.48 24.27 168.68 C 21.55 167.12 19.68 164.2 19.69 161.02 C 19.4 152.57 20.08 144.12 19.78 135.67 C 19.77 124.85 20.54 114.01 19.97 103.19 C 19.51 96.6 20.38 90.01 20.25 83.41 Z"
        fill="#d28407"/>
    <path
        id="path_57"
        d="M 13.35 84.68 C 13.82 87.88 14.13 91.12 14.86 94.27 C 15.99 97.54 18.35 100.18 19.97 103.19 C 20.54 114.01 19.77 124.85 19.78 135.67 C 15.23 132 13.87 126.2 13.31 120.65 C 13.27 109.1 13.08 97.55 13.33 86 L 13.35 84.68 Z"
        fill="#edac01"/>
    <path
        id="path_58"
        d="M 124.74 95.92 C 126 97.37 127.25 98.83 128.5 100.28 C 128.54 108.65 128.46 117.02 128.46 125.39 C 127.13 124.08 125.81 122.77 124.48 121.47 C 125.2 112.98 124.54 104.43 124.74 95.92 Z"
        fill="#2a2422"/>
    <path
        id="path_59"
        d="M 26.41 98.87 C 29.63 97.14 33.49 98.34 36.98 97.99 C 39.78 98.27 43.12 97.05 45.48 99.04 C 39.12 98.92 32.76 99.06 26.41 98.87 Z"
        fill="#c6be7a"/>
    <path
        id="path_60"
        d="M 25.52 100.17 C 25.75 99.85 26.19 99.19 26.41 98.87 C 32.76 99.06 39.12 98.92 45.48 99.04 L 46.29 100.1 C 39.37 100.15 32.44 100.08 25.52 100.17 Z"
        fill="#fbd83f"/>
    <path
        id="path_61"
        d="M 117.88 98.68 C 120.31 102.15 123.55 105.53 123.86 109.97 C 124.17 114.16 124.05 118.38 124.32 122.58 C 124.11 124.02 123.81 125.44 123.52 126.87 C 121.62 123.79 119.67 120.75 117.81 117.64 C 117.71 111.32 117.83 105 117.88 98.68 Z"
        fill="#f1b90a"/>
    <path
        id="path_62"
        d="M 25.52 100.17 C 32.44 100.08 39.37 100.15 46.29 100.1 C 45.74 101.78 44.63 102.59 42.94 102.54 C 37.65 102.54 32.33 102.81 27.06 102.36 C 26.67 101.82 25.91 100.72 25.52 100.17 Z"
        fill="#f6af06"/>
    <path
        id="path_63"
        d="M 91.8 99.58 C 98.26 99.66 104.75 99.15 111.19 99.74 C 111.34 100.3 111.62 101.42 111.76 101.97 C 105.37 102.16 98.97 102.36 92.58 101.95 C 92.39 101.36 91.99 100.17 91.8 99.58 Z"
        fill="#f8b504"/>
    <path
        id="path_64"
        d="M 96.31 135.18 C 97.46 135.51 98.62 135.82 99.79 136.11 C 99.48 137.96 99.1 139.8 98.8 141.65 C 98.68 144.36 99.47 146.97 100.17 149.55 C 99.38 149.54 97.8 149.53 97.01 149.53 C 96.48 146.97 95.97 144.33 94.36 142.2 C 94.1 144.67 93.91 147.15 93.83 149.63 C 93.2 149.61 91.94 149.57 91.31 149.55 C 91.26 145.41 91.24 141.27 91.26 137.13 C 92.17 136.58 93.07 136.02 93.97 135.45 C 93.96 137.1 94.02 138.76 94.12 140.41 C 96.74 139.79 97.47 137.46 96.31 135.18 Z"
        fill="#f8b504"/>
    <path
        id="path_65"
        d="M 93.01 164.22 C 94.36 163.97 95.54 163.37 96.46 162.34 C 96.99 163.42 97.87 164.02 99.09 164.16 C 98.4 165.32 97.96 166.58 97.66 167.89 C 97.24 167.59 96.41 167 95.99 166.7 C 95.7 167.01 95.14 167.64 94.85 167.95 C 94.71 167.41 94.43 166.33 94.29 165.79 C 93.97 165.4 93.33 164.62 93.01 164.22 Z"
        fill="#f8b504"/>
    <path
        id="path_66"
        d="M 111.9 100.64 C 112.94 102.24 114.12 103.74 115.32 105.23 C 115.28 114.25 115.3 123.28 115.26 132.31 C 108.79 123.64 104.39 113.68 98.56 104.61 C 96.89 104.29 95.22 103.99 93.57 103.6 L 93.07 102.78 C 99.26 102.51 105.84 104.03 111.76 101.97 C 111.8 101.64 111.86 100.98 111.9 100.64 Z"
        fill="#282323"/>
    <path
        id="path_67"
        d="M 22.73 101.5 C 24.45 103.11 26.06 104.86 27.14 106.97 C 30.45 113.21 34.12 119.25 37.76 125.31 C 38.95 127.29 40.01 129.41 40.39 131.72 C 39.62 131.73 38.1 131.74 37.34 131.75 C 37.53 132.92 37.71 134.1 37.9 135.27 C 38.17 136.91 38.44 138.56 38.71 140.2 C 39.18 143.04 39.6 145.89 39.99 148.75 C 32.78 140.73 29.44 130.11 22.78 121.68 C 22.73 116.91 22.88 112.13 22.67 107.36 C 22.67 105.41 22.72 103.46 22.73 101.5 Z"
        fill="#211b1a"/>
    <path
        id="path_68"
        d="M 92.58 101.95 C 98.97 102.36 105.37 102.16 111.76 101.97 C 105.84 104.03 99.26 102.51 93.07 102.78 L 92.58 101.95 Z"
        fill="#a56008"/>
    <path
        id="path_69"
        d="M 63.56 103.26 C 69.13 103.08 74.7 103.16 80.27 103.13 C 80.27 103.84 80.29 105.27 80.3 105.98 L 80.35 107.12 C 82.98 107.29 85.62 107.3 88.26 107.31 C 88.25 111.08 88.37 114.85 88.14 118.61 C 76.6 118.6 65.05 118.62 53.51 118.59 C 53.49 114.85 53.48 111.11 53.46 107.37 C 56.56 107.45 59.66 107.31 62.76 107.12 C 63.03 105.83 63.29 104.54 63.56 103.26 Z"
        fill="#f5a101"/>
    <path
        id="path_70"
        d="M 81.75 138.58 C 83.84 139.06 85.92 139.59 88 140.15 C 87.98 140.7 87.94 141.81 87.93 142.37 C 87.07 142.37 85.37 142.38 84.51 142.39 C 84.52 143.32 84.52 145.19 84.52 146.12 C 86.13 146.16 87.73 146.2 89.34 146.24 C 89.27 147.36 89.21 148.48 89.15 149.61 C 86.66 149.59 84.18 149.57 81.69 149.5 C 81.72 145.86 81.74 142.22 81.75 138.58 Z"
        fill="#f5a101"/>
    <path
        id="path_71"
        d="M 115.33 103.64 C 117.88 112.08 114.54 121.22 117.76 129.49 C 118.04 132.9 118.01 136.32 118.09 139.74 C 118.23 147.15 117.67 154.56 118.16 161.96 C 117.46 164.91 115.69 167.56 112.9 168.89 C 105.76 172.62 99.06 177.11 92.03 181.02 C 86.84 183.73 82.07 187.15 76.95 189.96 C 76.43 190.23 75.4 190.75 74.89 191.02 C 74.87 190.22 74.84 188.61 74.82 187.81 C 75.65 187.33 76.48 186.84 77.3 186.36 C 80.9 184.26 84.51 182.17 88.11 180.08 C 91.6 178.05 95.08 176.01 98.57 174 C 103.73 170.87 109.15 168.19 114.12 164.76 C 115.1 162.66 115.33 160.35 115.28 158.06 C 115.18 149.48 115.31 140.9 115.26 132.31 C 115.3 123.28 115.28 114.25 115.32 105.23 L 115.33 103.64 Z"
        fill="#e19d02"/>
    <path
        id="path_72"
        d="M 80.3 105.98 L 80.95 105.98 C 83.39 105.98 85.82 106 88.25 106 L 88.26 107.31 C 85.62 107.3 82.98 107.29 80.35 107.12 L 80.3 105.98 Z"
        fill="#fccb06"/>
    <path
        id="path_73"
        d="M 117.81 117.64 C 119.67 120.75 121.62 123.79 123.52 126.87 C 123.81 125.44 124.11 124.02 124.32 122.58 L 124.48 121.47 C 125.01 130.3 124.64 139.16 124.76 148 C 124.66 153.09 125.12 158.21 124.42 163.28 C 124.17 159.51 124 155.73 123.78 151.96 C 123.71 147.23 120.19 143.69 118.09 139.74 C 118.01 136.32 118.04 132.9 117.76 129.49 C 117.72 125.54 117.81 121.59 117.81 117.64 Z"
        fill="#f4c714"/>
    <path
        id="path_74"
        d="M 66.55 120.62 C 73.37 119.5 80.28 120.18 87.14 120.21 C 89.52 123.86 91.66 127.66 93.35 131.68 C 92.82 131.68 91.77 131.68 91.24 131.68 C 91.25 133.49 91.26 135.31 91.26 137.13 C 91.24 141.27 91.26 145.41 91.31 149.55 C 91.94 149.57 93.2 149.61 93.83 149.63 C 93.91 147.15 94.1 144.67 94.36 142.2 C 95.97 144.33 96.48 146.97 97.01 149.53 C 97.8 149.53 99.38 149.54 100.17 149.55 C 99.47 146.97 98.68 144.36 98.8 141.65 C 105.21 148.46 107.32 158.29 114.12 164.76 C 109.15 168.19 103.73 170.87 98.57 174 C 97.32 171.99 95.93 170.06 94.85 167.95 C 95.14 167.64 95.7 167.01 95.99 166.7 C 96.41 167 97.24 167.59 97.66 167.89 C 97.96 166.58 98.4 165.32 99.09 164.16 C 97.87 164.02 96.99 163.42 96.46 162.34 C 95.54 163.37 94.36 163.97 93.01 164.22 C 90.51 160.28 88.44 156.07 86 152.09 C 87.06 151.28 88.11 150.45 89.15 149.61 C 89.21 148.48 89.27 147.36 89.34 146.24 C 87.73 146.2 86.13 146.16 84.52 146.12 C 84.52 145.19 84.52 143.32 84.51 142.39 C 85.37 142.38 87.07 142.37 87.93 142.37 C 87.94 141.81 87.98 140.7 88 140.15 L 88.04 139.05 C 87.13 139.02 85.33 138.98 84.42 138.96 C 84.46 137.59 84.5 136.21 84.53 134.84 C 86.13 134.8 87.73 134.75 89.33 134.73 C 89.29 133.73 89.25 132.74 89.22 131.74 C 86.66 131.74 84.11 131.72 81.56 131.69 C 80.9 135.45 80.61 139.26 80.51 143.07 C 80.38 139.27 80.02 135.47 79.44 131.71 C 78.37 131.71 77.31 131.72 76.25 131.74 C 76.26 133.65 76.28 135.56 76.25 137.48 C 76.23 138.4 76.17 140.23 76.15 141.15 C 75.89 140.38 75.63 139.6 75.37 138.83 C 74.59 136.49 73.88 134.13 73.21 131.77 C 72.42 131.76 70.85 131.76 70.06 131.76 L 70.13 131.17 C 70.72 130.96 71.91 130.54 72.51 130.33 C 70.4 127.16 68.43 123.92 66.55 120.62 Z"
        fill="#373534"/>
    <path
        id="path_75"
        d="M 13.31 120.65 C 13.87 126.2 15.23 132 19.78 135.67 C 20.08 144.12 19.4 152.57 19.69 161.02 C 19.68 164.2 21.55 167.12 24.27 168.68 C 30.52 172.48 37.15 175.6 43.27 179.62 C 42.03 181.4 40.78 183.17 39.53 184.93 C 33.33 181.36 27.14 177.78 20.96 174.2 C 16.28 171.62 13.25 166.33 13.26 161.01 C 13.22 154.47 13.29 147.92 13.21 141.38 C 13.29 134.47 13.17 127.56 13.31 120.65 Z"
        fill="#e79600"/>
    <path
        id="path_76"
        d="M 22.78 121.68 C 29.44 130.11 32.78 140.73 39.99 148.75 C 40.09 148.94 40.31 149.31 40.42 149.49 C 40.98 149.57 42.1 149.73 42.66 149.81 C 42.3 151.73 42.54 153.72 43.65 155.37 C 45.89 159.1 48.15 162.81 50.22 166.63 C 49.58 166.69 48.32 166.81 47.68 166.87 C 48.68 167.59 49.61 168.39 50.45 169.3 C 50.16 170.63 49.87 171.97 49.59 173.31 C 50.69 172.5 51.8 171.71 52.9 170.92 C 53.13 171.13 53.58 171.54 53.81 171.74 C 55.77 176.89 59.33 181.25 60.96 186.53 C 49.24 179.76 37.47 173.06 25.76 166.26 C 22.69 164.76 22.19 161.04 22.41 158 C 22.97 145.9 22.64 133.79 22.78 121.68 M 41.13 161.67 C 41.08 162.26 40.98 163.43 40.93 164.02 C 40.27 163.99 38.95 163.93 38.29 163.9 C 39.55 164.91 40.17 166.29 40.18 167.9 C 41.24 166.48 42.56 167.29 43.79 167.92 C 42.74 166.22 43.63 165.04 45.12 164.15 C 44.46 164.06 43.14 163.88 42.47 163.79 C 42.14 163.26 41.47 162.2 41.13 161.67 Z"
        fill="#181211"/>
    <path
        id="path_77"
        d="M 124.48 121.47 C 125.81 122.77 127.13 124.08 128.46 125.39 C 128.47 127.72 128.56 130.05 128.59 132.38 C 128.42 138.69 128.5 145.01 128.49 151.32 C 127.24 150.21 126 149.11 124.76 148 C 124.64 139.16 125.01 130.3 124.48 121.47 Z"
        fill="#36302f"/>
    <path
        id="path_78"
        d="M 129.72 124.92 C 132.51 131.85 131.51 139.43 133.26 146.56 C 133.46 153.52 134.14 160.7 132.69 167.57 L 132.57 166.66 C 132.01 162 131.3 157.31 129.54 152.92 C 129.48 156.38 129.23 159.84 128.46 163.22 C 128.57 159.25 128.48 155.29 128.49 151.32 C 128.5 145.01 128.42 138.69 128.59 132.38 C 128.89 129.88 129.32 127.4 129.72 124.92 Z"
        fill="#f3c312"/>
    <path
        id="path_79"
        d="M 37.34 131.75 C 38.1 131.74 39.62 131.73 40.39 131.72 C 40.7 133.83 40.88 135.95 41.2 138.07 C 40.12 137.11 39.01 136.19 37.9 135.27 C 37.71 134.1 37.53 132.92 37.34 131.75 Z"
        fill="#fce849"/>
    <path
        id="path_80"
        d="M 42.68 131.64 C 43.66 131.71 44.65 131.8 45.64 131.87 C 45.86 133.58 46.09 135.3 46.33 137.02 C 45.72 136.66 44.49 135.94 43.87 135.58 C 43.15 136.48 42.45 137.4 41.78 138.34 C 42.12 136.11 42.4 133.87 42.68 131.64 Z"
        fill="#fce849"/>
    <path
        id="path_81"
        d="M 91.24 131.68 C 91.77 131.68 92.82 131.68 93.35 131.68 C 96.43 131.23 99.75 132.51 99.79 136.11 C 98.62 135.82 97.46 135.51 96.31 135.18 C 95.83 135.01 94.87 134.66 94.39 134.48 L 93.97 135.45 C 93.07 136.02 92.17 136.58 91.26 137.13 C 91.26 135.31 91.25 133.49 91.24 131.68 Z"
        fill="#fce849"/>
    <path
        id="path_82"
        d="M 58.49 132.26 C 59.92 133.31 61.34 134.37 62.76 135.42 C 63.07 136.53 63.38 137.65 63.7 138.76 C 61.97 138.75 60.23 138.75 58.49 138.74 C 58.5 136.58 58.49 134.42 58.49 132.26 Z"
        fill="#fcd324"/>
    <path
        id="path_83"
        d="M 70.06 131.76 C 70.85 131.76 72.42 131.76 73.21 131.77 C 73.88 134.13 74.59 136.49 75.37 138.83 C 73.56 138.71 71.75 138.61 69.94 138.51 C 69.93 136.26 69.93 134 70.06 131.76 Z"
        fill="#fcdb2f"/>
    <path
        id="path_84"
        d="M 79.44 131.71 C 80.02 135.47 80.38 139.27 80.51 143.07 C 80.61 139.26 80.9 135.45 81.56 131.69 C 81.68 133.98 81.75 136.28 81.75 138.58 C 81.74 142.22 81.72 145.86 81.69 149.5 C 84.18 149.57 86.66 149.59 89.15 149.61 C 88.11 150.45 87.06 151.28 86 152.09 C 88.44 156.07 90.51 160.28 93.01 164.22 C 93.33 164.62 93.97 165.4 94.29 165.79 C 94.43 166.33 94.71 167.41 94.85 167.95 C 95.93 170.06 97.32 171.99 98.57 174 C 95.08 176.01 91.6 178.05 88.11 180.08 C 86.53 177.4 85 174.7 83.53 171.97 C 83.89 171.73 84.63 171.26 85 171.02 C 86.15 171.72 87.27 172.47 88.4 173.21 C 88 171.92 87.61 170.64 87.22 169.35 C 88.26 168.53 89.32 167.72 90.37 166.92 C 89.31 166.84 87.2 166.67 86.14 166.58 C 86.11 166.21 86.05 165.48 86.02 165.11 C 87 162.49 83.17 162.55 84.01 165.12 L 83.98 166.53 C 82.63 166.67 81.29 166.78 79.94 166.86 C 78.65 164.25 77.52 161.55 75.92 159.09 C 74.18 156.24 71.8 153.27 72.67 149.7 C 72.96 146.61 73.06 143.51 73.14 140.41 C 74.21 143.45 74.99 146.62 76.52 149.47 C 77.2 149.54 78.56 149.67 79.23 149.74 C 79.26 145.67 79.26 141.61 79.25 137.54 C 79.26 135.59 79.34 133.65 79.44 131.71 Z"
        fill="#322e2c"/>
    <path
        id="path_85"
        d="M 81.56 131.69 C 84.11 131.72 86.66 131.74 89.22 131.74 C 89.25 132.74 89.29 133.73 89.33 134.73 C 87.73 134.75 86.13 134.8 84.53 134.84 C 84.5 136.21 84.46 137.59 84.42 138.96 C 85.33 138.98 87.13 139.02 88.04 139.05 L 88 140.15 C 85.92 139.59 83.84 139.06 81.75 138.58 C 81.75 136.28 81.68 133.98 81.56 131.69 Z"
        fill="#fbe749"/>
    <path
        id="path_86"
        d="M 94.39 134.48 C 94.87 134.66 95.83 135.01 96.31 135.18 C 97.47 137.46 96.74 139.79 94.12 140.41 C 94.02 138.76 93.96 137.1 93.97 135.45 L 94.39 134.48 Z"
        fill="#4f442b"/>
    <path
        id="path_87"
        d="M 53.25 137.68 C 53.93 137.67 55.31 137.65 55.99 137.64 C 56 141.62 55.98 145.6 55.98 149.58 C 55.31 149.58 53.97 149.59 53.3 149.59 C 53.28 147.5 53.24 145.41 53.23 143.33 C 53.23 141.44 53.24 139.56 53.25 137.68 Z"
        fill="#f7b203"/>
    <path
        id="path_88"
        d="M 64.74 137.66 C 65.44 137.66 66.82 137.67 67.51 137.68 C 67.53 141.65 67.5 145.62 67.48 149.59 C 66.52 149.58 65.57 149.57 64.62 149.56 C 63.57 146.27 62.55 142.97 61.32 139.75 C 61.23 143.02 61.23 146.29 61.24 149.57 C 60.56 149.57 59.21 149.57 58.54 149.57 C 58.5 145.96 58.49 142.35 58.49 138.74 C 60.23 138.75 61.97 138.75 63.7 138.76 C 64.07 139.64 64.43 140.51 64.81 141.39 C 64.79 140.46 64.76 138.59 64.74 137.66 Z"
        fill="#f7af03"/>
    <path
        id="path_89"
        d="M 76.25 137.48 C 77 137.5 78.5 137.53 79.25 137.54 C 79.26 141.61 79.26 145.67 79.23 149.74 C 78.56 149.67 77.2 149.54 76.52 149.47 C 74.99 146.62 74.21 143.45 73.14 140.41 C 73.06 143.51 72.96 146.61 72.67 149.7 C 72.02 149.67 70.72 149.6 70.07 149.56 C 70 145.88 69.97 142.2 69.94 138.51 C 71.75 138.61 73.56 138.71 75.37 138.83 C 75.63 139.6 75.89 140.38 76.15 141.15 C 76.17 140.23 76.23 138.4 76.25 137.48 Z"
        fill="#f7af03"/>
    <path
        id="path_90"
        d="M 38.71 140.2 C 42.34 140.19 45.97 140.2 49.6 140.21 C 49.15 143.19 48.89 146.22 48.09 149.13 C 47.26 149.4 46.42 149.63 45.57 149.84 C 45.13 147.07 44.69 144.3 44.23 141.54 C 43.7 144.3 43.16 147.05 42.66 149.81 C 42.1 149.73 40.98 149.57 40.42 149.49 C 40.31 149.31 40.09 148.94 39.99 148.75 C 39.6 145.89 39.18 143.04 38.71 140.2 Z"
        fill="#f7af03"/>
    <path
        id="path_91"
        d="M 49.6 140.21 C 49.64 139.95 49.71 139.44 49.75 139.18 C 50.92 140.55 52.08 141.93 53.23 143.33 C 53.24 145.41 53.28 147.5 53.3 149.59 C 53.97 149.59 55.31 149.58 55.98 149.58 C 60.15 155.43 62.94 162.12 67.22 167.91 C 67.13 168.16 66.94 168.66 66.85 168.9 C 64.73 169.02 62.61 169.02 60.49 169.09 C 62.05 170.54 63.77 171.78 65.44 173.1 C 64.87 175.14 64.41 177.21 63.82 179.25 C 65.55 178 67.3 176.78 69.02 175.52 C 70.67 176.8 72.33 178.07 73.92 179.43 C 74.86 181.83 76.03 184.12 77.3 186.36 C 76.48 186.84 75.65 187.33 74.82 187.81 C 72.7 188.9 70.51 190.57 67.98 190.14 C 65.41 189.45 63.23 187.85 60.96 186.53 C 59.33 181.25 55.77 176.89 53.81 171.74 C 54.39 172.14 55.54 172.95 56.12 173.35 C 55.78 172 55.43 170.66 55.09 169.32 C 56.17 168.48 57.24 167.64 58.32 166.81 C 57.3 166.79 55.25 166.77 54.23 166.75 L 54.1 165.95 C 54.68 163.89 51.84 161.63 51.92 164.83 L 51.68 166.35 C 51.31 166.42 50.58 166.56 50.22 166.63 C 48.15 162.81 45.89 159.1 43.65 155.37 C 42.54 153.72 42.3 151.73 42.66 149.81 C 43.16 147.05 43.7 144.3 44.23 141.54 C 44.69 144.3 45.13 147.07 45.57 149.84 C 46.42 149.63 47.26 149.4 48.09 149.13 C 48.89 146.22 49.15 143.19 49.6 140.21 Z"
        fill="#231d1b"/>
    <path
        id="path_92"
        d="M 118.09 139.74 C 120.19 143.69 123.71 147.23 123.78 151.96 C 124 155.73 124.17 159.51 124.42 163.28 C 124.03 165.12 123.25 166.85 122.55 168.58 C 121.03 166.41 119.5 164.25 118.16 161.96 C 117.67 154.56 118.23 147.15 118.09 139.74 Z"
        fill="#f7d61e"/>
    <path
        id="path_93"
        d="M 124.76 148 C 126 149.11 127.24 150.21 128.49 151.32 C 128.48 155.29 128.57 159.25 128.46 163.22 C 127.79 166.86 126.15 170.24 124.05 173.27 C 122.28 175.16 120.22 176.75 117.95 177.99 C 108.27 183.41 98.78 189.18 89.13 194.67 C 88.79 194.86 88.1 195.23 87.76 195.42 C 88.56 193.41 89.64 191.51 91.25 190.04 C 98.62 186.31 105.48 181.64 112.74 177.68 C 116.27 175.55 120.85 173.95 122.09 169.55 C 122.21 169.31 122.43 168.82 122.55 168.58 C 123.25 166.85 124.03 165.12 124.42 163.28 C 125.12 158.21 124.66 153.09 124.76 148 Z"
        fill="#44403f"/>
    <path
        id="path_94"
        d="M 129.54 152.92 C 131.3 157.31 132.01 162 132.57 166.66 C 131.37 174.15 125.5 180.8 118.38 183.42 C 119.88 181.24 122.01 179.63 123.87 177.78 C 125.12 176.58 123.94 174.7 124.05 173.27 C 126.15 170.24 127.79 166.86 128.46 163.22 C 129.23 159.84 129.48 156.38 129.54 152.92 Z"
        fill="#f7d41e"/>
    <path
        id="path_95"
        d="M 41.13 161.67 C 41.47 162.2 42.14 163.26 42.47 163.79 C 43.14 163.88 44.46 164.06 45.12 164.15 C 43.63 165.04 42.74 166.22 43.79 167.92 C 42.56 167.29 41.24 166.48 40.18 167.9 C 40.17 166.29 39.55 164.91 38.29 163.9 C 38.95 163.93 40.27 163.99 40.93 164.02 C 40.98 163.43 41.08 162.26 41.13 161.67 Z"
        fill="#f1b809"/>
    <path
        id="path_96"
        d="M 74.89 191.02 C 75.4 190.75 76.43 190.23 76.95 189.96 C 78.11 191.69 79.28 193.43 80.45 195.16 C 79.37 195.84 78.31 196.55 77.26 197.29 C 74.18 199.06 70.63 199.65 67.11 199.58 C 65.5 197.01 63.87 194.34 63.46 191.27 C 66.95 193.75 71.37 192.93 74.89 191.02 Z"
        fill="#f1b809"/>
    <path
        id="path_97"
        d="M 118.16 161.96 C 119.5 164.25 121.03 166.41 122.55 168.58 C 122.43 168.82 122.21 169.31 122.09 169.55 C 120.47 171.48 118.61 173.25 116.41 174.51 C 109.51 178.5 102.56 182.43 95.68 186.46 C 94.46 184.65 93.24 182.84 92.03 181.02 C 99.06 177.11 105.76 172.62 112.9 168.89 C 115.69 167.56 117.46 164.91 118.16 161.96 Z"
        fill="#fae731"/>
    <path
        id="path_98"
        d="M 51.92 164.83 C 51.84 161.63 54.68 163.89 54.1 165.95 C 53.55 165.67 52.46 165.11 51.92 164.83 Z"
        fill="#9c893d"/>
    <path
        id="path_99"
        d="M 84.01 165.12 C 83.17 162.55 87 162.49 86.02 165.11 C 85.52 165.11 84.52 165.12 84.01 165.12 Z"
        fill="#877b48"/>
    <path
        id="path_100"
        d="M 68.84 163.49 C 69.6 165.29 70.32 167.11 70.99 168.95 C 73.17 168.99 75.34 169.02 77.52 169.08 C 75.83 170.45 74.13 171.79 72.44 173.15 C 72.93 175.24 73.38 177.35 73.92 179.43 C 72.33 178.07 70.67 176.8 69.02 175.52 C 67.3 176.78 65.55 178 63.82 179.25 C 64.41 177.21 64.87 175.14 65.44 173.1 C 63.77 171.78 62.05 170.54 60.49 169.09 C 62.61 169.02 64.73 169.02 66.85 168.9 C 66.94 168.66 67.13 168.16 67.22 167.91 C 67.76 166.43 68.3 164.96 68.84 163.49 Z"
        fill="#f7b003"/>
    <path
        id="path_101"
        d="M 51.92 164.83 C 52.46 165.11 53.55 165.67 54.1 165.95 L 54.23 166.75 C 55.25 166.77 57.3 166.79 58.32 166.81 C 57.24 167.64 56.17 168.48 55.09 169.32 C 55.43 170.66 55.78 172 56.12 173.35 C 55.54 172.95 54.39 172.14 53.81 171.74 C 53.58 171.54 53.13 171.13 52.9 170.92 C 51.8 171.71 50.69 172.5 49.59 173.31 C 49.87 171.97 50.16 170.63 50.45 169.3 C 49.61 168.39 48.68 167.59 47.68 166.87 C 48.32 166.81 49.58 166.69 50.22 166.63 C 50.58 166.56 51.31 166.42 51.68 166.35 L 51.92 164.83 Z"
        fill="#f7ae03"/>
    <path
        id="path_102"
        d="M 84.01 165.12 C 84.52 165.12 85.52 165.11 86.02 165.11 C 86.05 165.48 86.11 166.21 86.14 166.58 C 87.2 166.67 89.31 166.84 90.37 166.92 C 89.32 167.72 88.26 168.53 87.22 169.35 C 87.61 170.64 88 171.92 88.4 173.21 C 87.27 172.47 86.15 171.72 85 171.02 C 84.63 171.26 83.89 171.73 83.53 171.97 C 83.05 172.29 82.08 172.94 81.6 173.26 C 81.96 172 82.33 170.74 82.7 169.49 C 81.8 168.59 80.86 167.74 79.94 166.86 C 81.29 166.78 82.63 166.67 83.98 166.53 L 84.01 165.12 Z"
        fill="#f7ae03"/>
    <path
        id="path_103"
        d="M 117.95 177.99 C 120.22 176.75 122.28 175.16 124.05 173.27 C 123.94 174.7 125.12 176.58 123.87 177.78 C 122.01 179.63 119.88 181.24 118.38 183.42 C 116.29 185.42 113.46 186.39 111.06 187.96 C 107.26 190.01 103.7 192.55 99.72 194.25 L 98.77 194.41 C 95.56 194.67 92.32 195.71 89.13 194.67 C 98.78 189.18 108.27 183.41 117.95 177.99 Z"
        fill="#f9e52f"/>
    <path
        id="path_104"
        d="M 43.27 179.62 C 49.89 183.7 57 186.93 63.46 191.27 C 63.87 194.34 65.5 197.01 67.11 199.58 C 62.59 198.87 58.9 196.07 55.01 193.88 C 49.84 190.91 44.7 187.89 39.53 184.93 C 40.78 183.17 42.03 181.4 43.27 179.62 Z"
        fill="#eca600"/>
    <path
        id="path_105"
        d="M 76.95 189.96 C 82.07 187.15 86.84 183.73 92.03 181.02 C 93.24 182.84 94.46 184.65 95.68 186.46 C 93.6 187.66 91.55 188.9 89.47 190.09 C 86.4 191.66 83.41 193.4 80.45 195.16 C 79.28 193.43 78.11 191.69 76.95 189.96 Z"
        fill="#f5ce18"/>
    <path
        id="path_106"
        d="M 28.72 186.19 C 27.44 185.34 27.35 183.75 27.5 182.37 C 37.16 187.97 46.9 193.44 56.5 199.13 C 56.67 201.29 57.41 203.53 59.62 204.37 C 64.24 206.9 69.65 207.06 74.77 207.64 L 75.45 207.7 C 72.69 208.28 69.87 208.73 67.04 208.47 C 60.24 208.19 54.45 204.13 48.97 200.54 C 47.78 199.24 46.72 197.76 45.2 196.83 C 39.67 193.34 33.8 190.33 28.72 186.19 Z"
        fill="#e99b00"/>
    <path
        id="path_107"
        d="M 80.45 195.16 C 83.41 193.4 86.4 191.66 89.47 190.09 L 91.25 190.04 C 89.64 191.51 88.56 193.41 87.76 195.42 C 83.59 197.79 79.51 200.33 75.28 202.6 C 73.04 202.83 70.82 203.11 68.58 203.31 C 68.53 202.85 68.42 201.94 68.36 201.48 C 71.52 200.61 75.58 200.67 77.26 197.29 C 78.31 196.55 79.37 195.84 80.45 195.16 Z"
        fill="#363130"/>
    <path
        id="path_108"
        d="M 89.13 194.67 C 92.32 195.71 95.56 194.67 98.77 194.41 L 98.9 194.58 C 94.68 197.91 89.71 200.16 85.11 202.92 C 81.84 203.37 78.52 203.26 75.28 202.6 C 79.51 200.33 83.59 197.79 87.76 195.42 C 88.1 195.23 88.79 194.86 89.13 194.67 Z"
        fill="#f3c514"/>
    <path
        id="path_109"
        d="M 59.62 204.37 C 57.41 203.53 56.67 201.29 56.5 199.13 C 60.12 201.49 64.2 203.23 68.58 203.31 C 70.82 203.11 73.04 202.83 75.28 202.6 C 78.52 203.26 81.84 203.37 85.11 202.92 C 81.84 204.76 78.64 207.36 74.77 207.64 C 69.65 207.06 64.24 206.9 59.62 204.37 Z"
        fill="#edaf03"/>
</svg>
