<svg
    xmlns="http://www.w3.org/2000/svg"
    viewBox="0 0 50 40"
    id="vector">
    <path
        id="path_1"
        d="M 4.2 0 L 45.68 0 C 47.62 0.81 49.12 2.3 50 4.21 L 50 35.68 C 49.19 37.63 47.68 39.12 45.77 40 L 4.35 40 C 2.4 39.2 0.89 37.72 0 35.82 L 0 4.3 C 0.8 2.36 2.31 0.88 4.2 0 M 17.5 13.88 C 18.2 14.26 19.6 15.03 20.31 15.42 C 21.99 14.5 23.84 11.99 21.52 10.63 C 19.3 8.79 17.11 11.62 17.5 13.88 M 22.53 28.67 C 20.51 26.22 18.46 23.79 16.3 21.46 C 13.5 24.87 10.45 28.19 8.44 32.15 C 19.49 32.5 30.57 32.5 41.61 32.15 C 38.75 26.99 34.98 22.31 31.07 17.9 C 28.06 21.36 25.38 25.09 22.53 28.67 Z"
        fill="#ffffff"
        stroke-width="1"/>
</svg>
