<svg
    xmlns="http://www.w3.org/2000/svg"
    viewBox="0 0 48 36"
    id="vector">
    <path
        id="path_2"
        d="M 2.9 0 L 33.99 0 C 35.11 0.76 36.66 1.43 36.76 2.99 C 37.17 8.65 36.81 14.34 36.95 20.02 C 36.96 22.27 37.1 25.55 34.35 26.28 C 29.29 26.99 24.15 26.09 19.08 26.71 C 14.96 29.34 11.46 32.84 7.61 35.83 C 7.61 32.77 7.63 29.7 7.63 26.63 C 4.8 26.53 1.25 26.93 0 23.73 L 0 2.77 C 1.3 2.28 2.05 1.03 2.9 0 Z"
        fill="#ffffff"
        stroke-width="1"/>
    <path
        id="path_3"
        d="M 38.77 11.57 C 41.93 11.86 46.45 10.44 48 14.18 L 48 29.17 C 47.35 30.85 45.81 31.8 44.27 32.57 C 44.28 33.43 44.3 35.14 44.31 35.99 C 42.73 34.71 41.15 33.41 39.58 32.11 C 33.7 31.98 27.81 32.23 21.94 32.01 C 19.82 32.27 19.01 30.05 18.23 28.55 C 23.79 28.23 29.37 28.62 34.93 28.34 C 36.92 28.46 38.69 26.82 38.68 24.84 C 38.94 20.42 38.7 15.99 38.77 11.57 Z"
        fill="#ffffff"
        stroke-width="1"/>
</svg>
