<svg
    xmlns="http://www.w3.org/2000/svg"
    viewBox="0 0 138 212"
    id="vector">
    <path
        id="path"
        d="M 56.16 6.21 C 63.81 1.37 74.27 1.37 81.93 6.18 C 95.41 14.05 108.94 21.84 122.43 29.68 C 127.03 32.42 130.22 36.97 132.27 41.83 C 132.6 42.85 132.94 43.87 133.3 44.88 C 133.49 46.58 133.65 48.28 133.67 49.99 C 133.75 86.64 133.73 123.29 133.79 159.94 C 134.29 168.97 129.05 178 121.13 182.27 C 109.27 189.06 97.45 195.91 85.61 202.74 C 81.91 204.84 78.28 207.36 73.98 208.02 C 68.45 208.89 62.47 208.44 57.54 205.59 C 44.02 197.77 30.52 189.9 16.98 182.1 C 10.16 178.44 5.53 171.19 4.55 163.59 C 4.42 126.04 4.51 88.5 4.43 50.95 C 3.92 41.83 9.36 32.76 17.42 28.57 C 30.34 21.12 43.26 13.7 56.16 6.21 M 63.42 8.51 C 62.01 8.94 60.69 9.6 59.41 10.32 C 45.88 18.21 32.32 26.05 18.75 33.89 C 13.81 36.79 10.32 42.22 9.84 47.93 C 9.78 85.63 9.75 123.33 9.58 161.04 C 9.33 167.83 13.52 174.41 19.42 177.62 C 32.73 185.29 46.06 192.93 59.36 200.61 C 63.45 203.11 68.46 203.7 73.11 202.79 C 77.08 202.07 80.35 199.54 83.8 197.62 C 95.4 190.88 106.92 184 118.58 177.37 C 124.54 174.3 128.44 167.64 128.41 160.97 C 128.45 124 128.55 87.02 128.66 50.05 C 128.77 43.44 125.03 36.79 119.22 33.59 C 105.94 25.94 92.63 18.34 79.39 10.64 C 74.71 7.57 68.74 7.16 63.42 8.51 Z"
        fill="#dcdcdb"/>
    <path
        id="path_1"
        d="M 64.27 12.23 C 68.55 10.84 73.4 11.44 77.21 13.84 C 90.43 21.59 103.71 29.24 116.95 36.95 C 121.49 39.56 124.65 44.66 124.63 49.94 C 124.72 83.63 124.79 117.33 124.84 151.02 C 124.86 155.7 125.74 160.53 124.19 165.08 C 122.99 168.81 120.46 172.14 117.05 174.11 C 104.17 181.58 91.24 188.96 78.37 196.44 C 73.52 199.82 66.81 200.52 61.64 197.46 C 48.12 189.6 34.58 181.77 21.06 173.91 C 15.91 170.97 13.06 164.9 13.35 159.07 C 13.45 147.36 13.12 135.65 13.42 123.95 C 13.85 102.97 13.01 82.01 13.17 61.03 C 13.31 55.73 12.09 50.21 14.07 45.1 C 15.38 41.4 18.11 38.3 21.52 36.39 C 34.16 29.03 46.94 21.92 59.59 14.56 C 61.1 13.7 62.61 12.79 64.27 12.23 M 66.87 20.64 C 65.21 21.75 63.52 22.82 61.81 23.87 C 52.57 29.24 43.34 34.64 34.13 40.05 C 30.19 42.42 25.86 44.3 22.56 47.59 C 22.5 85.07 22.44 122.55 22.38 160.04 C 22.36 161.82 22.85 163.55 23.34 165.25 C 24.3 165.85 25.25 166.48 26.19 167.12 C 27.36 167.65 28.54 168.16 29.75 168.62 L 29.33 169.07 C 32.72 170.52 35.94 172.36 38.95 174.51 L 39.74 174.48 C 41.99 175.93 44.3 177.31 46.62 178.66 C 48.99 179.94 51.32 181.28 53.66 182.63 C 55.7 183.81 57.74 184.99 59.78 186.18 C 62.17 187.49 64.53 188.85 66.8 190.36 C 68.27 190.36 69.76 190.37 71.24 190.38 C 73.5 188.88 75.84 187.49 78.2 186.14 C 86.56 181.18 95 176.35 103.36 171.38 C 107.47 168.89 111.99 166.94 115.49 163.56 C 115.72 154.55 115.65 145.53 115.59 136.51 L 118.03 136 L 115.53 135.47 C 115.6 132.62 115.65 129.76 116.25 126.96 C 116.32 124.43 116.36 121.9 116.43 119.37 L 115.61 119.6 C 115.61 118.8 115.62 117.2 115.62 116.4 L 116.41 116.64 C 116.33 112.87 116.33 109.09 116.43 105.32 L 115.64 105.6 C 115.63 85.77 116.11 65.92 115.49 46.11 L 114.1 46.86 C 114.25 46.33 114.55 45.28 114.7 44.75 C 113.22 44.44 111.75 44.04 110.3 43.61 L 110.69 42.19 C 110.13 42.36 109 42.69 108.44 42.86 L 108.67 41.26 C 108.14 41.39 107.08 41.65 106.54 41.78 L 106.62 40.86 C 103.81 39.5 101.09 37.96 98.41 36.37 C 96.04 35.04 93.69 33.68 91.33 32.33 C 89.02 30.99 86.72 29.63 84.39 28.33 C 82.06 27.02 79.74 25.69 77.41 24.38 C 75.31 23.17 73.23 21.91 71.19 20.61 C 69.75 20.62 68.31 20.63 66.87 20.64 Z"
        fill="#dcdcdb"/>
    <path
        id="path_2"
        d="M 47.31 69.26 C 55.02 59.31 70.66 55.32 81.43 62.59 C 88.76 67.42 90.12 77.63 87.26 85.38 C 85.23 90.08 80.74 92.92 76.66 95.66 C 72.06 98.58 67.75 101.98 64.06 106 C 68.49 105.86 72.92 105.86 77.34 106.11 C 77.29 103.96 77.23 101.82 77.14 99.67 C 81.86 99.65 86.57 99.67 91.29 99.69 C 91.22 105.92 91.26 112.15 91.25 118.38 C 76.43 118.36 61.61 118.38 46.79 118.36 C 46.9 113.99 46.46 109.59 46.93 105.24 C 51.01 96.92 58.41 90.97 66 85.96 C 68.82 83.84 72.54 81.84 73.27 78.07 C 73.16 74.84 69.77 73.24 66.91 73.41 C 62.46 73.21 59.31 76.83 56.43 79.69 C 53.51 76.13 49.38 73.4 47.31 69.26 Z"
        fill="#dcdcdb"/>
    <path
        id="path_3"
        d="M 91.12 59.24 C 92.97 60.84 93.86 63.17 94.95 65.29 C 94.87 63.53 94.78 61.76 94.71 60 L 96.25 60 C 96.28 63.96 96.29 67.94 95.62 71.87 C 94.67 70.1 93.78 68.3 92.87 66.52 C 92.73 68.17 92.6 69.81 92.46 71.46 C 92.14 71.36 91.49 71.14 91.16 71.04 C 91.03 67.1 90.87 63.17 91.12 59.24 Z"
        fill="#dcdcdb"/>
    <path
        id="path_4"
        d="M 97.15 59.87 C 98.8 60.08 100.83 59.61 101.92 61.22 C 102.43 64.26 102.52 67.51 101.44 70.44 C 100.11 70.79 98.75 70.94 97.4 71.15 C 97.28 67.39 97.22 63.63 97.15 59.87 M 99.06 61.23 C 98.72 64.08 98.67 66.95 98.86 69.82 C 101.29 67.59 101.12 63.64 99.06 61.23 Z"
        fill="#dcdcdb"/>
    <path
        id="path_5"
        d="M 26.07 77.74 C 31.36 76.88 37.03 76.48 42.26 77.81 C 42.26 79.03 42.22 80.26 42.15 81.48 C 36.97 81.64 31.78 81.61 26.6 81.51 C 26.41 80.25 26.23 78.99 26.07 77.74 Z"
        fill="#dcdcdb"/>
    <path
        id="path_6"
        d="M 95.64 77.69 C 101.15 76.88 106.91 76.6 112.36 77.91 C 112.08 79.08 111.7 80.22 111.24 81.33 C 106.32 81.9 101.33 81.47 96.39 81.53 C 96.12 80.25 95.88 78.97 95.64 77.69 Z"
        fill="#dcdcdb"/>
    <path
        id="path_7"
        d="M 26.42 87.8 C 31.7 87.64 36.98 87.59 42.26 87.8 C 42.25 88.79 42.22 90.75 42.2 91.73 C 36.96 91.88 31.7 91.88 26.45 91.75 C 26.43 90.43 26.42 89.11 26.42 87.8 Z"
        fill="#dcdcdb"/>
    <path
        id="path_8"
        d="M 95.86 87.91 C 101.12 87.78 106.48 87.26 111.67 88.17 C 111.86 89.29 111.97 90.43 111.99 91.57 C 106.67 92.4 101.24 92.34 95.9 91.68 C 95.88 90.42 95.86 89.17 95.86 87.91 Z"
        fill="#dcdcdb"/>
    <path
        id="path_9"
        d="M 27.19 98.25 C 32.1 97.98 37.06 97.91 41.96 98.34 C 42.55 99.78 42.75 102.25 40.57 102.27 C 35.91 102.31 31.13 102.81 26.54 101.93 C 26.27 100.62 25.54 98.93 27.19 98.25 Z"
        fill="#dcdcdb"/>
    <path
        id="path_10"
        d="M 96.13 98.37 C 101 97.91 105.95 97.97 110.83 98.28 C 113.02 98.8 112.09 102.69 109.94 102.32 C 105.37 102.46 100.79 102.34 96.21 102.31 C 96.05 101.01 95.62 99.65 96.13 98.37 Z"
        fill="#dcdcdb"/>
    <path
        id="path_11"
        d="M 53.14 131.75 C 54.19 131.72 55.24 131.7 56.29 131.67 C 56.26 137.56 56.24 143.44 56.2 149.32 C 55.26 149.35 54.32 149.37 53.39 149.4 C 53.27 143.51 53.23 137.63 53.14 131.75 Z"
        fill="#dcdcdb"/>
    <path
        id="path_12"
        d="M 58.7 131.65 C 59.78 131.68 60.85 131.71 61.92 131.74 C 62.99 135.18 63.94 138.64 64.81 142.13 C 64.97 138.64 64.99 135.14 64.96 131.64 C 65.93 131.66 66.91 131.69 67.88 131.73 C 67.77 137.62 67.73 143.52 67.63 149.41 C 66.68 149.38 65.73 149.36 64.78 149.34 C 63.75 146.08 62.66 142.84 61.54 139.61 C 61.47 142.86 61.45 146.12 61.41 149.38 C 60.76 149.37 59.45 149.35 58.79 149.34 C 58.76 143.44 58.73 137.55 58.7 131.65 Z"
        fill="#dcdcdb"/>
    <path
        id="path_13"
        d="M 91.14 131.6 C 93.95 131.96 98.38 130.48 99.5 134.11 C 99.88 136.83 99.51 139.61 98.73 142.23 C 99.29 144.72 99.89 147.2 100.42 149.7 C 95.85 150.27 96.55 144.69 94.75 142.01 C 94.37 144.44 94.27 146.91 94.2 149.37 C 93.25 149.39 92.3 149.41 91.35 149.44 C 91.26 143.49 91.19 137.54 91.14 131.6 M 94.24 135.05 C 94.33 136.83 94.43 138.62 94.6 140.41 C 96.33 139.27 97.12 137.54 97.01 135.47 C 96.32 135.37 94.93 135.15 94.24 135.05 Z"
        fill="#dcdcdb"/>
    <path
        id="path_14"
        d="M 37.45 131.41 C 38.21 131.57 39.74 131.91 40.5 132.08 C 41.1 134.44 41.22 136.89 41.61 139.3 C 42.04 136.77 42.39 134.23 42.8 131.71 C 43.55 131.72 45.05 131.74 45.8 131.75 C 46.14 134.17 46.51 136.58 46.87 139 C 47.28 136.56 47.67 134.12 48.07 131.69 C 48.84 131.7 50.38 131.71 51.15 131.72 C 50.14 137.76 49.21 143.82 48.1 149.85 C 44.03 148.99 45.39 143.84 44.42 140.81 C 43.42 143.89 44.47 148.64 40.75 149.97 C 39.4 143.83 38.4 137.62 37.45 131.41 Z"
        fill="#dcdcdb"/>
    <path
        id="path_15"
        d="M 70.13 131.71 C 70.97 131.69 72.65 131.64 73.5 131.61 C 74.47 134.99 75.43 138.37 76.5 141.72 C 76.48 138.36 76.43 135.01 76.39 131.66 C 77.13 131.65 78.61 131.63 79.36 131.62 C 79.29 137.67 79.31 143.72 79.22 149.76 C 78.55 149.58 77.23 149.22 76.56 149.04 C 74.89 146.05 74.27 142.61 73.19 139.38 C 73.01 142.73 72.89 146.08 72.8 149.43 C 72.19 149.42 70.98 149.4 70.37 149.38 C 70.27 143.49 70.22 137.6 70.13 131.71 Z"
        fill="#dcdcdb"/>
    <path
        id="path_16"
        d="M 81.64 131.62 C 84.3 131.63 86.96 131.63 89.62 131.66 C 89.44 132.79 89.3 133.93 89.03 135.04 C 87.53 135.18 86.04 135.28 84.55 135.33 C 84.55 136.15 84.55 137.79 84.56 138.61 C 85.75 138.63 86.94 138.64 88.14 138.65 C 88.12 139.54 88.09 141.3 88.08 142.19 C 87.19 142.18 85.41 142.15 84.52 142.14 C 84.5 143.41 84.49 144.68 84.47 145.95 C 86.1 145.93 87.74 145.9 89.37 145.88 C 89.34 146.75 89.29 148.51 89.26 149.38 C 86.75 149.37 84.25 149.37 81.74 149.37 C 81.71 143.46 81.69 137.54 81.64 131.62 Z"
        fill="#dcdcdb"/>
    <path
        id="path_17"
        d="M 38.75 164.78 C 39.75 164.06 40.71 163.3 41.67 162.53 C 42.69 163.05 43.63 163.7 44.55 164.4 C 43.91 165.51 43.58 166.74 43.32 167.99 C 42.99 167.56 42.32 166.71 41.98 166.28 C 41.46 166.75 40.41 167.68 39.89 168.14 C 40.04 167.44 40.33 166.03 40.48 165.33 C 40.04 165.19 39.18 164.92 38.75 164.78 Z"
        fill="#dcdcdb"/>
    <path
        id="path_18"
        d="M 95.33 163.78 C 95.75 163.15 96.61 161.9 97.03 161.27 C 97.06 161.96 97.13 163.34 97.16 164.03 C 97.79 163.96 99.03 163.83 99.66 163.76 C 98.83 165.08 97.99 166.39 97.16 167.71 C 96.95 167.39 96.52 166.75 96.31 166.42 C 95.67 166.88 94.4 167.79 93.77 168.24 C 94.09 167.57 94.73 166.23 95.05 165.56 C 94.46 165.22 93.27 164.56 92.68 164.23 C 93.34 164.12 94.66 163.89 95.33 163.78 Z"
        fill="#dcdcdb"/>
    <path
        id="path_19"
        d="M 51.73 166.3 C 52.15 165.07 52.57 163.85 53 162.63 C 53.43 163.85 53.85 165.07 54.27 166.29 C 55.67 166.39 57.07 166.5 58.48 166.61 C 57.4 167.47 56.32 168.32 55.23 169.17 C 55.59 170.5 55.95 171.84 56.31 173.18 C 55.2 172.29 54.1 171.41 53 170.53 C 51.9 171.42 50.81 172.31 49.71 173.2 C 50.07 171.84 50.44 170.48 50.81 169.13 C 49.72 168.3 48.63 167.47 47.56 166.63 C 48.95 166.51 50.34 166.4 51.73 166.3 Z"
        fill="#dcdcdb"/>
    <path
        id="path_20"
        d="M 66.93 169 C 67.65 166.95 68.36 164.89 69.09 162.84 C 69.81 164.89 70.52 166.94 71.21 169 C 73.35 168.99 75.48 168.98 77.62 169.01 C 75.95 170.39 74.24 171.71 72.5 172.99 C 73.12 175.04 73.74 177.1 74.27 179.18 C 72.54 177.91 70.8 176.64 69.07 175.38 C 67.31 176.68 65.54 177.98 63.77 179.27 C 64.39 177.17 65.06 175.08 65.74 173 C 63.95 171.71 62.18 170.39 60.46 169.01 C 62.62 168.99 64.78 169 66.93 169 Z"
        fill="#dcdcdb"/>
    <path
        id="path_21"
        d="M 85.21 162.57 C 85.63 163.78 86.04 165 86.45 166.23 C 87.9 166.34 89.35 166.46 90.81 166.59 C 89.66 167.48 88.5 168.35 87.35 169.22 C 87.66 170.12 88.28 171.93 88.59 172.83 C 87.43 172.21 86.25 171.63 85.07 171.07 C 83.91 171.67 82.84 172.41 81.74 173.1 C 82.16 171.78 82.57 170.45 82.99 169.13 C 81.8 168.29 80.62 167.44 79.46 166.59 C 80.9 166.48 82.33 166.4 83.78 166.33 C 84.25 165.07 84.73 163.82 85.21 162.57 Z"
        fill="#dcdcdb"/>
    <path
        id="path_22"
        d="M 63.42 8.51 C 68.74 7.16 74.71 7.57 79.39 10.64 C 92.63 18.34 105.94 25.94 119.22 33.59 C 125.03 36.79 128.77 43.44 128.66 50.05 C 128.55 87.02 128.45 124 128.41 160.97 C 128.44 167.64 124.54 174.3 118.58 177.37 C 106.92 184 95.4 190.88 83.8 197.62 C 80.35 199.54 77.08 202.07 73.11 202.79 C 68.46 203.7 63.45 203.11 59.36 200.61 C 46.06 192.93 32.73 185.29 19.42 177.62 C 13.52 174.41 9.33 167.83 9.58 161.04 C 9.75 123.33 9.78 85.63 9.84 47.93 C 10.32 42.22 13.81 36.79 18.75 33.89 C 32.32 26.05 45.88 18.21 59.41 10.32 C 60.69 9.6 62.01 8.94 63.42 8.51 M 64.27 12.23 C 62.61 12.79 61.1 13.7 59.59 14.56 C 46.94 21.92 34.16 29.03 21.52 36.39 C 18.11 38.3 15.38 41.4 14.07 45.1 C 12.09 50.21 13.31 55.73 13.17 61.03 C 13.01 82.01 13.85 102.97 13.42 123.95 C 13.12 135.65 13.45 147.36 13.35 159.07 C 13.06 164.9 15.91 170.97 21.06 173.91 C 34.58 181.77 48.12 189.6 61.64 197.46 C 66.81 200.52 73.52 199.82 78.37 196.44 C 91.24 188.96 104.17 181.58 117.05 174.11 C 120.46 172.14 122.99 168.81 124.19 165.08 C 125.74 160.53 124.86 155.7 124.84 151.02 C 124.79 117.33 124.72 83.63 124.63 49.94 C 124.65 44.66 121.49 39.56 116.95 36.95 C 103.71 29.24 90.43 21.59 77.21 13.84 C 73.4 11.44 68.55 10.84 64.27 12.23 Z"
        fill="#292424"/>
    <path
        id="path_23"
        d="M 66.87 20.64 C 68.31 20.63 69.75 20.62 71.19 20.61 C 73.23 21.91 75.31 23.17 77.41 24.38 C 79.74 25.69 82.06 27.02 84.39 28.33 C 86.72 29.63 89.02 30.99 91.33 32.33 C 93.69 33.68 96.04 35.04 98.41 36.37 C 101.09 37.96 103.81 39.5 106.62 40.86 L 106.54 41.78 C 107.08 41.65 108.14 41.39 108.67 41.26 L 108.44 42.86 C 109 42.69 110.13 42.36 110.69 42.19 L 110.3 43.61 C 111.75 44.04 113.22 44.44 114.7 44.75 C 114.55 45.28 114.25 46.33 114.1 46.86 L 115.49 46.11 C 116.11 65.92 115.63 85.77 115.64 105.6 L 116.43 105.32 C 116.33 109.09 116.33 112.87 116.41 116.64 L 115.62 116.4 C 115.62 117.2 115.61 118.8 115.61 119.6 L 116.43 119.37 C 116.36 121.9 116.32 124.43 116.25 126.96 C 115.65 129.76 115.6 132.62 115.53 135.47 L 118.03 136 L 115.59 136.51 C 115.65 145.53 115.72 154.55 115.49 163.56 C 111.99 166.94 107.47 168.89 103.36 171.38 C 95 176.35 86.56 181.18 78.2 186.14 C 75.84 187.49 73.5 188.88 71.24 190.38 C 69.76 190.37 68.27 190.36 66.8 190.36 C 64.53 188.85 62.17 187.49 59.78 186.18 C 57.74 184.99 55.7 183.81 53.66 182.63 C 51.32 181.28 48.99 179.94 46.62 178.66 C 44.3 177.31 41.99 175.93 39.74 174.48 L 38.95 174.51 C 35.94 172.36 32.72 170.52 29.33 169.07 L 29.75 168.62 C 28.54 168.16 27.36 167.65 26.19 167.12 C 25.25 166.48 24.3 165.85 23.34 165.25 C 22.85 163.55 22.36 161.82 22.38 160.04 C 22.44 122.55 22.5 85.07 22.56 47.59 C 25.86 44.3 30.19 42.42 34.13 40.05 C 43.34 34.64 52.57 29.24 61.81 23.87 C 63.52 22.82 65.21 21.75 66.87 20.64 M 47.31 69.26 C 49.38 73.4 53.51 76.13 56.43 79.69 C 59.31 76.83 62.46 73.21 66.91 73.41 C 69.77 73.24 73.16 74.84 73.27 78.07 C 72.54 81.84 68.82 83.84 66 85.96 C 58.41 90.97 51.01 96.92 46.93 105.24 C 46.46 109.59 46.9 113.99 46.79 118.36 C 61.61 118.38 76.43 118.36 91.25 118.38 C 91.26 112.15 91.22 105.92 91.29 99.69 C 86.57 99.67 81.86 99.65 77.14 99.67 C 77.23 101.82 77.29 103.96 77.34 106.11 C 72.92 105.86 68.49 105.86 64.06 106 C 67.75 101.98 72.06 98.58 76.66 95.66 C 80.74 92.92 85.23 90.08 87.26 85.38 C 90.12 77.63 88.76 67.42 81.43 62.59 C 70.66 55.32 55.02 59.31 47.31 69.26 M 91.12 59.24 C 90.87 63.17 91.03 67.1 91.16 71.04 C 91.49 71.14 92.14 71.36 92.46 71.46 C 92.6 69.81 92.73 68.17 92.87 66.52 C 93.78 68.3 94.67 70.1 95.62 71.87 C 96.29 67.94 96.28 63.96 96.25 60 L 94.71 60 C 94.78 61.76 94.87 63.53 94.95 65.29 C 93.86 63.17 92.97 60.84 91.12 59.24 M 97.15 59.87 C 97.22 63.63 97.28 67.39 97.4 71.15 C 98.75 70.94 100.11 70.79 101.44 70.44 C 102.52 67.51 102.43 64.26 101.92 61.22 C 100.83 59.61 98.8 60.08 97.15 59.87 M 26.07 77.74 C 26.23 78.99 26.41 80.25 26.6 81.51 C 31.78 81.61 36.97 81.64 42.15 81.48 C 42.22 80.26 42.26 79.03 42.26 77.81 C 37.03 76.48 31.36 76.88 26.07 77.74 M 95.64 77.69 C 95.88 78.97 96.12 80.25 96.39 81.53 C 101.33 81.47 106.32 81.9 111.24 81.33 C 111.7 80.22 112.08 79.08 112.36 77.91 C 106.91 76.6 101.15 76.88 95.64 77.69 M 26.42 87.8 C 26.42 89.11 26.43 90.43 26.45 91.75 C 31.7 91.88 36.96 91.88 42.2 91.73 C 42.22 90.75 42.25 88.79 42.26 87.8 C 36.98 87.59 31.7 87.64 26.42 87.8 M 95.86 87.91 C 95.86 89.17 95.88 90.42 95.9 91.68 C 101.24 92.34 106.67 92.4 111.99 91.57 C 111.97 90.43 111.86 89.29 111.67 88.17 C 106.48 87.26 101.12 87.78 95.86 87.91 M 27.19 98.25 C 25.54 98.93 26.27 100.62 26.54 101.93 C 31.13 102.81 35.91 102.31 40.57 102.27 C 42.75 102.25 42.55 99.78 41.96 98.34 C 37.06 97.91 32.1 97.98 27.19 98.25 M 96.13 98.37 C 95.62 99.65 96.05 101.01 96.21 102.31 C 100.79 102.34 105.37 102.46 109.94 102.32 C 112.09 102.69 113.02 98.8 110.83 98.28 C 105.95 97.97 101 97.91 96.13 98.37 M 53.14 131.75 C 53.23 137.63 53.27 143.51 53.39 149.4 C 54.32 149.37 55.26 149.35 56.2 149.32 C 56.24 143.44 56.26 137.56 56.29 131.67 C 55.24 131.7 54.19 131.72 53.14 131.75 M 58.7 131.65 C 58.73 137.55 58.76 143.44 58.79 149.34 C 59.45 149.35 60.76 149.37 61.41 149.38 C 61.45 146.12 61.47 142.86 61.54 139.61 C 62.66 142.84 63.75 146.08 64.78 149.34 C 65.73 149.36 66.68 149.38 67.63 149.41 C 67.73 143.52 67.77 137.62 67.88 131.73 C 66.91 131.69 65.93 131.66 64.96 131.64 C 64.99 135.14 64.97 138.64 64.81 142.13 C 63.94 138.64 62.99 135.18 61.92 131.74 C 60.85 131.71 59.78 131.68 58.7 131.65 M 91.14 131.6 C 91.19 137.54 91.26 143.49 91.35 149.44 C 92.3 149.41 93.25 149.39 94.2 149.37 C 94.27 146.91 94.37 144.44 94.75 142.01 C 96.55 144.69 95.85 150.27 100.42 149.7 C 99.89 147.2 99.29 144.72 98.73 142.23 C 99.51 139.61 99.88 136.83 99.5 134.11 C 98.38 130.48 93.95 131.96 91.14 131.6 M 37.45 131.41 C 38.4 137.62 39.4 143.83 40.75 149.97 C 44.47 148.64 43.42 143.89 44.42 140.81 C 45.39 143.84 44.03 148.99 48.1 149.85 C 49.21 143.82 50.14 137.76 51.15 131.72 C 50.38 131.71 48.84 131.7 48.07 131.69 C 47.67 134.12 47.28 136.56 46.87 139 C 46.51 136.58 46.14 134.17 45.8 131.75 C 45.05 131.74 43.55 131.72 42.8 131.71 C 42.39 134.23 42.04 136.77 41.61 139.3 C 41.22 136.89 41.1 134.44 40.5 132.08 C 39.74 131.91 38.21 131.57 37.45 131.41 M 70.13 131.71 C 70.22 137.6 70.27 143.49 70.37 149.38 C 70.98 149.4 72.19 149.42 72.8 149.43 C 72.89 146.08 73.01 142.73 73.19 139.38 C 74.27 142.61 74.89 146.05 76.56 149.04 C 77.23 149.22 78.55 149.58 79.22 149.76 C 79.31 143.72 79.29 137.67 79.36 131.62 C 78.61 131.63 77.13 131.65 76.39 131.66 C 76.43 135.01 76.48 138.36 76.5 141.72 C 75.43 138.37 74.47 134.99 73.5 131.61 C 72.65 131.64 70.97 131.69 70.13 131.71 M 81.64 131.62 C 81.69 137.54 81.71 143.46 81.74 149.37 C 84.25 149.37 86.75 149.37 89.26 149.38 C 89.29 148.51 89.34 146.75 89.37 145.88 C 87.74 145.9 86.1 145.93 84.47 145.95 C 84.49 144.68 84.5 143.41 84.52 142.14 C 85.41 142.15 87.19 142.18 88.08 142.19 C 88.09 141.3 88.12 139.54 88.14 138.65 C 86.94 138.64 85.75 138.63 84.56 138.61 C 84.55 137.79 84.55 136.15 84.55 135.33 C 86.04 135.28 87.53 135.18 89.03 135.04 C 89.3 133.93 89.44 132.79 89.62 131.66 C 86.96 131.63 84.3 131.63 81.64 131.62 M 38.75 164.78 C 39.18 164.92 40.04 165.19 40.48 165.33 C 40.33 166.03 40.04 167.44 39.89 168.14 C 40.41 167.68 41.46 166.75 41.98 166.28 C 42.32 166.71 42.99 167.56 43.32 167.99 C 43.58 166.74 43.91 165.51 44.55 164.4 C 43.63 163.7 42.69 163.05 41.67 162.53 C 40.71 163.3 39.75 164.06 38.75 164.78 M 95.33 163.78 C 94.66 163.89 93.34 164.12 92.68 164.23 C 93.27 164.56 94.46 165.22 95.05 165.56 C 94.73 166.23 94.09 167.57 93.77 168.24 C 94.4 167.79 95.67 166.88 96.31 166.42 C 96.52 166.75 96.95 167.39 97.16 167.71 C 97.99 166.39 98.83 165.08 99.66 163.76 C 99.03 163.83 97.79 163.96 97.16 164.03 C 97.13 163.34 97.06 161.96 97.03 161.27 C 96.61 161.9 95.75 163.15 95.33 163.78 M 51.73 166.3 C 50.34 166.4 48.95 166.51 47.56 166.63 C 48.63 167.47 49.72 168.3 50.81 169.13 C 50.44 170.48 50.07 171.84 49.71 173.2 C 50.81 172.31 51.9 171.42 53 170.53 C 54.1 171.41 55.2 172.29 56.31 173.18 C 55.95 171.84 55.59 170.5 55.23 169.17 C 56.32 168.32 57.4 167.47 58.48 166.61 C 57.07 166.5 55.67 166.39 54.27 166.29 C 53.85 165.07 53.43 163.85 53 162.63 C 52.57 163.85 52.15 165.07 51.73 166.3 M 66.93 169 C 64.78 169 62.62 168.99 60.46 169.01 C 62.18 170.39 63.95 171.71 65.74 173 C 65.06 175.08 64.39 177.17 63.77 179.27 C 65.54 177.98 67.31 176.68 69.07 175.38 C 70.8 176.64 72.54 177.91 74.27 179.18 C 73.74 177.1 73.12 175.04 72.5 172.99 C 74.24 171.71 75.95 170.39 77.62 169.01 C 75.48 168.98 73.35 168.99 71.21 169 C 70.52 166.94 69.81 164.89 69.09 162.84 C 68.36 164.89 67.65 166.95 66.93 169 M 85.21 162.57 C 84.73 163.82 84.25 165.07 83.78 166.33 C 82.33 166.4 80.9 166.48 79.46 166.59 C 80.62 167.44 81.8 168.29 82.99 169.13 C 82.57 170.45 82.16 171.78 81.74 173.1 C 82.84 172.41 83.91 171.67 85.07 171.07 C 86.25 171.63 87.43 172.21 88.59 172.83 C 88.28 171.93 87.66 170.12 87.35 169.22 C 88.5 168.35 89.66 167.48 90.81 166.59 C 89.35 166.46 87.9 166.34 86.45 166.23 C 86.04 165 85.63 163.78 85.21 162.57 Z"
        fill="#292424"/>
    <path
        id="path_24"
        d="M 99.06 61.23 C 101.12 63.64 101.29 67.59 98.86 69.82 C 98.67 66.95 98.72 64.08 99.06 61.23 Z"
        fill="#292424"/>
    <path
        id="path_25"
        d="M 94.24 135.05 C 94.93 135.15 96.32 135.37 97.01 135.47 C 97.12 137.54 96.33 139.27 94.6 140.41 C 94.43 138.62 94.33 136.83 94.24 135.05 Z"
        fill="#292424"/>
</svg>
